%TF.GenerationSoftware,KiCad,Pcbnew,(5.1.8)-1*%
%TF.CreationDate,2020-12-04T19:27:02-08:00*%
%TF.ProjectId,TasmoTree,5461736d-6f54-4726-9565-2e6b69636164,rev?*%
%TF.SameCoordinates,Original*%
%TF.FileFunction,Copper,L2,Bot*%
%TF.FilePolarity,Positive*%
%FSLAX46Y46*%
G04 Gerber Fmt 4.6, Leading zero omitted, Abs format (unit mm)*
G04 Created by KiCad (PCBNEW (5.1.8)-1) date 2020-12-04 19:27:02*
%MOMM*%
%LPD*%
G01*
G04 APERTURE LIST*
%TA.AperFunction,ComponentPad*%
%ADD10C,1.524000*%
%TD*%
%TA.AperFunction,ComponentPad*%
%ADD11R,1.800000X1.800000*%
%TD*%
%TA.AperFunction,ComponentPad*%
%ADD12O,1.800000X1.800000*%
%TD*%
%TA.AperFunction,ComponentPad*%
%ADD13R,1.560000X1.560000*%
%TD*%
%TA.AperFunction,ComponentPad*%
%ADD14C,1.560000*%
%TD*%
%TA.AperFunction,ComponentPad*%
%ADD15R,1.650000X1.650000*%
%TD*%
%TA.AperFunction,ComponentPad*%
%ADD16C,1.650000*%
%TD*%
%TA.AperFunction,ComponentPad*%
%ADD17O,6.000000X3.000000*%
%TD*%
%TA.AperFunction,ComponentPad*%
%ADD18C,1.950000*%
%TD*%
%TA.AperFunction,ComponentPad*%
%ADD19R,1.998980X1.998980*%
%TD*%
%TA.AperFunction,ComponentPad*%
%ADD20R,1.910000X1.910000*%
%TD*%
%TA.AperFunction,ComponentPad*%
%ADD21C,1.910000*%
%TD*%
%TA.AperFunction,ComponentPad*%
%ADD22R,3.960000X1.980000*%
%TD*%
%TA.AperFunction,ComponentPad*%
%ADD23O,3.960000X1.980000*%
%TD*%
%TA.AperFunction,ComponentPad*%
%ADD24R,1.980000X3.960000*%
%TD*%
%TA.AperFunction,ComponentPad*%
%ADD25O,1.980000X3.960000*%
%TD*%
%TA.AperFunction,ComponentPad*%
%ADD26C,1.200000*%
%TD*%
%TA.AperFunction,ComponentPad*%
%ADD27R,1.200000X1.200000*%
%TD*%
%TA.AperFunction,ComponentPad*%
%ADD28C,1.600000*%
%TD*%
%TA.AperFunction,ViaPad*%
%ADD29C,0.800000*%
%TD*%
%TA.AperFunction,Conductor*%
%ADD30C,0.250000*%
%TD*%
%TA.AperFunction,Conductor*%
%ADD31C,0.254000*%
%TD*%
%TA.AperFunction,Conductor*%
%ADD32C,0.150000*%
%TD*%
G04 APERTURE END LIST*
D10*
%TO.P,U5,6*%
%TO.N,Net-(J5-Pad2)*%
X169418000Y-60198000D03*
%TO.P,U5,5*%
%TO.N,Net-(J5-Pad1)*%
X169418000Y-52578000D03*
%TO.P,U5,4*%
%TO.N,GNDPWR*%
X151638000Y-52578000D03*
%TO.P,U5,3*%
%TO.N,Net-(U1-Pad22)*%
X151638000Y-55118000D03*
%TO.P,U5,1*%
%TO.N,Net-(J1-Pad4)*%
X151638000Y-60198000D03*
%TD*%
%TO.P,U4,6*%
%TO.N,Net-(J6-Pad1)*%
X169418000Y-75438000D03*
%TO.P,U4,5*%
%TO.N,Net-(J5-Pad3)*%
X169418000Y-67818000D03*
%TO.P,U4,4*%
%TO.N,GNDPWR*%
X151638000Y-67818000D03*
%TO.P,U4,3*%
%TO.N,Net-(U1-Pad31)*%
X151638000Y-70358000D03*
%TO.P,U4,1*%
%TO.N,Net-(J1-Pad4)*%
X151638000Y-75438000D03*
%TD*%
%TO.P,U3,6*%
%TO.N,Net-(J6-Pad3)*%
X169418000Y-90170000D03*
%TO.P,U3,5*%
%TO.N,Net-(J6-Pad2)*%
X169418000Y-82550000D03*
%TO.P,U3,4*%
%TO.N,GNDPWR*%
X151638000Y-82550000D03*
%TO.P,U3,3*%
%TO.N,Net-(U1-Pad32)*%
X151638000Y-85090000D03*
%TO.P,U3,1*%
%TO.N,Net-(J1-Pad4)*%
X151638000Y-90170000D03*
%TD*%
D11*
%TO.P,U2,1*%
%TO.N,GNDPWR*%
X113792000Y-52832000D03*
D12*
%TO.P,U2,2*%
%TO.N,Net-(C2-Pad1)*%
X113792000Y-55372000D03*
%TO.P,U2,3*%
%TO.N,12VP*%
X113792000Y-57912000D03*
%TD*%
D13*
%TO.P,U1,1*%
%TO.N,Net-(U1-Pad1)*%
X113284000Y-71680000D03*
D14*
%TO.P,U1,2*%
%TO.N,Net-(U1-Pad2)*%
X113284000Y-74220000D03*
%TO.P,U1,19*%
%TO.N,N/C*%
X113284000Y-117400000D03*
%TO.P,U1,3*%
%TO.N,Net-(U1-Pad3)*%
X113284000Y-76760000D03*
%TO.P,U1,4*%
%TO.N,Net-(U1-Pad4)*%
X113284000Y-79300000D03*
%TO.P,U1,5*%
%TO.N,Net-(U1-Pad5)*%
X113284000Y-81840000D03*
%TO.P,U1,6*%
%TO.N,Net-(U1-Pad6)*%
X113284000Y-84380000D03*
%TO.P,U1,7*%
%TO.N,Net-(U1-Pad7)*%
X113284000Y-86920000D03*
%TO.P,U1,8*%
%TO.N,Net-(U1-Pad8)*%
X113284000Y-89460000D03*
%TO.P,U1,9*%
%TO.N,Net-(U1-Pad9)*%
X113284000Y-92000000D03*
%TO.P,U1,10*%
%TO.N,GNDPWR*%
X113284000Y-94540000D03*
%TO.P,U1,11*%
%TO.N,Net-(C2-Pad1)*%
X113284000Y-97080000D03*
%TO.P,U1,12*%
%TO.N,Net-(U1-Pad12)*%
X113284000Y-99620000D03*
%TO.P,U1,13*%
%TO.N,Net-(U1-Pad13)*%
X113284000Y-102160000D03*
%TO.P,U1,14*%
%TO.N,GNDPWR*%
X113284000Y-104700000D03*
%TO.P,U1,15*%
%TO.N,Net-(U1-Pad15)*%
X113284000Y-107240000D03*
%TO.P,U1,16*%
%TO.N,N/C*%
X113284000Y-109780000D03*
%TO.P,U1,17*%
X113284000Y-112320000D03*
%TO.P,U1,18*%
X113284000Y-114860000D03*
%TO.P,U1,20*%
%TO.N,Net-(Q1-Pad1)*%
X138684000Y-71680000D03*
%TO.P,U1,21*%
%TO.N,Net-(Q2-Pad1)*%
X138684000Y-74220000D03*
%TO.P,U1,22*%
%TO.N,Net-(U1-Pad22)*%
X138684000Y-76760000D03*
%TO.P,U1,23*%
%TO.N,Net-(U1-Pad23)*%
X138684000Y-79300000D03*
%TO.P,U1,24*%
%TO.N,Net-(U1-Pad24)*%
X138684000Y-81840000D03*
%TO.P,U1,25*%
%TO.N,Net-(C2-Pad1)*%
X138684000Y-84380000D03*
%TO.P,U1,26*%
%TO.N,GNDPWR*%
X138684000Y-86920000D03*
%TO.P,U1,27*%
%TO.N,Net-(SW1-PadB)*%
X138684000Y-89460000D03*
%TO.P,U1,28*%
%TO.N,Net-(Q3-Pad1)*%
X138684000Y-92000000D03*
%TO.P,U1,29*%
%TO.N,Net-(R2-Pad2)*%
X138684000Y-94540000D03*
%TO.P,U1,30*%
%TO.N,Net-(R1-Pad2)*%
X138684000Y-97080000D03*
%TO.P,U1,31*%
%TO.N,Net-(U1-Pad31)*%
X138684000Y-99620000D03*
%TO.P,U1,32*%
%TO.N,Net-(U1-Pad32)*%
X138684000Y-102160000D03*
%TO.P,U1,33*%
%TO.N,GNDPWR*%
X138684000Y-104700000D03*
%TO.P,U1,34*%
%TO.N,Net-(C2-Pad1)*%
X138684000Y-107240000D03*
%TO.P,U1,35*%
%TO.N,N/C*%
X138684000Y-109780000D03*
%TO.P,U1,36*%
X138684000Y-112320000D03*
%TO.P,U1,37*%
X138684000Y-114860000D03*
%TO.P,U1,38*%
X138684000Y-117400000D03*
%TD*%
D15*
%TO.P,SW1,1*%
%TO.N,GNDPWR*%
X99680000Y-136104000D03*
D16*
%TO.P,SW1,2*%
%TO.N,Net-(R2-Pad2)*%
X99680000Y-131104000D03*
%TO.P,SW1,A*%
%TO.N,Net-(R1-Pad2)*%
X114180000Y-136104000D03*
%TO.P,SW1,COM*%
%TO.N,GNDPWR*%
X114180000Y-133604000D03*
%TO.P,SW1,B*%
%TO.N,Net-(SW1-PadB)*%
X114180000Y-131104000D03*
D17*
%TO.P,SW1,S1*%
%TO.N,GNDPWR*%
X106680000Y-139304000D03*
%TO.P,SW1,S2*%
X106680000Y-127904000D03*
%TD*%
D18*
%TO.P,S1,A1*%
%TO.N,Net-(Q1-Pad2)*%
X153102000Y-144230000D03*
%TO.P,S1,A2*%
%TO.N,Net-(J2-Pad2)*%
X145602000Y-144230000D03*
%TO.P,S1,12*%
X153102000Y-128970000D03*
%TO.P,S1,22*%
%TO.N,Net-(J3-Pad2)*%
X145602000Y-128970000D03*
%TO.P,S1,11*%
%TO.N,Net-(Q1-Pad2)*%
X153102000Y-123930000D03*
%TO.P,S1,21*%
%TO.N,Net-(J2-Pad3)*%
X145602000Y-123930000D03*
%TO.P,S1,14*%
%TO.N,Net-(J3-Pad2)*%
X153102000Y-118890000D03*
%TO.P,S1,24*%
%TO.N,Net-(J2-Pad2)*%
X145602000Y-118890000D03*
%TD*%
D19*
%TO.P,R2,1*%
%TO.N,Net-(C2-Pad1)*%
X128953260Y-140208000D03*
%TO.P,R2,2*%
%TO.N,Net-(R2-Pad2)*%
X118950740Y-140208000D03*
%TD*%
%TO.P,R1,1*%
%TO.N,Net-(C2-Pad1)*%
X128953260Y-144780000D03*
%TO.P,R1,2*%
%TO.N,Net-(R1-Pad2)*%
X118950740Y-144780000D03*
%TD*%
D20*
%TO.P,Q3,1*%
%TO.N,Net-(Q3-Pad1)*%
X159512000Y-98542000D03*
D21*
%TO.P,Q3,2*%
%TO.N,Net-(J4-Pad2)*%
X159512000Y-101092000D03*
%TO.P,Q3,3*%
%TO.N,GNDPWR*%
X159512000Y-103642000D03*
%TD*%
D20*
%TO.P,Q2,1*%
%TO.N,Net-(Q2-Pad1)*%
X151384000Y-98542000D03*
D21*
%TO.P,Q2,2*%
%TO.N,Net-(J4-Pad3)*%
X151384000Y-101092000D03*
%TO.P,Q2,3*%
%TO.N,GNDPWR*%
X151384000Y-103642000D03*
%TD*%
D20*
%TO.P,Q1,1*%
%TO.N,Net-(Q1-Pad1)*%
X162052000Y-116332000D03*
D21*
%TO.P,Q1,2*%
%TO.N,Net-(Q1-Pad2)*%
X164602000Y-116332000D03*
%TO.P,Q1,3*%
%TO.N,GNDPWR*%
X167152000Y-116332000D03*
%TD*%
D22*
%TO.P,J6,1*%
%TO.N,Net-(J6-Pad1)*%
X183388000Y-76708000D03*
D23*
%TO.P,J6,2*%
%TO.N,Net-(J6-Pad2)*%
X183388000Y-81708000D03*
%TO.P,J6,3*%
%TO.N,Net-(J6-Pad3)*%
X183388000Y-86708000D03*
%TD*%
D22*
%TO.P,J5,1*%
%TO.N,Net-(J5-Pad1)*%
X183388000Y-56896000D03*
D23*
%TO.P,J5,2*%
%TO.N,Net-(J5-Pad2)*%
X183388000Y-61896000D03*
%TO.P,J5,3*%
%TO.N,Net-(J5-Pad3)*%
X183388000Y-66896000D03*
%TD*%
D22*
%TO.P,J4,1*%
%TO.N,12VP*%
X183388000Y-101092000D03*
D23*
%TO.P,J4,2*%
%TO.N,Net-(J4-Pad2)*%
X183388000Y-106092000D03*
%TO.P,J4,3*%
%TO.N,Net-(J4-Pad3)*%
X183388000Y-111092000D03*
%TD*%
D24*
%TO.P,J3,1*%
%TO.N,Net-(J2-Pad2)*%
X168148000Y-139192000D03*
D25*
%TO.P,J3,2*%
%TO.N,Net-(J3-Pad2)*%
X163148000Y-139192000D03*
%TD*%
D22*
%TO.P,J2,1*%
%TO.N,12VP*%
X183388000Y-119460000D03*
D23*
%TO.P,J2,2*%
%TO.N,Net-(J2-Pad2)*%
X183388000Y-124460000D03*
%TO.P,J2,3*%
%TO.N,Net-(J2-Pad3)*%
X183388000Y-129460000D03*
%TD*%
D22*
%TO.P,J1,1*%
%TO.N,GNDPWR*%
X100584000Y-67564000D03*
D23*
%TO.P,J1,2*%
%TO.N,12VP*%
X100584000Y-62564000D03*
%TO.P,J1,4*%
%TO.N,Net-(J1-Pad4)*%
X100584000Y-52564000D03*
%TO.P,J1,3*%
%TO.N,GNDPWR*%
X100584000Y-57564000D03*
%TD*%
D26*
%TO.P,C2,2*%
%TO.N,GNDPWR*%
X121896000Y-55372000D03*
D27*
%TO.P,C2,1*%
%TO.N,Net-(C2-Pad1)*%
X120396000Y-55372000D03*
%TD*%
D28*
%TO.P,C1,1*%
%TO.N,12VP*%
X121920000Y-62484000D03*
%TO.P,C1,2*%
%TO.N,GNDPWR*%
X121920000Y-59984000D03*
%TD*%
D29*
%TO.N,GNDPWR*%
X104140000Y-118872000D03*
X98552000Y-83820000D03*
X100076000Y-103124000D03*
X98044000Y-143764000D03*
X124460000Y-78740000D03*
X126492000Y-115824000D03*
X167132000Y-144272000D03*
X170180000Y-125476000D03*
X172720000Y-99568000D03*
X185928000Y-93980000D03*
X185420000Y-72136000D03*
X175260000Y-58420000D03*
X160528000Y-62484000D03*
X160528000Y-78740000D03*
X128016000Y-64516000D03*
X110744000Y-64516000D03*
X108204000Y-55372000D03*
X127508000Y-128016000D03*
X189484000Y-145288000D03*
X120904000Y-91440000D03*
X144272000Y-135636000D03*
%TD*%
D30*
%TO.N,12VP*%
X183388000Y-101092000D02*
X187960000Y-105664000D01*
X187960000Y-114888000D02*
X183388000Y-119460000D01*
X187960000Y-105664000D02*
X187960000Y-114888000D01*
X132913001Y-51490999D02*
X121920000Y-62484000D01*
X158678999Y-51490999D02*
X132913001Y-51490999D01*
X174752000Y-67564000D02*
X158678999Y-51490999D01*
X174752000Y-92456000D02*
X174752000Y-67564000D01*
X183388000Y-101092000D02*
X174752000Y-92456000D01*
%TO.N,GNDPWR*%
X113284000Y-104700000D02*
X138684000Y-104700000D01*
%TO.N,Net-(C2-Pad1)*%
X120396000Y-66092000D02*
X120396000Y-55372000D01*
X138684000Y-84380000D02*
X120396000Y-66092000D01*
X137578999Y-85485001D02*
X138684000Y-84380000D01*
X139789001Y-106134999D02*
X139789001Y-104169599D01*
X139214401Y-103594999D02*
X138483597Y-103594999D01*
X139789001Y-104169599D02*
X139214401Y-103594999D01*
X138483597Y-103594999D02*
X137578999Y-102690401D01*
X138684000Y-107240000D02*
X139789001Y-106134999D01*
X138884403Y-93105001D02*
X138153599Y-93105001D01*
X137578999Y-102690401D02*
X137578999Y-99089599D01*
X139789001Y-97610401D02*
X139789001Y-94009599D01*
X137578999Y-99089599D02*
X138153599Y-98514999D01*
X138153599Y-98514999D02*
X138884403Y-98514999D01*
X138153599Y-93105001D02*
X137578999Y-92530401D01*
X137578999Y-92530401D02*
X137578999Y-85485001D01*
X138884403Y-98514999D02*
X139789001Y-97610401D01*
X139789001Y-94009599D02*
X138884403Y-93105001D01*
%TO.N,Net-(J1-Pad4)*%
X151638000Y-75438000D02*
X154432000Y-78232000D01*
X154432000Y-87376000D02*
X151638000Y-90170000D01*
X154432000Y-78232000D02*
X154432000Y-87376000D01*
%TO.N,Net-(J2-Pad2)*%
X157926000Y-128970000D02*
X168148000Y-139192000D01*
X153102000Y-128970000D02*
X157926000Y-128970000D01*
X168656000Y-139192000D02*
X183388000Y-124460000D01*
X168148000Y-139192000D02*
X168656000Y-139192000D01*
%TO.N,Net-(J3-Pad2)*%
X153102000Y-121470000D02*
X153102000Y-118890000D01*
X145602000Y-128970000D02*
X153102000Y-121470000D01*
X155824000Y-139192000D02*
X163148000Y-139192000D01*
X145602000Y-128970000D02*
X155824000Y-139192000D01*
%TO.N,Net-(J4-Pad3)*%
X161384000Y-111092000D02*
X183388000Y-111092000D01*
X151384000Y-101092000D02*
X161384000Y-111092000D01*
%TO.N,Net-(Q1-Pad1)*%
X150103999Y-104383999D02*
X162052000Y-116332000D01*
X152725001Y-72742237D02*
X150103999Y-75363239D01*
X152725001Y-69836239D02*
X152725001Y-72742237D01*
X152159761Y-69270999D02*
X152725001Y-69836239D01*
X150103999Y-75363239D02*
X150103999Y-104383999D01*
X141093001Y-69270999D02*
X152159761Y-69270999D01*
X138684000Y-71680000D02*
X141093001Y-69270999D01*
%TO.N,Net-(Q1-Pad2)*%
X157004000Y-123930000D02*
X164602000Y-116332000D01*
X153102000Y-123930000D02*
X157004000Y-123930000D01*
%TO.N,Net-(Q2-Pad1)*%
X154882009Y-95043991D02*
X151384000Y-98542000D01*
X138684000Y-74220000D02*
X136144000Y-71680000D01*
X136144000Y-71680000D02*
X136144000Y-63500000D01*
X140533001Y-59110999D02*
X153090999Y-59110999D01*
X136144000Y-63500000D02*
X140533001Y-59110999D01*
X153090999Y-59110999D02*
X154940000Y-60960000D01*
X154940000Y-60960000D02*
X154940000Y-72020018D01*
X154882009Y-72078009D02*
X154882009Y-95043991D01*
X154940000Y-72020018D02*
X154882009Y-72078009D01*
X154882009Y-71993247D02*
X154882009Y-72078009D01*
%TO.N,Net-(R2-Pad2)*%
X99680000Y-116668598D02*
X99680000Y-131104000D01*
X112753599Y-103594999D02*
X99680000Y-116668598D01*
X129629001Y-103594999D02*
X112753599Y-103594999D01*
X138684000Y-94540000D02*
X129629001Y-103594999D01*
X115996741Y-137254001D02*
X118950740Y-140208000D01*
X105830001Y-137254001D02*
X115996741Y-137254001D01*
X99680000Y-131104000D02*
X105830001Y-137254001D01*
%TO.N,Net-(U1-Pad22)*%
X138684000Y-76760000D02*
X134620000Y-72696000D01*
X134620000Y-72696000D02*
X134620000Y-62484000D01*
X141986000Y-55118000D02*
X151638000Y-55118000D01*
X134620000Y-62484000D02*
X141986000Y-55118000D01*
%TO.N,Net-(U1-Pad31)*%
X140239011Y-98064989D02*
X140239011Y-98012989D01*
X138684000Y-99620000D02*
X140239011Y-98064989D01*
X140239011Y-98012989D02*
X146304000Y-91948000D01*
X146304000Y-75692000D02*
X151638000Y-70358000D01*
X146304000Y-91948000D02*
X146304000Y-75692000D01*
%TD*%
D31*
%TO.N,GNDPWR*%
X190373000Y-146177000D02*
X130447985Y-146177000D01*
X130483287Y-146133984D01*
X130542252Y-146023670D01*
X130578562Y-145903972D01*
X130590822Y-145779490D01*
X130590822Y-144071429D01*
X143992000Y-144071429D01*
X143992000Y-144388571D01*
X144053871Y-144699620D01*
X144175237Y-144992621D01*
X144351431Y-145256315D01*
X144575685Y-145480569D01*
X144839379Y-145656763D01*
X145132380Y-145778129D01*
X145443429Y-145840000D01*
X145760571Y-145840000D01*
X146071620Y-145778129D01*
X146364621Y-145656763D01*
X146628315Y-145480569D01*
X146852569Y-145256315D01*
X147028763Y-144992621D01*
X147150129Y-144699620D01*
X147212000Y-144388571D01*
X147212000Y-144071429D01*
X151492000Y-144071429D01*
X151492000Y-144388571D01*
X151553871Y-144699620D01*
X151675237Y-144992621D01*
X151851431Y-145256315D01*
X152075685Y-145480569D01*
X152339379Y-145656763D01*
X152632380Y-145778129D01*
X152943429Y-145840000D01*
X153260571Y-145840000D01*
X153571620Y-145778129D01*
X153864621Y-145656763D01*
X154128315Y-145480569D01*
X154352569Y-145256315D01*
X154528763Y-144992621D01*
X154650129Y-144699620D01*
X154712000Y-144388571D01*
X154712000Y-144071429D01*
X154650129Y-143760380D01*
X154528763Y-143467379D01*
X154352569Y-143203685D01*
X154128315Y-142979431D01*
X153864621Y-142803237D01*
X153571620Y-142681871D01*
X153260571Y-142620000D01*
X152943429Y-142620000D01*
X152632380Y-142681871D01*
X152339379Y-142803237D01*
X152075685Y-142979431D01*
X151851431Y-143203685D01*
X151675237Y-143467379D01*
X151553871Y-143760380D01*
X151492000Y-144071429D01*
X147212000Y-144071429D01*
X147150129Y-143760380D01*
X147028763Y-143467379D01*
X146852569Y-143203685D01*
X146628315Y-142979431D01*
X146364621Y-142803237D01*
X146071620Y-142681871D01*
X145760571Y-142620000D01*
X145443429Y-142620000D01*
X145132380Y-142681871D01*
X144839379Y-142803237D01*
X144575685Y-142979431D01*
X144351431Y-143203685D01*
X144175237Y-143467379D01*
X144053871Y-143760380D01*
X143992000Y-144071429D01*
X130590822Y-144071429D01*
X130590822Y-143780510D01*
X130578562Y-143656028D01*
X130542252Y-143536330D01*
X130483287Y-143426016D01*
X130403935Y-143329325D01*
X130307244Y-143249973D01*
X130196930Y-143191008D01*
X130077232Y-143154698D01*
X129952750Y-143142438D01*
X127953770Y-143142438D01*
X127829288Y-143154698D01*
X127709590Y-143191008D01*
X127599276Y-143249973D01*
X127502585Y-143329325D01*
X127423233Y-143426016D01*
X127364268Y-143536330D01*
X127327958Y-143656028D01*
X127315698Y-143780510D01*
X127315698Y-145779490D01*
X127327958Y-145903972D01*
X127364268Y-146023670D01*
X127423233Y-146133984D01*
X127458535Y-146177000D01*
X120445465Y-146177000D01*
X120480767Y-146133984D01*
X120539732Y-146023670D01*
X120576042Y-145903972D01*
X120588302Y-145779490D01*
X120588302Y-143780510D01*
X120576042Y-143656028D01*
X120539732Y-143536330D01*
X120480767Y-143426016D01*
X120401415Y-143329325D01*
X120304724Y-143249973D01*
X120194410Y-143191008D01*
X120074712Y-143154698D01*
X119950230Y-143142438D01*
X117951250Y-143142438D01*
X117826768Y-143154698D01*
X117707070Y-143191008D01*
X117596756Y-143249973D01*
X117500065Y-143329325D01*
X117420713Y-143426016D01*
X117361748Y-143536330D01*
X117325438Y-143656028D01*
X117313178Y-143780510D01*
X117313178Y-145779490D01*
X117325438Y-145903972D01*
X117361748Y-146023670D01*
X117420713Y-146133984D01*
X117456015Y-146177000D01*
X94105677Y-146177000D01*
X94067725Y-142552495D01*
X184451000Y-142552495D01*
X184451000Y-142943505D01*
X184527282Y-143327003D01*
X184676915Y-143688250D01*
X184894149Y-144013364D01*
X185170636Y-144289851D01*
X185495750Y-144507085D01*
X185856997Y-144656718D01*
X186240495Y-144733000D01*
X186631505Y-144733000D01*
X187015003Y-144656718D01*
X187376250Y-144507085D01*
X187701364Y-144289851D01*
X187977851Y-144013364D01*
X188195085Y-143688250D01*
X188344718Y-143327003D01*
X188421000Y-142943505D01*
X188421000Y-142552495D01*
X188344718Y-142168997D01*
X188195085Y-141807750D01*
X187977851Y-141482636D01*
X187701364Y-141206149D01*
X187376250Y-140988915D01*
X187015003Y-140839282D01*
X186631505Y-140763000D01*
X186240495Y-140763000D01*
X185856997Y-140839282D01*
X185495750Y-140988915D01*
X185170636Y-141206149D01*
X184894149Y-141482636D01*
X184676915Y-141807750D01*
X184527282Y-142168997D01*
X184451000Y-142552495D01*
X94067725Y-142552495D01*
X94038514Y-139762833D01*
X103094887Y-139762833D01*
X103158917Y-140003697D01*
X103334256Y-140384546D01*
X103580525Y-140723870D01*
X103888261Y-141008630D01*
X104245638Y-141227882D01*
X104638922Y-141373200D01*
X105053000Y-141439000D01*
X106553000Y-141439000D01*
X106553000Y-139431000D01*
X106807000Y-139431000D01*
X106807000Y-141439000D01*
X108307000Y-141439000D01*
X108721078Y-141373200D01*
X109114362Y-141227882D01*
X109471739Y-141008630D01*
X109779475Y-140723870D01*
X110025744Y-140384546D01*
X110201083Y-140003697D01*
X110265113Y-139762833D01*
X110152165Y-139431000D01*
X106807000Y-139431000D01*
X106553000Y-139431000D01*
X103207835Y-139431000D01*
X103094887Y-139762833D01*
X94038514Y-139762833D01*
X94008840Y-136929000D01*
X98216928Y-136929000D01*
X98229188Y-137053482D01*
X98265498Y-137173180D01*
X98324463Y-137283494D01*
X98403815Y-137380185D01*
X98500506Y-137459537D01*
X98610820Y-137518502D01*
X98730518Y-137554812D01*
X98855000Y-137567072D01*
X99394250Y-137564000D01*
X99553000Y-137405250D01*
X99553000Y-136231000D01*
X99807000Y-136231000D01*
X99807000Y-137405250D01*
X99965750Y-137564000D01*
X100505000Y-137567072D01*
X100629482Y-137554812D01*
X100749180Y-137518502D01*
X100859494Y-137459537D01*
X100956185Y-137380185D01*
X101035537Y-137283494D01*
X101094502Y-137173180D01*
X101130812Y-137053482D01*
X101143072Y-136929000D01*
X101140000Y-136389750D01*
X100981250Y-136231000D01*
X99807000Y-136231000D01*
X99553000Y-136231000D01*
X98378750Y-136231000D01*
X98220000Y-136389750D01*
X98216928Y-136929000D01*
X94008840Y-136929000D01*
X93991563Y-135279000D01*
X98216928Y-135279000D01*
X98220000Y-135818250D01*
X98378750Y-135977000D01*
X99553000Y-135977000D01*
X99553000Y-134802750D01*
X99807000Y-134802750D01*
X99807000Y-135977000D01*
X100981250Y-135977000D01*
X101140000Y-135818250D01*
X101143072Y-135279000D01*
X101130812Y-135154518D01*
X101094502Y-135034820D01*
X101035537Y-134924506D01*
X100956185Y-134827815D01*
X100859494Y-134748463D01*
X100749180Y-134689498D01*
X100629482Y-134653188D01*
X100505000Y-134640928D01*
X99965750Y-134644000D01*
X99807000Y-134802750D01*
X99553000Y-134802750D01*
X99394250Y-134644000D01*
X98855000Y-134640928D01*
X98730518Y-134653188D01*
X98610820Y-134689498D01*
X98500506Y-134748463D01*
X98403815Y-134827815D01*
X98324463Y-134924506D01*
X98265498Y-135034820D01*
X98229188Y-135154518D01*
X98216928Y-135279000D01*
X93991563Y-135279000D01*
X93946340Y-130960203D01*
X98220000Y-130960203D01*
X98220000Y-131247797D01*
X98276107Y-131529866D01*
X98386165Y-131795569D01*
X98545944Y-132034696D01*
X98749304Y-132238056D01*
X98988431Y-132397835D01*
X99254134Y-132507893D01*
X99536203Y-132564000D01*
X99823797Y-132564000D01*
X100025148Y-132523949D01*
X104722687Y-137221489D01*
X104638922Y-137234800D01*
X104245638Y-137380118D01*
X103888261Y-137599370D01*
X103580525Y-137884130D01*
X103334256Y-138223454D01*
X103158917Y-138604303D01*
X103094887Y-138845167D01*
X103207835Y-139177000D01*
X106553000Y-139177000D01*
X106553000Y-139157000D01*
X106807000Y-139157000D01*
X106807000Y-139177000D01*
X110152165Y-139177000D01*
X110265113Y-138845167D01*
X110201083Y-138604303D01*
X110025744Y-138223454D01*
X109873731Y-138014001D01*
X115681940Y-138014001D01*
X117313178Y-139645240D01*
X117313178Y-141207490D01*
X117325438Y-141331972D01*
X117361748Y-141451670D01*
X117420713Y-141561984D01*
X117500065Y-141658675D01*
X117596756Y-141738027D01*
X117707070Y-141796992D01*
X117826768Y-141833302D01*
X117951250Y-141845562D01*
X119950230Y-141845562D01*
X120074712Y-141833302D01*
X120194410Y-141796992D01*
X120304724Y-141738027D01*
X120401415Y-141658675D01*
X120480767Y-141561984D01*
X120539732Y-141451670D01*
X120576042Y-141331972D01*
X120588302Y-141207490D01*
X120588302Y-139208510D01*
X127315698Y-139208510D01*
X127315698Y-141207490D01*
X127327958Y-141331972D01*
X127364268Y-141451670D01*
X127423233Y-141561984D01*
X127502585Y-141658675D01*
X127599276Y-141738027D01*
X127709590Y-141796992D01*
X127829288Y-141833302D01*
X127953770Y-141845562D01*
X129952750Y-141845562D01*
X130077232Y-141833302D01*
X130196930Y-141796992D01*
X130307244Y-141738027D01*
X130403935Y-141658675D01*
X130483287Y-141561984D01*
X130542252Y-141451670D01*
X130578562Y-141331972D01*
X130590822Y-141207490D01*
X130590822Y-139208510D01*
X130578562Y-139084028D01*
X130542252Y-138964330D01*
X130483287Y-138854016D01*
X130403935Y-138757325D01*
X130307244Y-138677973D01*
X130196930Y-138619008D01*
X130077232Y-138582698D01*
X129952750Y-138570438D01*
X127953770Y-138570438D01*
X127829288Y-138582698D01*
X127709590Y-138619008D01*
X127599276Y-138677973D01*
X127502585Y-138757325D01*
X127423233Y-138854016D01*
X127364268Y-138964330D01*
X127327958Y-139084028D01*
X127315698Y-139208510D01*
X120588302Y-139208510D01*
X120576042Y-139084028D01*
X120539732Y-138964330D01*
X120480767Y-138854016D01*
X120401415Y-138757325D01*
X120304724Y-138677973D01*
X120194410Y-138619008D01*
X120074712Y-138582698D01*
X119950230Y-138570438D01*
X118387980Y-138570438D01*
X116560545Y-136743004D01*
X116536742Y-136714000D01*
X116421017Y-136619027D01*
X116288988Y-136548455D01*
X116145727Y-136504998D01*
X116034074Y-136494001D01*
X116034063Y-136494001D01*
X115996741Y-136490325D01*
X115959419Y-136494001D01*
X115591027Y-136494001D01*
X115640000Y-136247797D01*
X115640000Y-135960203D01*
X115583893Y-135678134D01*
X115473835Y-135412431D01*
X115314056Y-135173304D01*
X115110696Y-134969944D01*
X114938258Y-134854725D01*
X115010946Y-134614551D01*
X114180000Y-133783605D01*
X113349054Y-134614551D01*
X113421742Y-134854725D01*
X113249304Y-134969944D01*
X113045944Y-135173304D01*
X112886165Y-135412431D01*
X112776107Y-135678134D01*
X112720000Y-135960203D01*
X112720000Y-136247797D01*
X112768973Y-136494001D01*
X106144803Y-136494001D01*
X103324323Y-133673521D01*
X112714583Y-133673521D01*
X112756303Y-133958074D01*
X112852735Y-134229020D01*
X112922927Y-134360337D01*
X113169449Y-134434946D01*
X114000395Y-133604000D01*
X114359605Y-133604000D01*
X115190551Y-134434946D01*
X115437073Y-134360337D01*
X115560473Y-134100561D01*
X115630823Y-133821703D01*
X115645417Y-133534479D01*
X115603697Y-133249926D01*
X115507265Y-132978980D01*
X115437073Y-132847663D01*
X115190551Y-132773054D01*
X114359605Y-133604000D01*
X114000395Y-133604000D01*
X113169449Y-132773054D01*
X112922927Y-132847663D01*
X112799527Y-133107439D01*
X112729177Y-133386297D01*
X112714583Y-133673521D01*
X103324323Y-133673521D01*
X101099949Y-131449148D01*
X101140000Y-131247797D01*
X101140000Y-130960203D01*
X112720000Y-130960203D01*
X112720000Y-131247797D01*
X112776107Y-131529866D01*
X112886165Y-131795569D01*
X113045944Y-132034696D01*
X113249304Y-132238056D01*
X113421742Y-132353275D01*
X113349054Y-132593449D01*
X114180000Y-133424395D01*
X115010946Y-132593449D01*
X114938258Y-132353275D01*
X115110696Y-132238056D01*
X115314056Y-132034696D01*
X115473835Y-131795569D01*
X115583893Y-131529866D01*
X115640000Y-131247797D01*
X115640000Y-130960203D01*
X115583893Y-130678134D01*
X115473835Y-130412431D01*
X115314056Y-130173304D01*
X115110696Y-129969944D01*
X114871569Y-129810165D01*
X114605866Y-129700107D01*
X114323797Y-129644000D01*
X114036203Y-129644000D01*
X113754134Y-129700107D01*
X113488431Y-129810165D01*
X113249304Y-129969944D01*
X113045944Y-130173304D01*
X112886165Y-130412431D01*
X112776107Y-130678134D01*
X112720000Y-130960203D01*
X101140000Y-130960203D01*
X101083893Y-130678134D01*
X100973835Y-130412431D01*
X100814056Y-130173304D01*
X100610696Y-129969944D01*
X100440000Y-129855889D01*
X100440000Y-128362833D01*
X103094887Y-128362833D01*
X103158917Y-128603697D01*
X103334256Y-128984546D01*
X103580525Y-129323870D01*
X103888261Y-129608630D01*
X104245638Y-129827882D01*
X104638922Y-129973200D01*
X105053000Y-130039000D01*
X106553000Y-130039000D01*
X106553000Y-128031000D01*
X106807000Y-128031000D01*
X106807000Y-130039000D01*
X108307000Y-130039000D01*
X108721078Y-129973200D01*
X109114362Y-129827882D01*
X109471739Y-129608630D01*
X109779475Y-129323870D01*
X110025744Y-128984546D01*
X110201083Y-128603697D01*
X110265113Y-128362833D01*
X110152165Y-128031000D01*
X106807000Y-128031000D01*
X106553000Y-128031000D01*
X103207835Y-128031000D01*
X103094887Y-128362833D01*
X100440000Y-128362833D01*
X100440000Y-127445167D01*
X103094887Y-127445167D01*
X103207835Y-127777000D01*
X106553000Y-127777000D01*
X106553000Y-125769000D01*
X106807000Y-125769000D01*
X106807000Y-127777000D01*
X110152165Y-127777000D01*
X110265113Y-127445167D01*
X110201083Y-127204303D01*
X110025744Y-126823454D01*
X109779475Y-126484130D01*
X109471739Y-126199370D01*
X109114362Y-125980118D01*
X108721078Y-125834800D01*
X108307000Y-125769000D01*
X106807000Y-125769000D01*
X106553000Y-125769000D01*
X105053000Y-125769000D01*
X104638922Y-125834800D01*
X104245638Y-125980118D01*
X103888261Y-126199370D01*
X103580525Y-126484130D01*
X103334256Y-126823454D01*
X103158917Y-127204303D01*
X103094887Y-127445167D01*
X100440000Y-127445167D01*
X100440000Y-123771429D01*
X143992000Y-123771429D01*
X143992000Y-124088571D01*
X144053871Y-124399620D01*
X144175237Y-124692621D01*
X144351431Y-124956315D01*
X144575685Y-125180569D01*
X144839379Y-125356763D01*
X145132380Y-125478129D01*
X145443429Y-125540000D01*
X145760571Y-125540000D01*
X146071620Y-125478129D01*
X146364621Y-125356763D01*
X146628315Y-125180569D01*
X146852569Y-124956315D01*
X147028763Y-124692621D01*
X147150129Y-124399620D01*
X147212000Y-124088571D01*
X147212000Y-123771429D01*
X147150129Y-123460380D01*
X147028763Y-123167379D01*
X146852569Y-122903685D01*
X146628315Y-122679431D01*
X146364621Y-122503237D01*
X146071620Y-122381871D01*
X145760571Y-122320000D01*
X145443429Y-122320000D01*
X145132380Y-122381871D01*
X144839379Y-122503237D01*
X144575685Y-122679431D01*
X144351431Y-122903685D01*
X144175237Y-123167379D01*
X144053871Y-123460380D01*
X143992000Y-123771429D01*
X100440000Y-123771429D01*
X100440000Y-116983399D01*
X110322764Y-107100635D01*
X111869000Y-107100635D01*
X111869000Y-107379365D01*
X111923377Y-107652740D01*
X112030043Y-107910254D01*
X112184897Y-108142010D01*
X112381990Y-108339103D01*
X112613746Y-108493957D01*
X112652477Y-108510000D01*
X112613746Y-108526043D01*
X112381990Y-108680897D01*
X112184897Y-108877990D01*
X112030043Y-109109746D01*
X111923377Y-109367260D01*
X111869000Y-109640635D01*
X111869000Y-109919365D01*
X111923377Y-110192740D01*
X112030043Y-110450254D01*
X112184897Y-110682010D01*
X112381990Y-110879103D01*
X112613746Y-111033957D01*
X112652477Y-111050000D01*
X112613746Y-111066043D01*
X112381990Y-111220897D01*
X112184897Y-111417990D01*
X112030043Y-111649746D01*
X111923377Y-111907260D01*
X111869000Y-112180635D01*
X111869000Y-112459365D01*
X111923377Y-112732740D01*
X112030043Y-112990254D01*
X112184897Y-113222010D01*
X112381990Y-113419103D01*
X112613746Y-113573957D01*
X112652477Y-113590000D01*
X112613746Y-113606043D01*
X112381990Y-113760897D01*
X112184897Y-113957990D01*
X112030043Y-114189746D01*
X111923377Y-114447260D01*
X111869000Y-114720635D01*
X111869000Y-114999365D01*
X111923377Y-115272740D01*
X112030043Y-115530254D01*
X112184897Y-115762010D01*
X112381990Y-115959103D01*
X112613746Y-116113957D01*
X112652477Y-116130000D01*
X112613746Y-116146043D01*
X112381990Y-116300897D01*
X112184897Y-116497990D01*
X112030043Y-116729746D01*
X111923377Y-116987260D01*
X111869000Y-117260635D01*
X111869000Y-117539365D01*
X111923377Y-117812740D01*
X112030043Y-118070254D01*
X112184897Y-118302010D01*
X112381990Y-118499103D01*
X112613746Y-118653957D01*
X112871260Y-118760623D01*
X113144635Y-118815000D01*
X113423365Y-118815000D01*
X113696740Y-118760623D01*
X113954254Y-118653957D01*
X114186010Y-118499103D01*
X114383103Y-118302010D01*
X114537957Y-118070254D01*
X114644623Y-117812740D01*
X114699000Y-117539365D01*
X114699000Y-117260635D01*
X114644623Y-116987260D01*
X114537957Y-116729746D01*
X114383103Y-116497990D01*
X114186010Y-116300897D01*
X113954254Y-116146043D01*
X113915523Y-116130000D01*
X113954254Y-116113957D01*
X114186010Y-115959103D01*
X114383103Y-115762010D01*
X114537957Y-115530254D01*
X114644623Y-115272740D01*
X114699000Y-114999365D01*
X114699000Y-114720635D01*
X114644623Y-114447260D01*
X114537957Y-114189746D01*
X114383103Y-113957990D01*
X114186010Y-113760897D01*
X113954254Y-113606043D01*
X113915523Y-113590000D01*
X113954254Y-113573957D01*
X114186010Y-113419103D01*
X114383103Y-113222010D01*
X114537957Y-112990254D01*
X114644623Y-112732740D01*
X114699000Y-112459365D01*
X114699000Y-112180635D01*
X114644623Y-111907260D01*
X114537957Y-111649746D01*
X114383103Y-111417990D01*
X114186010Y-111220897D01*
X113954254Y-111066043D01*
X113915523Y-111050000D01*
X113954254Y-111033957D01*
X114186010Y-110879103D01*
X114383103Y-110682010D01*
X114537957Y-110450254D01*
X114644623Y-110192740D01*
X114699000Y-109919365D01*
X114699000Y-109640635D01*
X114644623Y-109367260D01*
X114537957Y-109109746D01*
X114383103Y-108877990D01*
X114186010Y-108680897D01*
X113954254Y-108526043D01*
X113915523Y-108510000D01*
X113954254Y-108493957D01*
X114186010Y-108339103D01*
X114383103Y-108142010D01*
X114537957Y-107910254D01*
X114644623Y-107652740D01*
X114699000Y-107379365D01*
X114699000Y-107100635D01*
X114644623Y-106827260D01*
X114537957Y-106569746D01*
X114383103Y-106337990D01*
X114186010Y-106140897D01*
X113954254Y-105986043D01*
X113918475Y-105971223D01*
X114013655Y-105920349D01*
X114082816Y-105678421D01*
X113284000Y-104879605D01*
X112485184Y-105678421D01*
X112554345Y-105920349D01*
X112656279Y-105968425D01*
X112613746Y-105986043D01*
X112381990Y-106140897D01*
X112184897Y-106337990D01*
X112030043Y-106569746D01*
X111923377Y-106827260D01*
X111869000Y-107100635D01*
X110322764Y-107100635D01*
X112039301Y-105384099D01*
X112063651Y-105429655D01*
X112305579Y-105498816D01*
X113104395Y-104700000D01*
X113090253Y-104685858D01*
X113269858Y-104506253D01*
X113284000Y-104520395D01*
X113298143Y-104506253D01*
X113477748Y-104685858D01*
X113463605Y-104700000D01*
X114262421Y-105498816D01*
X114504349Y-105429655D01*
X114623248Y-105177557D01*
X114690681Y-104907106D01*
X114704057Y-104628697D01*
X114663155Y-104354999D01*
X129591679Y-104354999D01*
X129629001Y-104358675D01*
X129666323Y-104354999D01*
X129666334Y-104354999D01*
X129777987Y-104344002D01*
X129921248Y-104300545D01*
X130053277Y-104229973D01*
X130169002Y-104135000D01*
X130192805Y-104105996D01*
X137269000Y-97029803D01*
X137269000Y-97219365D01*
X137323377Y-97492740D01*
X137430043Y-97750254D01*
X137584897Y-97982010D01*
X137597500Y-97994613D01*
X137589799Y-98003997D01*
X137067997Y-98525800D01*
X137038999Y-98549598D01*
X137015201Y-98578596D01*
X137015200Y-98578597D01*
X136944025Y-98665323D01*
X136873453Y-98797353D01*
X136843179Y-98897157D01*
X136829997Y-98940613D01*
X136827469Y-98966276D01*
X136815323Y-99089599D01*
X136819000Y-99126931D01*
X136818999Y-102653078D01*
X136815323Y-102690401D01*
X136818999Y-102727723D01*
X136818999Y-102727733D01*
X136829996Y-102839386D01*
X136866591Y-102960025D01*
X136873453Y-102982647D01*
X136944025Y-103114677D01*
X136983870Y-103163227D01*
X137038998Y-103230402D01*
X137068001Y-103254204D01*
X137593935Y-103780139D01*
X137589233Y-103784841D01*
X137705577Y-103901185D01*
X137463651Y-103970345D01*
X137344752Y-104222443D01*
X137277319Y-104492894D01*
X137263943Y-104771303D01*
X137305140Y-105046972D01*
X137399325Y-105309308D01*
X137463651Y-105429655D01*
X137705579Y-105498816D01*
X138504395Y-104700000D01*
X138490253Y-104685858D01*
X138669858Y-104506253D01*
X138684000Y-104520395D01*
X138698143Y-104506253D01*
X138877748Y-104685858D01*
X138863605Y-104700000D01*
X138877748Y-104714143D01*
X138698143Y-104893748D01*
X138684000Y-104879605D01*
X137885184Y-105678421D01*
X137954345Y-105920349D01*
X138056279Y-105968425D01*
X138013746Y-105986043D01*
X137781990Y-106140897D01*
X137584897Y-106337990D01*
X137430043Y-106569746D01*
X137323377Y-106827260D01*
X137269000Y-107100635D01*
X137269000Y-107379365D01*
X137323377Y-107652740D01*
X137430043Y-107910254D01*
X137584897Y-108142010D01*
X137781990Y-108339103D01*
X138013746Y-108493957D01*
X138052477Y-108510000D01*
X138013746Y-108526043D01*
X137781990Y-108680897D01*
X137584897Y-108877990D01*
X137430043Y-109109746D01*
X137323377Y-109367260D01*
X137269000Y-109640635D01*
X137269000Y-109919365D01*
X137323377Y-110192740D01*
X137430043Y-110450254D01*
X137584897Y-110682010D01*
X137781990Y-110879103D01*
X138013746Y-111033957D01*
X138052477Y-111050000D01*
X138013746Y-111066043D01*
X137781990Y-111220897D01*
X137584897Y-111417990D01*
X137430043Y-111649746D01*
X137323377Y-111907260D01*
X137269000Y-112180635D01*
X137269000Y-112459365D01*
X137323377Y-112732740D01*
X137430043Y-112990254D01*
X137584897Y-113222010D01*
X137781990Y-113419103D01*
X138013746Y-113573957D01*
X138052477Y-113590000D01*
X138013746Y-113606043D01*
X137781990Y-113760897D01*
X137584897Y-113957990D01*
X137430043Y-114189746D01*
X137323377Y-114447260D01*
X137269000Y-114720635D01*
X137269000Y-114999365D01*
X137323377Y-115272740D01*
X137430043Y-115530254D01*
X137584897Y-115762010D01*
X137781990Y-115959103D01*
X138013746Y-116113957D01*
X138052477Y-116130000D01*
X138013746Y-116146043D01*
X137781990Y-116300897D01*
X137584897Y-116497990D01*
X137430043Y-116729746D01*
X137323377Y-116987260D01*
X137269000Y-117260635D01*
X137269000Y-117539365D01*
X137323377Y-117812740D01*
X137430043Y-118070254D01*
X137584897Y-118302010D01*
X137781990Y-118499103D01*
X138013746Y-118653957D01*
X138271260Y-118760623D01*
X138544635Y-118815000D01*
X138823365Y-118815000D01*
X139096740Y-118760623D01*
X139167220Y-118731429D01*
X143992000Y-118731429D01*
X143992000Y-119048571D01*
X144053871Y-119359620D01*
X144175237Y-119652621D01*
X144351431Y-119916315D01*
X144575685Y-120140569D01*
X144839379Y-120316763D01*
X145132380Y-120438129D01*
X145443429Y-120500000D01*
X145760571Y-120500000D01*
X146071620Y-120438129D01*
X146364621Y-120316763D01*
X146628315Y-120140569D01*
X146852569Y-119916315D01*
X147028763Y-119652621D01*
X147150129Y-119359620D01*
X147212000Y-119048571D01*
X147212000Y-118731429D01*
X147150129Y-118420380D01*
X147028763Y-118127379D01*
X146852569Y-117863685D01*
X146628315Y-117639431D01*
X146364621Y-117463237D01*
X146071620Y-117341871D01*
X145760571Y-117280000D01*
X145443429Y-117280000D01*
X145132380Y-117341871D01*
X144839379Y-117463237D01*
X144575685Y-117639431D01*
X144351431Y-117863685D01*
X144175237Y-118127379D01*
X144053871Y-118420380D01*
X143992000Y-118731429D01*
X139167220Y-118731429D01*
X139354254Y-118653957D01*
X139586010Y-118499103D01*
X139783103Y-118302010D01*
X139937957Y-118070254D01*
X140044623Y-117812740D01*
X140099000Y-117539365D01*
X140099000Y-117260635D01*
X140044623Y-116987260D01*
X139937957Y-116729746D01*
X139783103Y-116497990D01*
X139586010Y-116300897D01*
X139354254Y-116146043D01*
X139315523Y-116130000D01*
X139354254Y-116113957D01*
X139586010Y-115959103D01*
X139783103Y-115762010D01*
X139937957Y-115530254D01*
X140044623Y-115272740D01*
X140099000Y-114999365D01*
X140099000Y-114720635D01*
X140044623Y-114447260D01*
X139937957Y-114189746D01*
X139783103Y-113957990D01*
X139586010Y-113760897D01*
X139354254Y-113606043D01*
X139315523Y-113590000D01*
X139354254Y-113573957D01*
X139586010Y-113419103D01*
X139783103Y-113222010D01*
X139937957Y-112990254D01*
X140044623Y-112732740D01*
X140099000Y-112459365D01*
X140099000Y-112180635D01*
X140044623Y-111907260D01*
X139937957Y-111649746D01*
X139783103Y-111417990D01*
X139586010Y-111220897D01*
X139354254Y-111066043D01*
X139315523Y-111050000D01*
X139354254Y-111033957D01*
X139586010Y-110879103D01*
X139783103Y-110682010D01*
X139937957Y-110450254D01*
X140044623Y-110192740D01*
X140099000Y-109919365D01*
X140099000Y-109640635D01*
X140044623Y-109367260D01*
X139937957Y-109109746D01*
X139783103Y-108877990D01*
X139586010Y-108680897D01*
X139354254Y-108526043D01*
X139315523Y-108510000D01*
X139354254Y-108493957D01*
X139586010Y-108339103D01*
X139783103Y-108142010D01*
X139937957Y-107910254D01*
X140044623Y-107652740D01*
X140099000Y-107379365D01*
X140099000Y-107100635D01*
X140065680Y-106933122D01*
X140300010Y-106698793D01*
X140329002Y-106675000D01*
X140352796Y-106646007D01*
X140352800Y-106646003D01*
X140423974Y-106559276D01*
X140423975Y-106559275D01*
X140494547Y-106427246D01*
X140538004Y-106283985D01*
X140549001Y-106172332D01*
X140549001Y-106172323D01*
X140552677Y-106135000D01*
X140549001Y-106097677D01*
X140549001Y-104206921D01*
X140552677Y-104169598D01*
X140549001Y-104132275D01*
X140549001Y-104132266D01*
X140538004Y-104020613D01*
X140494547Y-103877352D01*
X140425954Y-103749025D01*
X140423975Y-103745322D01*
X140352800Y-103658596D01*
X140329002Y-103629598D01*
X140300003Y-103605799D01*
X139778204Y-103084001D01*
X139770500Y-103074613D01*
X139783103Y-103062010D01*
X139937957Y-102830254D01*
X140044623Y-102572740D01*
X140099000Y-102299365D01*
X140099000Y-102020635D01*
X140044623Y-101747260D01*
X139937957Y-101489746D01*
X139783103Y-101257990D01*
X139586010Y-101060897D01*
X139354254Y-100906043D01*
X139315523Y-100890000D01*
X139354254Y-100873957D01*
X139586010Y-100719103D01*
X139783103Y-100522010D01*
X139937957Y-100290254D01*
X140044623Y-100032740D01*
X140099000Y-99759365D01*
X140099000Y-99480635D01*
X140065680Y-99313122D01*
X140750015Y-98628787D01*
X140779012Y-98604990D01*
X140873985Y-98489265D01*
X140915840Y-98410961D01*
X146815004Y-92511798D01*
X146844001Y-92488001D01*
X146938974Y-92372276D01*
X147009546Y-92240247D01*
X147053003Y-92096986D01*
X147064000Y-91985333D01*
X147064000Y-91985325D01*
X147067676Y-91948000D01*
X147064000Y-91910675D01*
X147064000Y-76006801D01*
X151346430Y-71724372D01*
X151500408Y-71755000D01*
X151775592Y-71755000D01*
X151965002Y-71717324D01*
X151965002Y-72427434D01*
X149593002Y-74799435D01*
X149563998Y-74823238D01*
X149522174Y-74874201D01*
X149469025Y-74938963D01*
X149429064Y-75013724D01*
X149398453Y-75070993D01*
X149354996Y-75214254D01*
X149343999Y-75325907D01*
X149343999Y-75325917D01*
X149340323Y-75363239D01*
X149343999Y-75400561D01*
X149344000Y-104346666D01*
X149340323Y-104383999D01*
X149354997Y-104532984D01*
X149398453Y-104676245D01*
X149469025Y-104808275D01*
X149527565Y-104879605D01*
X149563999Y-104924000D01*
X149592997Y-104947798D01*
X160458928Y-115813730D01*
X160458928Y-117287000D01*
X160471188Y-117411482D01*
X160507498Y-117531180D01*
X160566463Y-117641494D01*
X160645815Y-117738185D01*
X160742506Y-117817537D01*
X160852820Y-117876502D01*
X160972518Y-117912812D01*
X161097000Y-117925072D01*
X161934126Y-117925072D01*
X156689199Y-123170000D01*
X154529849Y-123170000D01*
X154528763Y-123167379D01*
X154352569Y-122903685D01*
X154128315Y-122679431D01*
X153864621Y-122503237D01*
X153571620Y-122381871D01*
X153315814Y-122330988D01*
X153613004Y-122033798D01*
X153642001Y-122010001D01*
X153736974Y-121894276D01*
X153807546Y-121762247D01*
X153851003Y-121618986D01*
X153862000Y-121507333D01*
X153862000Y-121507325D01*
X153865676Y-121470000D01*
X153862000Y-121432675D01*
X153862000Y-120317849D01*
X153864621Y-120316763D01*
X154128315Y-120140569D01*
X154352569Y-119916315D01*
X154528763Y-119652621D01*
X154650129Y-119359620D01*
X154712000Y-119048571D01*
X154712000Y-118731429D01*
X154650129Y-118420380D01*
X154528763Y-118127379D01*
X154352569Y-117863685D01*
X154128315Y-117639431D01*
X153864621Y-117463237D01*
X153571620Y-117341871D01*
X153260571Y-117280000D01*
X152943429Y-117280000D01*
X152632380Y-117341871D01*
X152339379Y-117463237D01*
X152075685Y-117639431D01*
X151851431Y-117863685D01*
X151675237Y-118127379D01*
X151553871Y-118420380D01*
X151492000Y-118731429D01*
X151492000Y-119048571D01*
X151553871Y-119359620D01*
X151675237Y-119652621D01*
X151851431Y-119916315D01*
X152075685Y-120140569D01*
X152339379Y-120316763D01*
X152342000Y-120317849D01*
X152342000Y-121155198D01*
X146074242Y-127422957D01*
X146071620Y-127421871D01*
X145760571Y-127360000D01*
X145443429Y-127360000D01*
X145132380Y-127421871D01*
X144839379Y-127543237D01*
X144575685Y-127719431D01*
X144351431Y-127943685D01*
X144175237Y-128207379D01*
X144053871Y-128500380D01*
X143992000Y-128811429D01*
X143992000Y-129128571D01*
X144053871Y-129439620D01*
X144175237Y-129732621D01*
X144351431Y-129996315D01*
X144575685Y-130220569D01*
X144839379Y-130396763D01*
X145132380Y-130518129D01*
X145443429Y-130580000D01*
X145760571Y-130580000D01*
X146071620Y-130518129D01*
X146074242Y-130517043D01*
X155260201Y-139703003D01*
X155283999Y-139732001D01*
X155312997Y-139755799D01*
X155399723Y-139826974D01*
X155531753Y-139897546D01*
X155675014Y-139941003D01*
X155786667Y-139952000D01*
X155786676Y-139952000D01*
X155823999Y-139955676D01*
X155861322Y-139952000D01*
X161523000Y-139952000D01*
X161523000Y-140261823D01*
X161546513Y-140500555D01*
X161639432Y-140806868D01*
X161790325Y-141089169D01*
X161993392Y-141336608D01*
X162240830Y-141539675D01*
X162523131Y-141690568D01*
X162829444Y-141783487D01*
X163148000Y-141814862D01*
X163466555Y-141783487D01*
X163772868Y-141690568D01*
X164055169Y-141539675D01*
X164302608Y-141336608D01*
X164505675Y-141089170D01*
X164656568Y-140806869D01*
X164749487Y-140500556D01*
X164773000Y-140261824D01*
X164773000Y-138122176D01*
X164749487Y-137883444D01*
X164656568Y-137577131D01*
X164505675Y-137294830D01*
X164302608Y-137047392D01*
X164055170Y-136844325D01*
X163772869Y-136693432D01*
X163466556Y-136600513D01*
X163148000Y-136569138D01*
X162829445Y-136600513D01*
X162523132Y-136693432D01*
X162240831Y-136844325D01*
X161993393Y-137047392D01*
X161790326Y-137294830D01*
X161639433Y-137577131D01*
X161546514Y-137883444D01*
X161523001Y-138122176D01*
X161523001Y-138432000D01*
X156138802Y-138432000D01*
X147149043Y-129442242D01*
X147150129Y-129439620D01*
X147212000Y-129128571D01*
X147212000Y-128811429D01*
X151492000Y-128811429D01*
X151492000Y-129128571D01*
X151553871Y-129439620D01*
X151675237Y-129732621D01*
X151851431Y-129996315D01*
X152075685Y-130220569D01*
X152339379Y-130396763D01*
X152632380Y-130518129D01*
X152943429Y-130580000D01*
X153260571Y-130580000D01*
X153571620Y-130518129D01*
X153864621Y-130396763D01*
X154128315Y-130220569D01*
X154352569Y-129996315D01*
X154528763Y-129732621D01*
X154529849Y-129730000D01*
X157611199Y-129730000D01*
X166519928Y-138638730D01*
X166519928Y-141172000D01*
X166532188Y-141296482D01*
X166568498Y-141416180D01*
X166627463Y-141526494D01*
X166706815Y-141623185D01*
X166803506Y-141702537D01*
X166913820Y-141761502D01*
X167033518Y-141797812D01*
X167158000Y-141810072D01*
X169138000Y-141810072D01*
X169262482Y-141797812D01*
X169382180Y-141761502D01*
X169492494Y-141702537D01*
X169589185Y-141623185D01*
X169668537Y-141526494D01*
X169727502Y-141416180D01*
X169763812Y-141296482D01*
X169776072Y-141172000D01*
X169776072Y-139146729D01*
X179462801Y-129460000D01*
X180765138Y-129460000D01*
X180796513Y-129778556D01*
X180889432Y-130084869D01*
X181040325Y-130367170D01*
X181243392Y-130614608D01*
X181490830Y-130817675D01*
X181773131Y-130968568D01*
X182079444Y-131061487D01*
X182318176Y-131085000D01*
X184457824Y-131085000D01*
X184696556Y-131061487D01*
X185002869Y-130968568D01*
X185285170Y-130817675D01*
X185532608Y-130614608D01*
X185735675Y-130367170D01*
X185886568Y-130084869D01*
X185979487Y-129778556D01*
X186010862Y-129460000D01*
X185979487Y-129141444D01*
X185886568Y-128835131D01*
X185735675Y-128552830D01*
X185532608Y-128305392D01*
X185285170Y-128102325D01*
X185002869Y-127951432D01*
X184696556Y-127858513D01*
X184457824Y-127835000D01*
X182318176Y-127835000D01*
X182079444Y-127858513D01*
X181773131Y-127951432D01*
X181490830Y-128102325D01*
X181243392Y-128305392D01*
X181040325Y-128552830D01*
X180889432Y-128835131D01*
X180796513Y-129141444D01*
X180765138Y-129460000D01*
X179462801Y-129460000D01*
X182837802Y-126085000D01*
X184457824Y-126085000D01*
X184696556Y-126061487D01*
X185002869Y-125968568D01*
X185285170Y-125817675D01*
X185532608Y-125614608D01*
X185735675Y-125367170D01*
X185886568Y-125084869D01*
X185979487Y-124778556D01*
X186010862Y-124460000D01*
X185979487Y-124141444D01*
X185886568Y-123835131D01*
X185735675Y-123552830D01*
X185532608Y-123305392D01*
X185285170Y-123102325D01*
X185002869Y-122951432D01*
X184696556Y-122858513D01*
X184457824Y-122835000D01*
X182318176Y-122835000D01*
X182079444Y-122858513D01*
X181773131Y-122951432D01*
X181490830Y-123102325D01*
X181243392Y-123305392D01*
X181040325Y-123552830D01*
X180889432Y-123835131D01*
X180796513Y-124141444D01*
X180765138Y-124460000D01*
X180796513Y-124778556D01*
X180889432Y-125084869D01*
X181040325Y-125367170D01*
X181205167Y-125568031D01*
X169745627Y-137027571D01*
X169727502Y-136967820D01*
X169668537Y-136857506D01*
X169589185Y-136760815D01*
X169492494Y-136681463D01*
X169382180Y-136622498D01*
X169262482Y-136586188D01*
X169138000Y-136573928D01*
X167158000Y-136573928D01*
X167033518Y-136586188D01*
X166913820Y-136622498D01*
X166803506Y-136681463D01*
X166753392Y-136722590D01*
X158489804Y-128459003D01*
X158466001Y-128429999D01*
X158350276Y-128335026D01*
X158218247Y-128264454D01*
X158074986Y-128220997D01*
X157963333Y-128210000D01*
X157963322Y-128210000D01*
X157926000Y-128206324D01*
X157888678Y-128210000D01*
X154529849Y-128210000D01*
X154528763Y-128207379D01*
X154352569Y-127943685D01*
X154128315Y-127719431D01*
X153864621Y-127543237D01*
X153571620Y-127421871D01*
X153260571Y-127360000D01*
X152943429Y-127360000D01*
X152632380Y-127421871D01*
X152339379Y-127543237D01*
X152075685Y-127719431D01*
X151851431Y-127943685D01*
X151675237Y-128207379D01*
X151553871Y-128500380D01*
X151492000Y-128811429D01*
X147212000Y-128811429D01*
X147150129Y-128500380D01*
X147149043Y-128497758D01*
X151502988Y-124143813D01*
X151553871Y-124399620D01*
X151675237Y-124692621D01*
X151851431Y-124956315D01*
X152075685Y-125180569D01*
X152339379Y-125356763D01*
X152632380Y-125478129D01*
X152943429Y-125540000D01*
X153260571Y-125540000D01*
X153571620Y-125478129D01*
X153864621Y-125356763D01*
X154128315Y-125180569D01*
X154352569Y-124956315D01*
X154528763Y-124692621D01*
X154529849Y-124690000D01*
X156966678Y-124690000D01*
X157004000Y-124693676D01*
X157041322Y-124690000D01*
X157041333Y-124690000D01*
X157152986Y-124679003D01*
X157296247Y-124635546D01*
X157428276Y-124564974D01*
X157544001Y-124470001D01*
X157567804Y-124440997D01*
X164146297Y-117862505D01*
X164445399Y-117922000D01*
X164758601Y-117922000D01*
X165065786Y-117860897D01*
X165355147Y-117741039D01*
X165615566Y-117567033D01*
X165747280Y-117435319D01*
X166228287Y-117435319D01*
X166318617Y-117695119D01*
X166600561Y-117831512D01*
X166903697Y-117910280D01*
X167216375Y-117928395D01*
X167526579Y-117885162D01*
X167822389Y-117782241D01*
X167985383Y-117695119D01*
X168075713Y-117435319D01*
X167152000Y-116511605D01*
X166228287Y-117435319D01*
X165747280Y-117435319D01*
X165837033Y-117345566D01*
X165925653Y-117212937D01*
X166048681Y-117255713D01*
X166972395Y-116332000D01*
X167331605Y-116332000D01*
X168255319Y-117255713D01*
X168515119Y-117165383D01*
X168651512Y-116883439D01*
X168730280Y-116580303D01*
X168748395Y-116267625D01*
X168705162Y-115957421D01*
X168602241Y-115661611D01*
X168515119Y-115498617D01*
X168255319Y-115408287D01*
X167331605Y-116332000D01*
X166972395Y-116332000D01*
X166048681Y-115408287D01*
X165925653Y-115451063D01*
X165837033Y-115318434D01*
X165747280Y-115228681D01*
X166228287Y-115228681D01*
X167152000Y-116152395D01*
X168075713Y-115228681D01*
X167985383Y-114968881D01*
X167703439Y-114832488D01*
X167400303Y-114753720D01*
X167087625Y-114735605D01*
X166777421Y-114778838D01*
X166481611Y-114881759D01*
X166318617Y-114968881D01*
X166228287Y-115228681D01*
X165747280Y-115228681D01*
X165615566Y-115096967D01*
X165355147Y-114922961D01*
X165065786Y-114803103D01*
X164758601Y-114742000D01*
X164445399Y-114742000D01*
X164138214Y-114803103D01*
X163848853Y-114922961D01*
X163588434Y-115096967D01*
X163581203Y-115104198D01*
X163537537Y-115022506D01*
X163458185Y-114925815D01*
X163361494Y-114846463D01*
X163251180Y-114787498D01*
X163131482Y-114751188D01*
X163007000Y-114738928D01*
X161533730Y-114738928D01*
X151930238Y-105135437D01*
X152054389Y-105092241D01*
X152217383Y-105005119D01*
X152307713Y-104745319D01*
X151384000Y-103821605D01*
X151369858Y-103835748D01*
X151190253Y-103656143D01*
X151204395Y-103642000D01*
X151190253Y-103627858D01*
X151369858Y-103448252D01*
X151384000Y-103462395D01*
X151398143Y-103448253D01*
X151577748Y-103627858D01*
X151563605Y-103642000D01*
X152487319Y-104565713D01*
X152747119Y-104475383D01*
X152883512Y-104193439D01*
X152962280Y-103890303D01*
X152970233Y-103753034D01*
X160820201Y-111603003D01*
X160843999Y-111632001D01*
X160872997Y-111655799D01*
X160959724Y-111726974D01*
X161091753Y-111797546D01*
X161235014Y-111841003D01*
X161384000Y-111855677D01*
X161421333Y-111852000D01*
X180961661Y-111852000D01*
X181040325Y-111999170D01*
X181243392Y-112246608D01*
X181490830Y-112449675D01*
X181773131Y-112600568D01*
X182079444Y-112693487D01*
X182318176Y-112717000D01*
X184457824Y-112717000D01*
X184696556Y-112693487D01*
X185002869Y-112600568D01*
X185285170Y-112449675D01*
X185532608Y-112246608D01*
X185735675Y-111999170D01*
X185886568Y-111716869D01*
X185979487Y-111410556D01*
X186010862Y-111092000D01*
X185979487Y-110773444D01*
X185886568Y-110467131D01*
X185735675Y-110184830D01*
X185532608Y-109937392D01*
X185285170Y-109734325D01*
X185002869Y-109583432D01*
X184696556Y-109490513D01*
X184457824Y-109467000D01*
X182318176Y-109467000D01*
X182079444Y-109490513D01*
X181773131Y-109583432D01*
X181490830Y-109734325D01*
X181243392Y-109937392D01*
X181040325Y-110184830D01*
X180961661Y-110332000D01*
X161698802Y-110332000D01*
X157458802Y-106092000D01*
X180765138Y-106092000D01*
X180796513Y-106410556D01*
X180889432Y-106716869D01*
X181040325Y-106999170D01*
X181243392Y-107246608D01*
X181490830Y-107449675D01*
X181773131Y-107600568D01*
X182079444Y-107693487D01*
X182318176Y-107717000D01*
X184457824Y-107717000D01*
X184696556Y-107693487D01*
X185002869Y-107600568D01*
X185285170Y-107449675D01*
X185532608Y-107246608D01*
X185735675Y-106999170D01*
X185886568Y-106716869D01*
X185979487Y-106410556D01*
X186010862Y-106092000D01*
X185979487Y-105773444D01*
X185886568Y-105467131D01*
X185735675Y-105184830D01*
X185532608Y-104937392D01*
X185285170Y-104734325D01*
X185002869Y-104583432D01*
X184696556Y-104490513D01*
X184457824Y-104467000D01*
X182318176Y-104467000D01*
X182079444Y-104490513D01*
X181773131Y-104583432D01*
X181490830Y-104734325D01*
X181243392Y-104937392D01*
X181040325Y-105184830D01*
X180889432Y-105467131D01*
X180796513Y-105773444D01*
X180765138Y-106092000D01*
X157458802Y-106092000D01*
X156112121Y-104745319D01*
X158588287Y-104745319D01*
X158678617Y-105005119D01*
X158960561Y-105141512D01*
X159263697Y-105220280D01*
X159576375Y-105238395D01*
X159886579Y-105195162D01*
X160182389Y-105092241D01*
X160345383Y-105005119D01*
X160435713Y-104745319D01*
X159512000Y-103821605D01*
X158588287Y-104745319D01*
X156112121Y-104745319D01*
X155073177Y-103706375D01*
X157915605Y-103706375D01*
X157958838Y-104016579D01*
X158061759Y-104312389D01*
X158148881Y-104475383D01*
X158408681Y-104565713D01*
X159332395Y-103642000D01*
X159691605Y-103642000D01*
X160615319Y-104565713D01*
X160875119Y-104475383D01*
X161011512Y-104193439D01*
X161090280Y-103890303D01*
X161108395Y-103577625D01*
X161065162Y-103267421D01*
X160962241Y-102971611D01*
X160875119Y-102808617D01*
X160615319Y-102718287D01*
X159691605Y-103642000D01*
X159332395Y-103642000D01*
X158408681Y-102718287D01*
X158148881Y-102808617D01*
X158012488Y-103090561D01*
X157933720Y-103393697D01*
X157915605Y-103706375D01*
X155073177Y-103706375D01*
X152914505Y-101547704D01*
X152974000Y-101248601D01*
X152974000Y-100935399D01*
X152912897Y-100628214D01*
X152793039Y-100338853D01*
X152619033Y-100078434D01*
X152611802Y-100071203D01*
X152693494Y-100027537D01*
X152790185Y-99948185D01*
X152869537Y-99851494D01*
X152928502Y-99741180D01*
X152964812Y-99621482D01*
X152977072Y-99497000D01*
X152977072Y-98023729D01*
X153413801Y-97587000D01*
X157918928Y-97587000D01*
X157918928Y-99497000D01*
X157931188Y-99621482D01*
X157967498Y-99741180D01*
X158026463Y-99851494D01*
X158105815Y-99948185D01*
X158202506Y-100027537D01*
X158284198Y-100071203D01*
X158276967Y-100078434D01*
X158102961Y-100338853D01*
X157983103Y-100628214D01*
X157922000Y-100935399D01*
X157922000Y-101248601D01*
X157983103Y-101555786D01*
X158102961Y-101845147D01*
X158276967Y-102105566D01*
X158498434Y-102327033D01*
X158631063Y-102415653D01*
X158588287Y-102538681D01*
X159512000Y-103462395D01*
X160435713Y-102538681D01*
X160392937Y-102415653D01*
X160525566Y-102327033D01*
X160747033Y-102105566D01*
X160921039Y-101845147D01*
X161040897Y-101555786D01*
X161102000Y-101248601D01*
X161102000Y-100935399D01*
X161040897Y-100628214D01*
X160921039Y-100338853D01*
X160747033Y-100078434D01*
X160739802Y-100071203D01*
X160821494Y-100027537D01*
X160918185Y-99948185D01*
X160997537Y-99851494D01*
X161056502Y-99741180D01*
X161092812Y-99621482D01*
X161105072Y-99497000D01*
X161105072Y-97587000D01*
X161092812Y-97462518D01*
X161056502Y-97342820D01*
X160997537Y-97232506D01*
X160918185Y-97135815D01*
X160821494Y-97056463D01*
X160711180Y-96997498D01*
X160591482Y-96961188D01*
X160467000Y-96948928D01*
X158557000Y-96948928D01*
X158432518Y-96961188D01*
X158312820Y-96997498D01*
X158202506Y-97056463D01*
X158105815Y-97135815D01*
X158026463Y-97232506D01*
X157967498Y-97342820D01*
X157931188Y-97462518D01*
X157918928Y-97587000D01*
X153413801Y-97587000D01*
X155393012Y-95607790D01*
X155422010Y-95583992D01*
X155516983Y-95468267D01*
X155587555Y-95336238D01*
X155631012Y-95192977D01*
X155642009Y-95081324D01*
X155642009Y-95081316D01*
X155645685Y-95043991D01*
X155642009Y-95006666D01*
X155642009Y-90032408D01*
X168021000Y-90032408D01*
X168021000Y-90307592D01*
X168074686Y-90577490D01*
X168179995Y-90831727D01*
X168332880Y-91060535D01*
X168527465Y-91255120D01*
X168756273Y-91408005D01*
X169010510Y-91513314D01*
X169280408Y-91567000D01*
X169555592Y-91567000D01*
X169825490Y-91513314D01*
X170079727Y-91408005D01*
X170308535Y-91255120D01*
X170503120Y-91060535D01*
X170656005Y-90831727D01*
X170761314Y-90577490D01*
X170815000Y-90307592D01*
X170815000Y-90032408D01*
X170761314Y-89762510D01*
X170656005Y-89508273D01*
X170503120Y-89279465D01*
X170308535Y-89084880D01*
X170079727Y-88931995D01*
X169825490Y-88826686D01*
X169555592Y-88773000D01*
X169280408Y-88773000D01*
X169010510Y-88826686D01*
X168756273Y-88931995D01*
X168527465Y-89084880D01*
X168332880Y-89279465D01*
X168179995Y-89508273D01*
X168074686Y-89762510D01*
X168021000Y-90032408D01*
X155642009Y-90032408D01*
X155642009Y-82412408D01*
X168021000Y-82412408D01*
X168021000Y-82687592D01*
X168074686Y-82957490D01*
X168179995Y-83211727D01*
X168332880Y-83440535D01*
X168527465Y-83635120D01*
X168756273Y-83788005D01*
X169010510Y-83893314D01*
X169280408Y-83947000D01*
X169555592Y-83947000D01*
X169825490Y-83893314D01*
X170079727Y-83788005D01*
X170308535Y-83635120D01*
X170503120Y-83440535D01*
X170656005Y-83211727D01*
X170761314Y-82957490D01*
X170815000Y-82687592D01*
X170815000Y-82412408D01*
X170761314Y-82142510D01*
X170656005Y-81888273D01*
X170503120Y-81659465D01*
X170308535Y-81464880D01*
X170079727Y-81311995D01*
X169825490Y-81206686D01*
X169555592Y-81153000D01*
X169280408Y-81153000D01*
X169010510Y-81206686D01*
X168756273Y-81311995D01*
X168527465Y-81464880D01*
X168332880Y-81659465D01*
X168179995Y-81888273D01*
X168074686Y-82142510D01*
X168021000Y-82412408D01*
X155642009Y-82412408D01*
X155642009Y-75300408D01*
X168021000Y-75300408D01*
X168021000Y-75575592D01*
X168074686Y-75845490D01*
X168179995Y-76099727D01*
X168332880Y-76328535D01*
X168527465Y-76523120D01*
X168756273Y-76676005D01*
X169010510Y-76781314D01*
X169280408Y-76835000D01*
X169555592Y-76835000D01*
X169825490Y-76781314D01*
X170079727Y-76676005D01*
X170308535Y-76523120D01*
X170503120Y-76328535D01*
X170656005Y-76099727D01*
X170761314Y-75845490D01*
X170815000Y-75575592D01*
X170815000Y-75300408D01*
X170761314Y-75030510D01*
X170656005Y-74776273D01*
X170503120Y-74547465D01*
X170308535Y-74352880D01*
X170079727Y-74199995D01*
X169825490Y-74094686D01*
X169555592Y-74041000D01*
X169280408Y-74041000D01*
X169010510Y-74094686D01*
X168756273Y-74199995D01*
X168527465Y-74352880D01*
X168332880Y-74547465D01*
X168179995Y-74776273D01*
X168074686Y-75030510D01*
X168021000Y-75300408D01*
X155642009Y-75300408D01*
X155642009Y-72318882D01*
X155645546Y-72312265D01*
X155689003Y-72169004D01*
X155700000Y-72057351D01*
X155700000Y-72057343D01*
X155703676Y-72020018D01*
X155700000Y-71982693D01*
X155700000Y-67680408D01*
X168021000Y-67680408D01*
X168021000Y-67955592D01*
X168074686Y-68225490D01*
X168179995Y-68479727D01*
X168332880Y-68708535D01*
X168527465Y-68903120D01*
X168756273Y-69056005D01*
X169010510Y-69161314D01*
X169280408Y-69215000D01*
X169555592Y-69215000D01*
X169825490Y-69161314D01*
X170079727Y-69056005D01*
X170308535Y-68903120D01*
X170503120Y-68708535D01*
X170656005Y-68479727D01*
X170761314Y-68225490D01*
X170815000Y-67955592D01*
X170815000Y-67680408D01*
X170761314Y-67410510D01*
X170656005Y-67156273D01*
X170503120Y-66927465D01*
X170308535Y-66732880D01*
X170079727Y-66579995D01*
X169825490Y-66474686D01*
X169555592Y-66421000D01*
X169280408Y-66421000D01*
X169010510Y-66474686D01*
X168756273Y-66579995D01*
X168527465Y-66732880D01*
X168332880Y-66927465D01*
X168179995Y-67156273D01*
X168074686Y-67410510D01*
X168021000Y-67680408D01*
X155700000Y-67680408D01*
X155700000Y-60997322D01*
X155703676Y-60959999D01*
X155700000Y-60922676D01*
X155700000Y-60922667D01*
X155689003Y-60811014D01*
X155645546Y-60667753D01*
X155574974Y-60535724D01*
X155480001Y-60419999D01*
X155451004Y-60396202D01*
X153654803Y-58600002D01*
X153631000Y-58570998D01*
X153515275Y-58476025D01*
X153383246Y-58405453D01*
X153239985Y-58361996D01*
X153128332Y-58350999D01*
X153128321Y-58350999D01*
X153090999Y-58347323D01*
X153053677Y-58350999D01*
X140570326Y-58350999D01*
X140533001Y-58347323D01*
X140495676Y-58350999D01*
X140495668Y-58350999D01*
X140384015Y-58361996D01*
X140240754Y-58405453D01*
X140108725Y-58476025D01*
X139993000Y-58570998D01*
X139969202Y-58599996D01*
X135632998Y-62936201D01*
X135604000Y-62959999D01*
X135580202Y-62988997D01*
X135580201Y-62988998D01*
X135509026Y-63075724D01*
X135438454Y-63207754D01*
X135424525Y-63253675D01*
X135394998Y-63351014D01*
X135389723Y-63404568D01*
X135380324Y-63500000D01*
X135384001Y-63537332D01*
X135384000Y-71642678D01*
X135380324Y-71680000D01*
X135384000Y-71717322D01*
X135384000Y-71717332D01*
X135394997Y-71828985D01*
X135407752Y-71871032D01*
X135438454Y-71972246D01*
X135509026Y-72104276D01*
X135518108Y-72115342D01*
X135603999Y-72220001D01*
X135633003Y-72243804D01*
X137302320Y-73913122D01*
X137269000Y-74080635D01*
X137269000Y-74270198D01*
X135380000Y-72381199D01*
X135380000Y-62798801D01*
X142300802Y-55878000D01*
X150465659Y-55878000D01*
X150552880Y-56008535D01*
X150747465Y-56203120D01*
X150976273Y-56356005D01*
X151230510Y-56461314D01*
X151500408Y-56515000D01*
X151775592Y-56515000D01*
X152045490Y-56461314D01*
X152299727Y-56356005D01*
X152528535Y-56203120D01*
X152723120Y-56008535D01*
X152876005Y-55779727D01*
X152981314Y-55525490D01*
X153035000Y-55255592D01*
X153035000Y-54980408D01*
X152981314Y-54710510D01*
X152876005Y-54456273D01*
X152723120Y-54227465D01*
X152528535Y-54032880D01*
X152299727Y-53879995D01*
X152228057Y-53850308D01*
X152241023Y-53845636D01*
X152356980Y-53783656D01*
X152423960Y-53543565D01*
X151638000Y-52757605D01*
X150852040Y-53543565D01*
X150919020Y-53783656D01*
X151054760Y-53847485D01*
X150976273Y-53879995D01*
X150747465Y-54032880D01*
X150552880Y-54227465D01*
X150465659Y-54358000D01*
X142023322Y-54358000D01*
X141985999Y-54354324D01*
X141948676Y-54358000D01*
X141948667Y-54358000D01*
X141837014Y-54368997D01*
X141693753Y-54412454D01*
X141561723Y-54483026D01*
X141513946Y-54522236D01*
X141445999Y-54577999D01*
X141422201Y-54606997D01*
X134108998Y-61920201D01*
X134080000Y-61943999D01*
X134056202Y-61972997D01*
X134056201Y-61972998D01*
X133985026Y-62059724D01*
X133914454Y-62191754D01*
X133898168Y-62245444D01*
X133870998Y-62335014D01*
X133860001Y-62446667D01*
X133856324Y-62484000D01*
X133860001Y-62521332D01*
X133860000Y-72658678D01*
X133856324Y-72696000D01*
X133860000Y-72733322D01*
X133860000Y-72733332D01*
X133870997Y-72844985D01*
X133897986Y-72933957D01*
X133914454Y-72988246D01*
X133985026Y-73120276D01*
X133985536Y-73120897D01*
X134079999Y-73236001D01*
X134109003Y-73259804D01*
X137302320Y-76453122D01*
X137269000Y-76620635D01*
X137269000Y-76899365D01*
X137323377Y-77172740D01*
X137430043Y-77430254D01*
X137584897Y-77662010D01*
X137781990Y-77859103D01*
X138013746Y-78013957D01*
X138052477Y-78030000D01*
X138013746Y-78046043D01*
X137781990Y-78200897D01*
X137584897Y-78397990D01*
X137430043Y-78629746D01*
X137323377Y-78887260D01*
X137269000Y-79160635D01*
X137269000Y-79439365D01*
X137323377Y-79712740D01*
X137430043Y-79970254D01*
X137584897Y-80202010D01*
X137781990Y-80399103D01*
X138013746Y-80553957D01*
X138052477Y-80570000D01*
X138013746Y-80586043D01*
X137781990Y-80740897D01*
X137584897Y-80937990D01*
X137430043Y-81169746D01*
X137323377Y-81427260D01*
X137269000Y-81700635D01*
X137269000Y-81890198D01*
X121156000Y-65777199D01*
X121156000Y-63699371D01*
X121240273Y-63755680D01*
X121501426Y-63863853D01*
X121778665Y-63919000D01*
X122061335Y-63919000D01*
X122338574Y-63863853D01*
X122599727Y-63755680D01*
X122834759Y-63598637D01*
X123034637Y-63398759D01*
X123191680Y-63163727D01*
X123299853Y-62902574D01*
X123355000Y-62625335D01*
X123355000Y-62342665D01*
X123318688Y-62160113D01*
X133227803Y-52250999D01*
X150279776Y-52250999D01*
X150248977Y-52375135D01*
X150236090Y-52650017D01*
X150277078Y-52922133D01*
X150370364Y-53181023D01*
X150432344Y-53296980D01*
X150672435Y-53363960D01*
X151458395Y-52578000D01*
X151444253Y-52563858D01*
X151623858Y-52384253D01*
X151638000Y-52398395D01*
X151652143Y-52384253D01*
X151831748Y-52563858D01*
X151817605Y-52578000D01*
X152603565Y-53363960D01*
X152843656Y-53296980D01*
X152960756Y-53047952D01*
X153027023Y-52780865D01*
X153039910Y-52505983D01*
X153001503Y-52250999D01*
X158364198Y-52250999D01*
X173992001Y-67878803D01*
X173992000Y-92418678D01*
X173988324Y-92456000D01*
X173992000Y-92493322D01*
X173992000Y-92493332D01*
X174002997Y-92604985D01*
X174030910Y-92697003D01*
X174046454Y-92748246D01*
X174117026Y-92880276D01*
X174134863Y-92902010D01*
X174211999Y-92996001D01*
X174241003Y-93019804D01*
X180918590Y-99697392D01*
X180877463Y-99747506D01*
X180818498Y-99857820D01*
X180782188Y-99977518D01*
X180769928Y-100102000D01*
X180769928Y-102082000D01*
X180782188Y-102206482D01*
X180818498Y-102326180D01*
X180877463Y-102436494D01*
X180956815Y-102533185D01*
X181053506Y-102612537D01*
X181163820Y-102671502D01*
X181283518Y-102707812D01*
X181408000Y-102720072D01*
X183941271Y-102720072D01*
X187200000Y-105978803D01*
X187200001Y-114573196D01*
X183941271Y-117831928D01*
X181408000Y-117831928D01*
X181283518Y-117844188D01*
X181163820Y-117880498D01*
X181053506Y-117939463D01*
X180956815Y-118018815D01*
X180877463Y-118115506D01*
X180818498Y-118225820D01*
X180782188Y-118345518D01*
X180769928Y-118470000D01*
X180769928Y-120450000D01*
X180782188Y-120574482D01*
X180818498Y-120694180D01*
X180877463Y-120804494D01*
X180956815Y-120901185D01*
X181053506Y-120980537D01*
X181163820Y-121039502D01*
X181283518Y-121075812D01*
X181408000Y-121088072D01*
X185368000Y-121088072D01*
X185492482Y-121075812D01*
X185612180Y-121039502D01*
X185722494Y-120980537D01*
X185819185Y-120901185D01*
X185898537Y-120804494D01*
X185957502Y-120694180D01*
X185993812Y-120574482D01*
X186006072Y-120450000D01*
X186006072Y-118470000D01*
X185993812Y-118345518D01*
X185957502Y-118225820D01*
X185898537Y-118115506D01*
X185857410Y-118065392D01*
X188471008Y-115451795D01*
X188500001Y-115428001D01*
X188523795Y-115399008D01*
X188523799Y-115399004D01*
X188594973Y-115312277D01*
X188594974Y-115312276D01*
X188665546Y-115180247D01*
X188709003Y-115036986D01*
X188720000Y-114925333D01*
X188720000Y-114925324D01*
X188723676Y-114888001D01*
X188720000Y-114850678D01*
X188720000Y-105701322D01*
X188723676Y-105663999D01*
X188720000Y-105626676D01*
X188720000Y-105626667D01*
X188709003Y-105515014D01*
X188665546Y-105371753D01*
X188594974Y-105239724D01*
X188543955Y-105177557D01*
X188523799Y-105152996D01*
X188523795Y-105152992D01*
X188500001Y-105123999D01*
X188471009Y-105100206D01*
X185857410Y-102486608D01*
X185898537Y-102436494D01*
X185957502Y-102326180D01*
X185993812Y-102206482D01*
X186006072Y-102082000D01*
X186006072Y-100102000D01*
X185993812Y-99977518D01*
X185957502Y-99857820D01*
X185898537Y-99747506D01*
X185819185Y-99650815D01*
X185722494Y-99571463D01*
X185612180Y-99512498D01*
X185492482Y-99476188D01*
X185368000Y-99463928D01*
X182834730Y-99463928D01*
X175512000Y-92141199D01*
X175512000Y-86708000D01*
X180765138Y-86708000D01*
X180796513Y-87026556D01*
X180889432Y-87332869D01*
X181040325Y-87615170D01*
X181243392Y-87862608D01*
X181490830Y-88065675D01*
X181773131Y-88216568D01*
X182079444Y-88309487D01*
X182318176Y-88333000D01*
X184457824Y-88333000D01*
X184696556Y-88309487D01*
X185002869Y-88216568D01*
X185285170Y-88065675D01*
X185532608Y-87862608D01*
X185735675Y-87615170D01*
X185886568Y-87332869D01*
X185979487Y-87026556D01*
X186010862Y-86708000D01*
X185979487Y-86389444D01*
X185886568Y-86083131D01*
X185735675Y-85800830D01*
X185532608Y-85553392D01*
X185285170Y-85350325D01*
X185002869Y-85199432D01*
X184696556Y-85106513D01*
X184457824Y-85083000D01*
X182318176Y-85083000D01*
X182079444Y-85106513D01*
X181773131Y-85199432D01*
X181490830Y-85350325D01*
X181243392Y-85553392D01*
X181040325Y-85800830D01*
X180889432Y-86083131D01*
X180796513Y-86389444D01*
X180765138Y-86708000D01*
X175512000Y-86708000D01*
X175512000Y-81708000D01*
X180765138Y-81708000D01*
X180796513Y-82026556D01*
X180889432Y-82332869D01*
X181040325Y-82615170D01*
X181243392Y-82862608D01*
X181490830Y-83065675D01*
X181773131Y-83216568D01*
X182079444Y-83309487D01*
X182318176Y-83333000D01*
X184457824Y-83333000D01*
X184696556Y-83309487D01*
X185002869Y-83216568D01*
X185285170Y-83065675D01*
X185532608Y-82862608D01*
X185735675Y-82615170D01*
X185886568Y-82332869D01*
X185979487Y-82026556D01*
X186010862Y-81708000D01*
X185979487Y-81389444D01*
X185886568Y-81083131D01*
X185735675Y-80800830D01*
X185532608Y-80553392D01*
X185285170Y-80350325D01*
X185002869Y-80199432D01*
X184696556Y-80106513D01*
X184457824Y-80083000D01*
X182318176Y-80083000D01*
X182079444Y-80106513D01*
X181773131Y-80199432D01*
X181490830Y-80350325D01*
X181243392Y-80553392D01*
X181040325Y-80800830D01*
X180889432Y-81083131D01*
X180796513Y-81389444D01*
X180765138Y-81708000D01*
X175512000Y-81708000D01*
X175512000Y-75718000D01*
X180769928Y-75718000D01*
X180769928Y-77698000D01*
X180782188Y-77822482D01*
X180818498Y-77942180D01*
X180877463Y-78052494D01*
X180956815Y-78149185D01*
X181053506Y-78228537D01*
X181163820Y-78287502D01*
X181283518Y-78323812D01*
X181408000Y-78336072D01*
X185368000Y-78336072D01*
X185492482Y-78323812D01*
X185612180Y-78287502D01*
X185722494Y-78228537D01*
X185819185Y-78149185D01*
X185898537Y-78052494D01*
X185957502Y-77942180D01*
X185993812Y-77822482D01*
X186006072Y-77698000D01*
X186006072Y-75718000D01*
X185993812Y-75593518D01*
X185957502Y-75473820D01*
X185898537Y-75363506D01*
X185819185Y-75266815D01*
X185722494Y-75187463D01*
X185612180Y-75128498D01*
X185492482Y-75092188D01*
X185368000Y-75079928D01*
X181408000Y-75079928D01*
X181283518Y-75092188D01*
X181163820Y-75128498D01*
X181053506Y-75187463D01*
X180956815Y-75266815D01*
X180877463Y-75363506D01*
X180818498Y-75473820D01*
X180782188Y-75593518D01*
X180769928Y-75718000D01*
X175512000Y-75718000D01*
X175512000Y-67601322D01*
X175515676Y-67563999D01*
X175512000Y-67526677D01*
X175512000Y-67526667D01*
X175501003Y-67415014D01*
X175457546Y-67271753D01*
X175395820Y-67156273D01*
X175386974Y-67139723D01*
X175315799Y-67052997D01*
X175292001Y-67023999D01*
X175263003Y-67000201D01*
X175158802Y-66896000D01*
X180765138Y-66896000D01*
X180796513Y-67214556D01*
X180889432Y-67520869D01*
X181040325Y-67803170D01*
X181243392Y-68050608D01*
X181490830Y-68253675D01*
X181773131Y-68404568D01*
X182079444Y-68497487D01*
X182318176Y-68521000D01*
X184457824Y-68521000D01*
X184696556Y-68497487D01*
X185002869Y-68404568D01*
X185285170Y-68253675D01*
X185532608Y-68050608D01*
X185735675Y-67803170D01*
X185886568Y-67520869D01*
X185979487Y-67214556D01*
X186010862Y-66896000D01*
X185979487Y-66577444D01*
X185886568Y-66271131D01*
X185735675Y-65988830D01*
X185532608Y-65741392D01*
X185285170Y-65538325D01*
X185002869Y-65387432D01*
X184696556Y-65294513D01*
X184457824Y-65271000D01*
X182318176Y-65271000D01*
X182079444Y-65294513D01*
X181773131Y-65387432D01*
X181490830Y-65538325D01*
X181243392Y-65741392D01*
X181040325Y-65988830D01*
X180889432Y-66271131D01*
X180796513Y-66577444D01*
X180765138Y-66896000D01*
X175158802Y-66896000D01*
X170158802Y-61896000D01*
X180765138Y-61896000D01*
X180796513Y-62214556D01*
X180889432Y-62520869D01*
X181040325Y-62803170D01*
X181243392Y-63050608D01*
X181490830Y-63253675D01*
X181773131Y-63404568D01*
X182079444Y-63497487D01*
X182318176Y-63521000D01*
X184457824Y-63521000D01*
X184696556Y-63497487D01*
X185002869Y-63404568D01*
X185285170Y-63253675D01*
X185532608Y-63050608D01*
X185735675Y-62803170D01*
X185886568Y-62520869D01*
X185979487Y-62214556D01*
X186010862Y-61896000D01*
X185979487Y-61577444D01*
X185886568Y-61271131D01*
X185735675Y-60988830D01*
X185532608Y-60741392D01*
X185285170Y-60538325D01*
X185002869Y-60387432D01*
X184696556Y-60294513D01*
X184457824Y-60271000D01*
X182318176Y-60271000D01*
X182079444Y-60294513D01*
X181773131Y-60387432D01*
X181490830Y-60538325D01*
X181243392Y-60741392D01*
X181040325Y-60988830D01*
X180889432Y-61271131D01*
X180796513Y-61577444D01*
X180765138Y-61896000D01*
X170158802Y-61896000D01*
X169807662Y-61544860D01*
X169825490Y-61541314D01*
X170079727Y-61436005D01*
X170308535Y-61283120D01*
X170503120Y-61088535D01*
X170656005Y-60859727D01*
X170761314Y-60605490D01*
X170815000Y-60335592D01*
X170815000Y-60060408D01*
X170761314Y-59790510D01*
X170656005Y-59536273D01*
X170503120Y-59307465D01*
X170308535Y-59112880D01*
X170079727Y-58959995D01*
X169825490Y-58854686D01*
X169555592Y-58801000D01*
X169280408Y-58801000D01*
X169010510Y-58854686D01*
X168756273Y-58959995D01*
X168527465Y-59112880D01*
X168332880Y-59307465D01*
X168179995Y-59536273D01*
X168074686Y-59790510D01*
X168071140Y-59808338D01*
X164168802Y-55906000D01*
X180769928Y-55906000D01*
X180769928Y-57886000D01*
X180782188Y-58010482D01*
X180818498Y-58130180D01*
X180877463Y-58240494D01*
X180956815Y-58337185D01*
X181053506Y-58416537D01*
X181163820Y-58475502D01*
X181283518Y-58511812D01*
X181408000Y-58524072D01*
X185368000Y-58524072D01*
X185492482Y-58511812D01*
X185612180Y-58475502D01*
X185722494Y-58416537D01*
X185819185Y-58337185D01*
X185898537Y-58240494D01*
X185957502Y-58130180D01*
X185993812Y-58010482D01*
X186006072Y-57886000D01*
X186006072Y-55906000D01*
X185993812Y-55781518D01*
X185957502Y-55661820D01*
X185898537Y-55551506D01*
X185819185Y-55454815D01*
X185722494Y-55375463D01*
X185612180Y-55316498D01*
X185492482Y-55280188D01*
X185368000Y-55267928D01*
X181408000Y-55267928D01*
X181283518Y-55280188D01*
X181163820Y-55316498D01*
X181053506Y-55375463D01*
X180956815Y-55454815D01*
X180877463Y-55551506D01*
X180818498Y-55661820D01*
X180782188Y-55781518D01*
X180769928Y-55906000D01*
X164168802Y-55906000D01*
X160703210Y-52440408D01*
X168021000Y-52440408D01*
X168021000Y-52715592D01*
X168074686Y-52985490D01*
X168179995Y-53239727D01*
X168332880Y-53468535D01*
X168527465Y-53663120D01*
X168756273Y-53816005D01*
X169010510Y-53921314D01*
X169280408Y-53975000D01*
X169555592Y-53975000D01*
X169825490Y-53921314D01*
X170079727Y-53816005D01*
X170308535Y-53663120D01*
X170503120Y-53468535D01*
X170656005Y-53239727D01*
X170761314Y-52985490D01*
X170815000Y-52715592D01*
X170815000Y-52440408D01*
X170761314Y-52170510D01*
X170656005Y-51916273D01*
X170503120Y-51687465D01*
X170308535Y-51492880D01*
X170079727Y-51339995D01*
X169825490Y-51234686D01*
X169555592Y-51181000D01*
X169280408Y-51181000D01*
X169010510Y-51234686D01*
X168756273Y-51339995D01*
X168527465Y-51492880D01*
X168332880Y-51687465D01*
X168179995Y-51916273D01*
X168074686Y-52170510D01*
X168021000Y-52440408D01*
X160703210Y-52440408D01*
X159242803Y-50980002D01*
X159219000Y-50950998D01*
X159103275Y-50856025D01*
X158971246Y-50785453D01*
X158827985Y-50741996D01*
X158716332Y-50730999D01*
X158716321Y-50730999D01*
X158678999Y-50727323D01*
X158641677Y-50730999D01*
X132950323Y-50730999D01*
X132913000Y-50727323D01*
X132875677Y-50730999D01*
X132875668Y-50730999D01*
X132764015Y-50741996D01*
X132620754Y-50785453D01*
X132488724Y-50856025D01*
X132405084Y-50924667D01*
X132373000Y-50950998D01*
X132349202Y-50979996D01*
X123357340Y-59971859D01*
X123360217Y-59913488D01*
X123318787Y-59633870D01*
X123223603Y-59367708D01*
X123156671Y-59242486D01*
X122912702Y-59170903D01*
X122099605Y-59984000D01*
X122113748Y-59998143D01*
X121934143Y-60177748D01*
X121920000Y-60163605D01*
X121905858Y-60177748D01*
X121726253Y-59998143D01*
X121740395Y-59984000D01*
X121726253Y-59969858D01*
X121905858Y-59790253D01*
X121920000Y-59804395D01*
X122733097Y-58991298D01*
X122661514Y-58747329D01*
X122406004Y-58626429D01*
X122131816Y-58557700D01*
X121849488Y-58543783D01*
X121569870Y-58585213D01*
X121303708Y-58680397D01*
X121178486Y-58747329D01*
X121156000Y-58823966D01*
X121156000Y-56587038D01*
X121240180Y-56561502D01*
X121350494Y-56502537D01*
X121367681Y-56488432D01*
X121494516Y-56546237D01*
X121731313Y-56602000D01*
X121974438Y-56610495D01*
X122214549Y-56571395D01*
X122442418Y-56486202D01*
X122518852Y-56445348D01*
X122566159Y-56221764D01*
X121896000Y-55551605D01*
X121881858Y-55565748D01*
X121702253Y-55386143D01*
X121716395Y-55372000D01*
X122075605Y-55372000D01*
X122745764Y-56042159D01*
X122969348Y-55994852D01*
X123070237Y-55773484D01*
X123126000Y-55536687D01*
X123134495Y-55293562D01*
X123095395Y-55053451D01*
X123010202Y-54825582D01*
X122969348Y-54749148D01*
X122745764Y-54701841D01*
X122075605Y-55372000D01*
X121716395Y-55372000D01*
X121702253Y-55357858D01*
X121881858Y-55178253D01*
X121896000Y-55192395D01*
X122566159Y-54522236D01*
X122518852Y-54298652D01*
X122297484Y-54197763D01*
X122060687Y-54142000D01*
X121817562Y-54133505D01*
X121577451Y-54172605D01*
X121363883Y-54252451D01*
X121350494Y-54241463D01*
X121240180Y-54182498D01*
X121120482Y-54146188D01*
X120996000Y-54133928D01*
X119796000Y-54133928D01*
X119671518Y-54146188D01*
X119551820Y-54182498D01*
X119441506Y-54241463D01*
X119344815Y-54320815D01*
X119265463Y-54417506D01*
X119206498Y-54527820D01*
X119170188Y-54647518D01*
X119157928Y-54772000D01*
X119157928Y-55972000D01*
X119170188Y-56096482D01*
X119206498Y-56216180D01*
X119265463Y-56326494D01*
X119344815Y-56423185D01*
X119441506Y-56502537D01*
X119551820Y-56561502D01*
X119636001Y-56587038D01*
X119636000Y-66054678D01*
X119632324Y-66092000D01*
X119636000Y-66129322D01*
X119636000Y-66129332D01*
X119646997Y-66240985D01*
X119690454Y-66384246D01*
X119761026Y-66516276D01*
X119789002Y-66550364D01*
X119855999Y-66632001D01*
X119885003Y-66655804D01*
X137302320Y-84073122D01*
X137269000Y-84240635D01*
X137269000Y-84519365D01*
X137302320Y-84686878D01*
X137067997Y-84921202D01*
X137038999Y-84945000D01*
X137015201Y-84973998D01*
X137015200Y-84973999D01*
X136944025Y-85060725D01*
X136873453Y-85192755D01*
X136829997Y-85336016D01*
X136815323Y-85485001D01*
X136819000Y-85522333D01*
X136818999Y-92493078D01*
X136815323Y-92530401D01*
X136818999Y-92567723D01*
X136818999Y-92567733D01*
X136829996Y-92679386D01*
X136870452Y-92812754D01*
X136873453Y-92822647D01*
X136944025Y-92954677D01*
X136977939Y-92996001D01*
X137038998Y-93070402D01*
X137068001Y-93094204D01*
X137589799Y-93616003D01*
X137597500Y-93625387D01*
X137584897Y-93637990D01*
X137430043Y-93869746D01*
X137323377Y-94127260D01*
X137269000Y-94400635D01*
X137269000Y-94679365D01*
X137302320Y-94846877D01*
X129314200Y-102834999D01*
X114534787Y-102834999D01*
X114537957Y-102830254D01*
X114644623Y-102572740D01*
X114699000Y-102299365D01*
X114699000Y-102020635D01*
X114644623Y-101747260D01*
X114537957Y-101489746D01*
X114383103Y-101257990D01*
X114186010Y-101060897D01*
X113954254Y-100906043D01*
X113915523Y-100890000D01*
X113954254Y-100873957D01*
X114186010Y-100719103D01*
X114383103Y-100522010D01*
X114537957Y-100290254D01*
X114644623Y-100032740D01*
X114699000Y-99759365D01*
X114699000Y-99480635D01*
X114644623Y-99207260D01*
X114537957Y-98949746D01*
X114383103Y-98717990D01*
X114186010Y-98520897D01*
X113954254Y-98366043D01*
X113915523Y-98350000D01*
X113954254Y-98333957D01*
X114186010Y-98179103D01*
X114383103Y-97982010D01*
X114537957Y-97750254D01*
X114644623Y-97492740D01*
X114699000Y-97219365D01*
X114699000Y-96940635D01*
X114644623Y-96667260D01*
X114537957Y-96409746D01*
X114383103Y-96177990D01*
X114186010Y-95980897D01*
X113954254Y-95826043D01*
X113918475Y-95811223D01*
X114013655Y-95760349D01*
X114082816Y-95518421D01*
X113284000Y-94719605D01*
X112485184Y-95518421D01*
X112554345Y-95760349D01*
X112656279Y-95808425D01*
X112613746Y-95826043D01*
X112381990Y-95980897D01*
X112184897Y-96177990D01*
X112030043Y-96409746D01*
X111923377Y-96667260D01*
X111869000Y-96940635D01*
X111869000Y-97219365D01*
X111923377Y-97492740D01*
X112030043Y-97750254D01*
X112184897Y-97982010D01*
X112381990Y-98179103D01*
X112613746Y-98333957D01*
X112652477Y-98350000D01*
X112613746Y-98366043D01*
X112381990Y-98520897D01*
X112184897Y-98717990D01*
X112030043Y-98949746D01*
X111923377Y-99207260D01*
X111869000Y-99480635D01*
X111869000Y-99759365D01*
X111923377Y-100032740D01*
X112030043Y-100290254D01*
X112184897Y-100522010D01*
X112381990Y-100719103D01*
X112613746Y-100873957D01*
X112652477Y-100890000D01*
X112613746Y-100906043D01*
X112381990Y-101060897D01*
X112184897Y-101257990D01*
X112030043Y-101489746D01*
X111923377Y-101747260D01*
X111869000Y-102020635D01*
X111869000Y-102299365D01*
X111923377Y-102572740D01*
X112030043Y-102830254D01*
X112184897Y-103062010D01*
X112197500Y-103074613D01*
X112189800Y-103083996D01*
X99169003Y-116104794D01*
X99139999Y-116128597D01*
X99095341Y-116183014D01*
X99045026Y-116244322D01*
X98998161Y-116332000D01*
X98974454Y-116376352D01*
X98930997Y-116519613D01*
X98920000Y-116631266D01*
X98920000Y-116631276D01*
X98916324Y-116668598D01*
X98920000Y-116705920D01*
X98920001Y-129855888D01*
X98749304Y-129969944D01*
X98545944Y-130173304D01*
X98386165Y-130412431D01*
X98276107Y-130678134D01*
X98220000Y-130960203D01*
X93946340Y-130960203D01*
X93711327Y-108516495D01*
X96567000Y-108516495D01*
X96567000Y-108907505D01*
X96643282Y-109291003D01*
X96792915Y-109652250D01*
X97010149Y-109977364D01*
X97286636Y-110253851D01*
X97611750Y-110471085D01*
X97972997Y-110620718D01*
X98356495Y-110697000D01*
X98747505Y-110697000D01*
X99131003Y-110620718D01*
X99492250Y-110471085D01*
X99817364Y-110253851D01*
X100093851Y-109977364D01*
X100311085Y-109652250D01*
X100460718Y-109291003D01*
X100537000Y-108907505D01*
X100537000Y-108516495D01*
X100460718Y-108132997D01*
X100311085Y-107771750D01*
X100093851Y-107446636D01*
X99817364Y-107170149D01*
X99492250Y-106952915D01*
X99131003Y-106803282D01*
X98747505Y-106727000D01*
X98356495Y-106727000D01*
X97972997Y-106803282D01*
X97611750Y-106952915D01*
X97286636Y-107170149D01*
X97010149Y-107446636D01*
X96792915Y-107771750D01*
X96643282Y-108132997D01*
X96567000Y-108516495D01*
X93711327Y-108516495D01*
X93565723Y-94611303D01*
X111863943Y-94611303D01*
X111905140Y-94886972D01*
X111999325Y-95149308D01*
X112063651Y-95269655D01*
X112305579Y-95338816D01*
X113104395Y-94540000D01*
X113463605Y-94540000D01*
X114262421Y-95338816D01*
X114504349Y-95269655D01*
X114623248Y-95017557D01*
X114690681Y-94747106D01*
X114704057Y-94468697D01*
X114662860Y-94193028D01*
X114568675Y-93930692D01*
X114504349Y-93810345D01*
X114262421Y-93741184D01*
X113463605Y-94540000D01*
X113104395Y-94540000D01*
X112305579Y-93741184D01*
X112063651Y-93810345D01*
X111944752Y-94062443D01*
X111877319Y-94332894D01*
X111863943Y-94611303D01*
X93565723Y-94611303D01*
X93370887Y-76004495D01*
X96567000Y-76004495D01*
X96567000Y-76395505D01*
X96643282Y-76779003D01*
X96792915Y-77140250D01*
X97010149Y-77465364D01*
X97286636Y-77741851D01*
X97611750Y-77959085D01*
X97972997Y-78108718D01*
X98356495Y-78185000D01*
X98747505Y-78185000D01*
X99131003Y-78108718D01*
X99492250Y-77959085D01*
X99817364Y-77741851D01*
X100093851Y-77465364D01*
X100311085Y-77140250D01*
X100460718Y-76779003D01*
X100537000Y-76395505D01*
X100537000Y-76004495D01*
X100460718Y-75620997D01*
X100311085Y-75259750D01*
X100093851Y-74934636D01*
X99817364Y-74658149D01*
X99492250Y-74440915D01*
X99131003Y-74291282D01*
X98747505Y-74215000D01*
X98356495Y-74215000D01*
X97972997Y-74291282D01*
X97611750Y-74440915D01*
X97286636Y-74658149D01*
X97010149Y-74934636D01*
X96792915Y-75259750D01*
X96643282Y-75620997D01*
X96567000Y-76004495D01*
X93370887Y-76004495D01*
X93317438Y-70900000D01*
X111865928Y-70900000D01*
X111865928Y-72460000D01*
X111878188Y-72584482D01*
X111914498Y-72704180D01*
X111973463Y-72814494D01*
X112052815Y-72911185D01*
X112149506Y-72990537D01*
X112259820Y-73049502D01*
X112379518Y-73085812D01*
X112427436Y-73090531D01*
X112381990Y-73120897D01*
X112184897Y-73317990D01*
X112030043Y-73549746D01*
X111923377Y-73807260D01*
X111869000Y-74080635D01*
X111869000Y-74359365D01*
X111923377Y-74632740D01*
X112030043Y-74890254D01*
X112184897Y-75122010D01*
X112381990Y-75319103D01*
X112613746Y-75473957D01*
X112652477Y-75490000D01*
X112613746Y-75506043D01*
X112381990Y-75660897D01*
X112184897Y-75857990D01*
X112030043Y-76089746D01*
X111923377Y-76347260D01*
X111869000Y-76620635D01*
X111869000Y-76899365D01*
X111923377Y-77172740D01*
X112030043Y-77430254D01*
X112184897Y-77662010D01*
X112381990Y-77859103D01*
X112613746Y-78013957D01*
X112652477Y-78030000D01*
X112613746Y-78046043D01*
X112381990Y-78200897D01*
X112184897Y-78397990D01*
X112030043Y-78629746D01*
X111923377Y-78887260D01*
X111869000Y-79160635D01*
X111869000Y-79439365D01*
X111923377Y-79712740D01*
X112030043Y-79970254D01*
X112184897Y-80202010D01*
X112381990Y-80399103D01*
X112613746Y-80553957D01*
X112652477Y-80570000D01*
X112613746Y-80586043D01*
X112381990Y-80740897D01*
X112184897Y-80937990D01*
X112030043Y-81169746D01*
X111923377Y-81427260D01*
X111869000Y-81700635D01*
X111869000Y-81979365D01*
X111923377Y-82252740D01*
X112030043Y-82510254D01*
X112184897Y-82742010D01*
X112381990Y-82939103D01*
X112613746Y-83093957D01*
X112652477Y-83110000D01*
X112613746Y-83126043D01*
X112381990Y-83280897D01*
X112184897Y-83477990D01*
X112030043Y-83709746D01*
X111923377Y-83967260D01*
X111869000Y-84240635D01*
X111869000Y-84519365D01*
X111923377Y-84792740D01*
X112030043Y-85050254D01*
X112184897Y-85282010D01*
X112381990Y-85479103D01*
X112613746Y-85633957D01*
X112652477Y-85650000D01*
X112613746Y-85666043D01*
X112381990Y-85820897D01*
X112184897Y-86017990D01*
X112030043Y-86249746D01*
X111923377Y-86507260D01*
X111869000Y-86780635D01*
X111869000Y-87059365D01*
X111923377Y-87332740D01*
X112030043Y-87590254D01*
X112184897Y-87822010D01*
X112381990Y-88019103D01*
X112613746Y-88173957D01*
X112652477Y-88190000D01*
X112613746Y-88206043D01*
X112381990Y-88360897D01*
X112184897Y-88557990D01*
X112030043Y-88789746D01*
X111923377Y-89047260D01*
X111869000Y-89320635D01*
X111869000Y-89599365D01*
X111923377Y-89872740D01*
X112030043Y-90130254D01*
X112184897Y-90362010D01*
X112381990Y-90559103D01*
X112613746Y-90713957D01*
X112652477Y-90730000D01*
X112613746Y-90746043D01*
X112381990Y-90900897D01*
X112184897Y-91097990D01*
X112030043Y-91329746D01*
X111923377Y-91587260D01*
X111869000Y-91860635D01*
X111869000Y-92139365D01*
X111923377Y-92412740D01*
X112030043Y-92670254D01*
X112184897Y-92902010D01*
X112381990Y-93099103D01*
X112613746Y-93253957D01*
X112649525Y-93268777D01*
X112554345Y-93319651D01*
X112485184Y-93561579D01*
X113284000Y-94360395D01*
X114082816Y-93561579D01*
X114013655Y-93319651D01*
X113911721Y-93271575D01*
X113954254Y-93253957D01*
X114186010Y-93099103D01*
X114383103Y-92902010D01*
X114537957Y-92670254D01*
X114644623Y-92412740D01*
X114699000Y-92139365D01*
X114699000Y-91860635D01*
X114644623Y-91587260D01*
X114537957Y-91329746D01*
X114383103Y-91097990D01*
X114186010Y-90900897D01*
X113954254Y-90746043D01*
X113915523Y-90730000D01*
X113954254Y-90713957D01*
X114186010Y-90559103D01*
X114383103Y-90362010D01*
X114537957Y-90130254D01*
X114644623Y-89872740D01*
X114699000Y-89599365D01*
X114699000Y-89320635D01*
X114644623Y-89047260D01*
X114537957Y-88789746D01*
X114383103Y-88557990D01*
X114186010Y-88360897D01*
X113954254Y-88206043D01*
X113915523Y-88190000D01*
X113954254Y-88173957D01*
X114186010Y-88019103D01*
X114383103Y-87822010D01*
X114537957Y-87590254D01*
X114644623Y-87332740D01*
X114699000Y-87059365D01*
X114699000Y-86780635D01*
X114644623Y-86507260D01*
X114537957Y-86249746D01*
X114383103Y-86017990D01*
X114186010Y-85820897D01*
X113954254Y-85666043D01*
X113915523Y-85650000D01*
X113954254Y-85633957D01*
X114186010Y-85479103D01*
X114383103Y-85282010D01*
X114537957Y-85050254D01*
X114644623Y-84792740D01*
X114699000Y-84519365D01*
X114699000Y-84240635D01*
X114644623Y-83967260D01*
X114537957Y-83709746D01*
X114383103Y-83477990D01*
X114186010Y-83280897D01*
X113954254Y-83126043D01*
X113915523Y-83110000D01*
X113954254Y-83093957D01*
X114186010Y-82939103D01*
X114383103Y-82742010D01*
X114537957Y-82510254D01*
X114644623Y-82252740D01*
X114699000Y-81979365D01*
X114699000Y-81700635D01*
X114644623Y-81427260D01*
X114537957Y-81169746D01*
X114383103Y-80937990D01*
X114186010Y-80740897D01*
X113954254Y-80586043D01*
X113915523Y-80570000D01*
X113954254Y-80553957D01*
X114186010Y-80399103D01*
X114383103Y-80202010D01*
X114537957Y-79970254D01*
X114644623Y-79712740D01*
X114699000Y-79439365D01*
X114699000Y-79160635D01*
X114644623Y-78887260D01*
X114537957Y-78629746D01*
X114383103Y-78397990D01*
X114186010Y-78200897D01*
X113954254Y-78046043D01*
X113915523Y-78030000D01*
X113954254Y-78013957D01*
X114186010Y-77859103D01*
X114383103Y-77662010D01*
X114537957Y-77430254D01*
X114644623Y-77172740D01*
X114699000Y-76899365D01*
X114699000Y-76620635D01*
X114644623Y-76347260D01*
X114537957Y-76089746D01*
X114383103Y-75857990D01*
X114186010Y-75660897D01*
X113954254Y-75506043D01*
X113915523Y-75490000D01*
X113954254Y-75473957D01*
X114186010Y-75319103D01*
X114383103Y-75122010D01*
X114537957Y-74890254D01*
X114644623Y-74632740D01*
X114699000Y-74359365D01*
X114699000Y-74080635D01*
X114644623Y-73807260D01*
X114537957Y-73549746D01*
X114383103Y-73317990D01*
X114186010Y-73120897D01*
X114140564Y-73090531D01*
X114188482Y-73085812D01*
X114308180Y-73049502D01*
X114418494Y-72990537D01*
X114515185Y-72911185D01*
X114594537Y-72814494D01*
X114653502Y-72704180D01*
X114689812Y-72584482D01*
X114702072Y-72460000D01*
X114702072Y-70900000D01*
X114689812Y-70775518D01*
X114653502Y-70655820D01*
X114594537Y-70545506D01*
X114515185Y-70448815D01*
X114418494Y-70369463D01*
X114308180Y-70310498D01*
X114188482Y-70274188D01*
X114064000Y-70261928D01*
X112504000Y-70261928D01*
X112379518Y-70274188D01*
X112259820Y-70310498D01*
X112149506Y-70369463D01*
X112052815Y-70448815D01*
X111973463Y-70545506D01*
X111914498Y-70655820D01*
X111878188Y-70775518D01*
X111865928Y-70900000D01*
X93317438Y-70900000D01*
X93292872Y-68554000D01*
X97965928Y-68554000D01*
X97978188Y-68678482D01*
X98014498Y-68798180D01*
X98073463Y-68908494D01*
X98152815Y-69005185D01*
X98249506Y-69084537D01*
X98359820Y-69143502D01*
X98479518Y-69179812D01*
X98604000Y-69192072D01*
X100298250Y-69189000D01*
X100457000Y-69030250D01*
X100457000Y-67691000D01*
X100711000Y-67691000D01*
X100711000Y-69030250D01*
X100869750Y-69189000D01*
X102564000Y-69192072D01*
X102688482Y-69179812D01*
X102808180Y-69143502D01*
X102918494Y-69084537D01*
X103015185Y-69005185D01*
X103094537Y-68908494D01*
X103153502Y-68798180D01*
X103189812Y-68678482D01*
X103202072Y-68554000D01*
X103199000Y-67849750D01*
X103040250Y-67691000D01*
X100711000Y-67691000D01*
X100457000Y-67691000D01*
X98127750Y-67691000D01*
X97969000Y-67849750D01*
X97965928Y-68554000D01*
X93292872Y-68554000D01*
X93272139Y-66574000D01*
X97965928Y-66574000D01*
X97969000Y-67278250D01*
X98127750Y-67437000D01*
X100457000Y-67437000D01*
X100457000Y-66097750D01*
X100711000Y-66097750D01*
X100711000Y-67437000D01*
X103040250Y-67437000D01*
X103199000Y-67278250D01*
X103202072Y-66574000D01*
X103189812Y-66449518D01*
X103153502Y-66329820D01*
X103094537Y-66219506D01*
X103015185Y-66122815D01*
X102918494Y-66043463D01*
X102808180Y-65984498D01*
X102688482Y-65948188D01*
X102564000Y-65935928D01*
X100869750Y-65939000D01*
X100711000Y-66097750D01*
X100457000Y-66097750D01*
X100298250Y-65939000D01*
X98604000Y-65935928D01*
X98479518Y-65948188D01*
X98359820Y-65984498D01*
X98249506Y-66043463D01*
X98152815Y-66122815D01*
X98073463Y-66219506D01*
X98014498Y-66329820D01*
X97978188Y-66449518D01*
X97965928Y-66574000D01*
X93272139Y-66574000D01*
X93230149Y-62564000D01*
X97961138Y-62564000D01*
X97992513Y-62882556D01*
X98085432Y-63188869D01*
X98236325Y-63471170D01*
X98439392Y-63718608D01*
X98686830Y-63921675D01*
X98969131Y-64072568D01*
X99275444Y-64165487D01*
X99514176Y-64189000D01*
X101653824Y-64189000D01*
X101892556Y-64165487D01*
X102198869Y-64072568D01*
X102481170Y-63921675D01*
X102728608Y-63718608D01*
X102931675Y-63471170D01*
X103082568Y-63188869D01*
X103175487Y-62882556D01*
X103206862Y-62564000D01*
X103175487Y-62245444D01*
X103082568Y-61939131D01*
X102931675Y-61656830D01*
X102728608Y-61409392D01*
X102481170Y-61206325D01*
X102198869Y-61055432D01*
X101892556Y-60962513D01*
X101653824Y-60939000D01*
X99514176Y-60939000D01*
X99275444Y-60962513D01*
X98969131Y-61055432D01*
X98686830Y-61206325D01*
X98439392Y-61409392D01*
X98236325Y-61656830D01*
X98085432Y-61939131D01*
X97992513Y-62245444D01*
X97961138Y-62564000D01*
X93230149Y-62564000D01*
X93181761Y-57942865D01*
X98013782Y-57942865D01*
X98044095Y-58068528D01*
X98172304Y-58361205D01*
X98355148Y-58623246D01*
X98585601Y-58844581D01*
X98854806Y-59016704D01*
X99152418Y-59133000D01*
X99467000Y-59189000D01*
X100457000Y-59189000D01*
X100457000Y-57691000D01*
X100711000Y-57691000D01*
X100711000Y-59189000D01*
X101701000Y-59189000D01*
X102015582Y-59133000D01*
X102313194Y-59016704D01*
X102582399Y-58844581D01*
X102812852Y-58623246D01*
X102995696Y-58361205D01*
X103123905Y-58068528D01*
X103154218Y-57942865D01*
X103034740Y-57691000D01*
X100711000Y-57691000D01*
X100457000Y-57691000D01*
X98133260Y-57691000D01*
X98013782Y-57942865D01*
X93181761Y-57942865D01*
X93173827Y-57185135D01*
X98013782Y-57185135D01*
X98133260Y-57437000D01*
X100457000Y-57437000D01*
X100457000Y-55939000D01*
X100711000Y-55939000D01*
X100711000Y-57437000D01*
X103034740Y-57437000D01*
X103154218Y-57185135D01*
X103123905Y-57059472D01*
X102995696Y-56766795D01*
X102812852Y-56504754D01*
X102582399Y-56283419D01*
X102313194Y-56111296D01*
X102015582Y-55995000D01*
X101701000Y-55939000D01*
X100711000Y-55939000D01*
X100457000Y-55939000D01*
X99467000Y-55939000D01*
X99152418Y-55995000D01*
X98854806Y-56111296D01*
X98585601Y-56283419D01*
X98355148Y-56504754D01*
X98172304Y-56766795D01*
X98044095Y-57059472D01*
X98013782Y-57185135D01*
X93173827Y-57185135D01*
X93125437Y-52564000D01*
X97961138Y-52564000D01*
X97992513Y-52882556D01*
X98085432Y-53188869D01*
X98236325Y-53471170D01*
X98439392Y-53718608D01*
X98686830Y-53921675D01*
X98969131Y-54072568D01*
X99275444Y-54165487D01*
X99514176Y-54189000D01*
X101653824Y-54189000D01*
X101892556Y-54165487D01*
X102198869Y-54072568D01*
X102481170Y-53921675D01*
X102712289Y-53732000D01*
X112253928Y-53732000D01*
X112266188Y-53856482D01*
X112302498Y-53976180D01*
X112361463Y-54086494D01*
X112440815Y-54183185D01*
X112537506Y-54262537D01*
X112647820Y-54321502D01*
X112666127Y-54327056D01*
X112599688Y-54393495D01*
X112431701Y-54644905D01*
X112315989Y-54924257D01*
X112257000Y-55220816D01*
X112257000Y-55523184D01*
X112315989Y-55819743D01*
X112431701Y-56099095D01*
X112599688Y-56350505D01*
X112813495Y-56564312D01*
X112929763Y-56642000D01*
X112813495Y-56719688D01*
X112599688Y-56933495D01*
X112431701Y-57184905D01*
X112315989Y-57464257D01*
X112257000Y-57760816D01*
X112257000Y-58063184D01*
X112315989Y-58359743D01*
X112431701Y-58639095D01*
X112599688Y-58890505D01*
X112813495Y-59104312D01*
X113064905Y-59272299D01*
X113344257Y-59388011D01*
X113640816Y-59447000D01*
X113943184Y-59447000D01*
X114239743Y-59388011D01*
X114519095Y-59272299D01*
X114770505Y-59104312D01*
X114984312Y-58890505D01*
X115152299Y-58639095D01*
X115268011Y-58359743D01*
X115327000Y-58063184D01*
X115327000Y-57760816D01*
X115268011Y-57464257D01*
X115152299Y-57184905D01*
X114984312Y-56933495D01*
X114770505Y-56719688D01*
X114654237Y-56642000D01*
X114770505Y-56564312D01*
X114984312Y-56350505D01*
X115152299Y-56099095D01*
X115268011Y-55819743D01*
X115327000Y-55523184D01*
X115327000Y-55220816D01*
X115268011Y-54924257D01*
X115152299Y-54644905D01*
X114984312Y-54393495D01*
X114917873Y-54327056D01*
X114936180Y-54321502D01*
X115046494Y-54262537D01*
X115143185Y-54183185D01*
X115222537Y-54086494D01*
X115281502Y-53976180D01*
X115317812Y-53856482D01*
X115330072Y-53732000D01*
X115327000Y-53117750D01*
X115168250Y-52959000D01*
X113919000Y-52959000D01*
X113919000Y-52979000D01*
X113665000Y-52979000D01*
X113665000Y-52959000D01*
X112415750Y-52959000D01*
X112257000Y-53117750D01*
X112253928Y-53732000D01*
X102712289Y-53732000D01*
X102728608Y-53718608D01*
X102931675Y-53471170D01*
X103082568Y-53188869D01*
X103175487Y-52882556D01*
X103206862Y-52564000D01*
X103175487Y-52245444D01*
X103082568Y-51939131D01*
X103078757Y-51932000D01*
X112253928Y-51932000D01*
X112257000Y-52546250D01*
X112415750Y-52705000D01*
X113665000Y-52705000D01*
X113665000Y-51455750D01*
X113919000Y-51455750D01*
X113919000Y-52705000D01*
X115168250Y-52705000D01*
X115327000Y-52546250D01*
X115330072Y-51932000D01*
X115317812Y-51807518D01*
X115281502Y-51687820D01*
X115222537Y-51577506D01*
X115143185Y-51480815D01*
X115046494Y-51401463D01*
X114936180Y-51342498D01*
X114816482Y-51306188D01*
X114692000Y-51293928D01*
X114077750Y-51297000D01*
X113919000Y-51455750D01*
X113665000Y-51455750D01*
X113506250Y-51297000D01*
X112892000Y-51293928D01*
X112767518Y-51306188D01*
X112647820Y-51342498D01*
X112537506Y-51401463D01*
X112440815Y-51480815D01*
X112361463Y-51577506D01*
X112302498Y-51687820D01*
X112266188Y-51807518D01*
X112253928Y-51932000D01*
X103078757Y-51932000D01*
X102931675Y-51656830D01*
X102728608Y-51409392D01*
X102481170Y-51206325D01*
X102198869Y-51055432D01*
X101892556Y-50962513D01*
X101653824Y-50939000D01*
X99514176Y-50939000D01*
X99275444Y-50962513D01*
X98969131Y-51055432D01*
X98686830Y-51206325D01*
X98439392Y-51409392D01*
X98236325Y-51656830D01*
X98085432Y-51939131D01*
X97992513Y-52245444D01*
X97961138Y-52564000D01*
X93125437Y-52564000D01*
X93116000Y-51662817D01*
X93116000Y-49403000D01*
X190373000Y-49403000D01*
X190373000Y-146177000D01*
%TA.AperFunction,Conductor*%
D32*
G36*
X190373000Y-146177000D02*
G01*
X130447985Y-146177000D01*
X130483287Y-146133984D01*
X130542252Y-146023670D01*
X130578562Y-145903972D01*
X130590822Y-145779490D01*
X130590822Y-144071429D01*
X143992000Y-144071429D01*
X143992000Y-144388571D01*
X144053871Y-144699620D01*
X144175237Y-144992621D01*
X144351431Y-145256315D01*
X144575685Y-145480569D01*
X144839379Y-145656763D01*
X145132380Y-145778129D01*
X145443429Y-145840000D01*
X145760571Y-145840000D01*
X146071620Y-145778129D01*
X146364621Y-145656763D01*
X146628315Y-145480569D01*
X146852569Y-145256315D01*
X147028763Y-144992621D01*
X147150129Y-144699620D01*
X147212000Y-144388571D01*
X147212000Y-144071429D01*
X151492000Y-144071429D01*
X151492000Y-144388571D01*
X151553871Y-144699620D01*
X151675237Y-144992621D01*
X151851431Y-145256315D01*
X152075685Y-145480569D01*
X152339379Y-145656763D01*
X152632380Y-145778129D01*
X152943429Y-145840000D01*
X153260571Y-145840000D01*
X153571620Y-145778129D01*
X153864621Y-145656763D01*
X154128315Y-145480569D01*
X154352569Y-145256315D01*
X154528763Y-144992621D01*
X154650129Y-144699620D01*
X154712000Y-144388571D01*
X154712000Y-144071429D01*
X154650129Y-143760380D01*
X154528763Y-143467379D01*
X154352569Y-143203685D01*
X154128315Y-142979431D01*
X153864621Y-142803237D01*
X153571620Y-142681871D01*
X153260571Y-142620000D01*
X152943429Y-142620000D01*
X152632380Y-142681871D01*
X152339379Y-142803237D01*
X152075685Y-142979431D01*
X151851431Y-143203685D01*
X151675237Y-143467379D01*
X151553871Y-143760380D01*
X151492000Y-144071429D01*
X147212000Y-144071429D01*
X147150129Y-143760380D01*
X147028763Y-143467379D01*
X146852569Y-143203685D01*
X146628315Y-142979431D01*
X146364621Y-142803237D01*
X146071620Y-142681871D01*
X145760571Y-142620000D01*
X145443429Y-142620000D01*
X145132380Y-142681871D01*
X144839379Y-142803237D01*
X144575685Y-142979431D01*
X144351431Y-143203685D01*
X144175237Y-143467379D01*
X144053871Y-143760380D01*
X143992000Y-144071429D01*
X130590822Y-144071429D01*
X130590822Y-143780510D01*
X130578562Y-143656028D01*
X130542252Y-143536330D01*
X130483287Y-143426016D01*
X130403935Y-143329325D01*
X130307244Y-143249973D01*
X130196930Y-143191008D01*
X130077232Y-143154698D01*
X129952750Y-143142438D01*
X127953770Y-143142438D01*
X127829288Y-143154698D01*
X127709590Y-143191008D01*
X127599276Y-143249973D01*
X127502585Y-143329325D01*
X127423233Y-143426016D01*
X127364268Y-143536330D01*
X127327958Y-143656028D01*
X127315698Y-143780510D01*
X127315698Y-145779490D01*
X127327958Y-145903972D01*
X127364268Y-146023670D01*
X127423233Y-146133984D01*
X127458535Y-146177000D01*
X120445465Y-146177000D01*
X120480767Y-146133984D01*
X120539732Y-146023670D01*
X120576042Y-145903972D01*
X120588302Y-145779490D01*
X120588302Y-143780510D01*
X120576042Y-143656028D01*
X120539732Y-143536330D01*
X120480767Y-143426016D01*
X120401415Y-143329325D01*
X120304724Y-143249973D01*
X120194410Y-143191008D01*
X120074712Y-143154698D01*
X119950230Y-143142438D01*
X117951250Y-143142438D01*
X117826768Y-143154698D01*
X117707070Y-143191008D01*
X117596756Y-143249973D01*
X117500065Y-143329325D01*
X117420713Y-143426016D01*
X117361748Y-143536330D01*
X117325438Y-143656028D01*
X117313178Y-143780510D01*
X117313178Y-145779490D01*
X117325438Y-145903972D01*
X117361748Y-146023670D01*
X117420713Y-146133984D01*
X117456015Y-146177000D01*
X94105677Y-146177000D01*
X94067725Y-142552495D01*
X184451000Y-142552495D01*
X184451000Y-142943505D01*
X184527282Y-143327003D01*
X184676915Y-143688250D01*
X184894149Y-144013364D01*
X185170636Y-144289851D01*
X185495750Y-144507085D01*
X185856997Y-144656718D01*
X186240495Y-144733000D01*
X186631505Y-144733000D01*
X187015003Y-144656718D01*
X187376250Y-144507085D01*
X187701364Y-144289851D01*
X187977851Y-144013364D01*
X188195085Y-143688250D01*
X188344718Y-143327003D01*
X188421000Y-142943505D01*
X188421000Y-142552495D01*
X188344718Y-142168997D01*
X188195085Y-141807750D01*
X187977851Y-141482636D01*
X187701364Y-141206149D01*
X187376250Y-140988915D01*
X187015003Y-140839282D01*
X186631505Y-140763000D01*
X186240495Y-140763000D01*
X185856997Y-140839282D01*
X185495750Y-140988915D01*
X185170636Y-141206149D01*
X184894149Y-141482636D01*
X184676915Y-141807750D01*
X184527282Y-142168997D01*
X184451000Y-142552495D01*
X94067725Y-142552495D01*
X94038514Y-139762833D01*
X103094887Y-139762833D01*
X103158917Y-140003697D01*
X103334256Y-140384546D01*
X103580525Y-140723870D01*
X103888261Y-141008630D01*
X104245638Y-141227882D01*
X104638922Y-141373200D01*
X105053000Y-141439000D01*
X106553000Y-141439000D01*
X106553000Y-139431000D01*
X106807000Y-139431000D01*
X106807000Y-141439000D01*
X108307000Y-141439000D01*
X108721078Y-141373200D01*
X109114362Y-141227882D01*
X109471739Y-141008630D01*
X109779475Y-140723870D01*
X110025744Y-140384546D01*
X110201083Y-140003697D01*
X110265113Y-139762833D01*
X110152165Y-139431000D01*
X106807000Y-139431000D01*
X106553000Y-139431000D01*
X103207835Y-139431000D01*
X103094887Y-139762833D01*
X94038514Y-139762833D01*
X94008840Y-136929000D01*
X98216928Y-136929000D01*
X98229188Y-137053482D01*
X98265498Y-137173180D01*
X98324463Y-137283494D01*
X98403815Y-137380185D01*
X98500506Y-137459537D01*
X98610820Y-137518502D01*
X98730518Y-137554812D01*
X98855000Y-137567072D01*
X99394250Y-137564000D01*
X99553000Y-137405250D01*
X99553000Y-136231000D01*
X99807000Y-136231000D01*
X99807000Y-137405250D01*
X99965750Y-137564000D01*
X100505000Y-137567072D01*
X100629482Y-137554812D01*
X100749180Y-137518502D01*
X100859494Y-137459537D01*
X100956185Y-137380185D01*
X101035537Y-137283494D01*
X101094502Y-137173180D01*
X101130812Y-137053482D01*
X101143072Y-136929000D01*
X101140000Y-136389750D01*
X100981250Y-136231000D01*
X99807000Y-136231000D01*
X99553000Y-136231000D01*
X98378750Y-136231000D01*
X98220000Y-136389750D01*
X98216928Y-136929000D01*
X94008840Y-136929000D01*
X93991563Y-135279000D01*
X98216928Y-135279000D01*
X98220000Y-135818250D01*
X98378750Y-135977000D01*
X99553000Y-135977000D01*
X99553000Y-134802750D01*
X99807000Y-134802750D01*
X99807000Y-135977000D01*
X100981250Y-135977000D01*
X101140000Y-135818250D01*
X101143072Y-135279000D01*
X101130812Y-135154518D01*
X101094502Y-135034820D01*
X101035537Y-134924506D01*
X100956185Y-134827815D01*
X100859494Y-134748463D01*
X100749180Y-134689498D01*
X100629482Y-134653188D01*
X100505000Y-134640928D01*
X99965750Y-134644000D01*
X99807000Y-134802750D01*
X99553000Y-134802750D01*
X99394250Y-134644000D01*
X98855000Y-134640928D01*
X98730518Y-134653188D01*
X98610820Y-134689498D01*
X98500506Y-134748463D01*
X98403815Y-134827815D01*
X98324463Y-134924506D01*
X98265498Y-135034820D01*
X98229188Y-135154518D01*
X98216928Y-135279000D01*
X93991563Y-135279000D01*
X93946340Y-130960203D01*
X98220000Y-130960203D01*
X98220000Y-131247797D01*
X98276107Y-131529866D01*
X98386165Y-131795569D01*
X98545944Y-132034696D01*
X98749304Y-132238056D01*
X98988431Y-132397835D01*
X99254134Y-132507893D01*
X99536203Y-132564000D01*
X99823797Y-132564000D01*
X100025148Y-132523949D01*
X104722687Y-137221489D01*
X104638922Y-137234800D01*
X104245638Y-137380118D01*
X103888261Y-137599370D01*
X103580525Y-137884130D01*
X103334256Y-138223454D01*
X103158917Y-138604303D01*
X103094887Y-138845167D01*
X103207835Y-139177000D01*
X106553000Y-139177000D01*
X106553000Y-139157000D01*
X106807000Y-139157000D01*
X106807000Y-139177000D01*
X110152165Y-139177000D01*
X110265113Y-138845167D01*
X110201083Y-138604303D01*
X110025744Y-138223454D01*
X109873731Y-138014001D01*
X115681940Y-138014001D01*
X117313178Y-139645240D01*
X117313178Y-141207490D01*
X117325438Y-141331972D01*
X117361748Y-141451670D01*
X117420713Y-141561984D01*
X117500065Y-141658675D01*
X117596756Y-141738027D01*
X117707070Y-141796992D01*
X117826768Y-141833302D01*
X117951250Y-141845562D01*
X119950230Y-141845562D01*
X120074712Y-141833302D01*
X120194410Y-141796992D01*
X120304724Y-141738027D01*
X120401415Y-141658675D01*
X120480767Y-141561984D01*
X120539732Y-141451670D01*
X120576042Y-141331972D01*
X120588302Y-141207490D01*
X120588302Y-139208510D01*
X127315698Y-139208510D01*
X127315698Y-141207490D01*
X127327958Y-141331972D01*
X127364268Y-141451670D01*
X127423233Y-141561984D01*
X127502585Y-141658675D01*
X127599276Y-141738027D01*
X127709590Y-141796992D01*
X127829288Y-141833302D01*
X127953770Y-141845562D01*
X129952750Y-141845562D01*
X130077232Y-141833302D01*
X130196930Y-141796992D01*
X130307244Y-141738027D01*
X130403935Y-141658675D01*
X130483287Y-141561984D01*
X130542252Y-141451670D01*
X130578562Y-141331972D01*
X130590822Y-141207490D01*
X130590822Y-139208510D01*
X130578562Y-139084028D01*
X130542252Y-138964330D01*
X130483287Y-138854016D01*
X130403935Y-138757325D01*
X130307244Y-138677973D01*
X130196930Y-138619008D01*
X130077232Y-138582698D01*
X129952750Y-138570438D01*
X127953770Y-138570438D01*
X127829288Y-138582698D01*
X127709590Y-138619008D01*
X127599276Y-138677973D01*
X127502585Y-138757325D01*
X127423233Y-138854016D01*
X127364268Y-138964330D01*
X127327958Y-139084028D01*
X127315698Y-139208510D01*
X120588302Y-139208510D01*
X120576042Y-139084028D01*
X120539732Y-138964330D01*
X120480767Y-138854016D01*
X120401415Y-138757325D01*
X120304724Y-138677973D01*
X120194410Y-138619008D01*
X120074712Y-138582698D01*
X119950230Y-138570438D01*
X118387980Y-138570438D01*
X116560545Y-136743004D01*
X116536742Y-136714000D01*
X116421017Y-136619027D01*
X116288988Y-136548455D01*
X116145727Y-136504998D01*
X116034074Y-136494001D01*
X116034063Y-136494001D01*
X115996741Y-136490325D01*
X115959419Y-136494001D01*
X115591027Y-136494001D01*
X115640000Y-136247797D01*
X115640000Y-135960203D01*
X115583893Y-135678134D01*
X115473835Y-135412431D01*
X115314056Y-135173304D01*
X115110696Y-134969944D01*
X114938258Y-134854725D01*
X115010946Y-134614551D01*
X114180000Y-133783605D01*
X113349054Y-134614551D01*
X113421742Y-134854725D01*
X113249304Y-134969944D01*
X113045944Y-135173304D01*
X112886165Y-135412431D01*
X112776107Y-135678134D01*
X112720000Y-135960203D01*
X112720000Y-136247797D01*
X112768973Y-136494001D01*
X106144803Y-136494001D01*
X103324323Y-133673521D01*
X112714583Y-133673521D01*
X112756303Y-133958074D01*
X112852735Y-134229020D01*
X112922927Y-134360337D01*
X113169449Y-134434946D01*
X114000395Y-133604000D01*
X114359605Y-133604000D01*
X115190551Y-134434946D01*
X115437073Y-134360337D01*
X115560473Y-134100561D01*
X115630823Y-133821703D01*
X115645417Y-133534479D01*
X115603697Y-133249926D01*
X115507265Y-132978980D01*
X115437073Y-132847663D01*
X115190551Y-132773054D01*
X114359605Y-133604000D01*
X114000395Y-133604000D01*
X113169449Y-132773054D01*
X112922927Y-132847663D01*
X112799527Y-133107439D01*
X112729177Y-133386297D01*
X112714583Y-133673521D01*
X103324323Y-133673521D01*
X101099949Y-131449148D01*
X101140000Y-131247797D01*
X101140000Y-130960203D01*
X112720000Y-130960203D01*
X112720000Y-131247797D01*
X112776107Y-131529866D01*
X112886165Y-131795569D01*
X113045944Y-132034696D01*
X113249304Y-132238056D01*
X113421742Y-132353275D01*
X113349054Y-132593449D01*
X114180000Y-133424395D01*
X115010946Y-132593449D01*
X114938258Y-132353275D01*
X115110696Y-132238056D01*
X115314056Y-132034696D01*
X115473835Y-131795569D01*
X115583893Y-131529866D01*
X115640000Y-131247797D01*
X115640000Y-130960203D01*
X115583893Y-130678134D01*
X115473835Y-130412431D01*
X115314056Y-130173304D01*
X115110696Y-129969944D01*
X114871569Y-129810165D01*
X114605866Y-129700107D01*
X114323797Y-129644000D01*
X114036203Y-129644000D01*
X113754134Y-129700107D01*
X113488431Y-129810165D01*
X113249304Y-129969944D01*
X113045944Y-130173304D01*
X112886165Y-130412431D01*
X112776107Y-130678134D01*
X112720000Y-130960203D01*
X101140000Y-130960203D01*
X101083893Y-130678134D01*
X100973835Y-130412431D01*
X100814056Y-130173304D01*
X100610696Y-129969944D01*
X100440000Y-129855889D01*
X100440000Y-128362833D01*
X103094887Y-128362833D01*
X103158917Y-128603697D01*
X103334256Y-128984546D01*
X103580525Y-129323870D01*
X103888261Y-129608630D01*
X104245638Y-129827882D01*
X104638922Y-129973200D01*
X105053000Y-130039000D01*
X106553000Y-130039000D01*
X106553000Y-128031000D01*
X106807000Y-128031000D01*
X106807000Y-130039000D01*
X108307000Y-130039000D01*
X108721078Y-129973200D01*
X109114362Y-129827882D01*
X109471739Y-129608630D01*
X109779475Y-129323870D01*
X110025744Y-128984546D01*
X110201083Y-128603697D01*
X110265113Y-128362833D01*
X110152165Y-128031000D01*
X106807000Y-128031000D01*
X106553000Y-128031000D01*
X103207835Y-128031000D01*
X103094887Y-128362833D01*
X100440000Y-128362833D01*
X100440000Y-127445167D01*
X103094887Y-127445167D01*
X103207835Y-127777000D01*
X106553000Y-127777000D01*
X106553000Y-125769000D01*
X106807000Y-125769000D01*
X106807000Y-127777000D01*
X110152165Y-127777000D01*
X110265113Y-127445167D01*
X110201083Y-127204303D01*
X110025744Y-126823454D01*
X109779475Y-126484130D01*
X109471739Y-126199370D01*
X109114362Y-125980118D01*
X108721078Y-125834800D01*
X108307000Y-125769000D01*
X106807000Y-125769000D01*
X106553000Y-125769000D01*
X105053000Y-125769000D01*
X104638922Y-125834800D01*
X104245638Y-125980118D01*
X103888261Y-126199370D01*
X103580525Y-126484130D01*
X103334256Y-126823454D01*
X103158917Y-127204303D01*
X103094887Y-127445167D01*
X100440000Y-127445167D01*
X100440000Y-123771429D01*
X143992000Y-123771429D01*
X143992000Y-124088571D01*
X144053871Y-124399620D01*
X144175237Y-124692621D01*
X144351431Y-124956315D01*
X144575685Y-125180569D01*
X144839379Y-125356763D01*
X145132380Y-125478129D01*
X145443429Y-125540000D01*
X145760571Y-125540000D01*
X146071620Y-125478129D01*
X146364621Y-125356763D01*
X146628315Y-125180569D01*
X146852569Y-124956315D01*
X147028763Y-124692621D01*
X147150129Y-124399620D01*
X147212000Y-124088571D01*
X147212000Y-123771429D01*
X147150129Y-123460380D01*
X147028763Y-123167379D01*
X146852569Y-122903685D01*
X146628315Y-122679431D01*
X146364621Y-122503237D01*
X146071620Y-122381871D01*
X145760571Y-122320000D01*
X145443429Y-122320000D01*
X145132380Y-122381871D01*
X144839379Y-122503237D01*
X144575685Y-122679431D01*
X144351431Y-122903685D01*
X144175237Y-123167379D01*
X144053871Y-123460380D01*
X143992000Y-123771429D01*
X100440000Y-123771429D01*
X100440000Y-116983399D01*
X110322764Y-107100635D01*
X111869000Y-107100635D01*
X111869000Y-107379365D01*
X111923377Y-107652740D01*
X112030043Y-107910254D01*
X112184897Y-108142010D01*
X112381990Y-108339103D01*
X112613746Y-108493957D01*
X112652477Y-108510000D01*
X112613746Y-108526043D01*
X112381990Y-108680897D01*
X112184897Y-108877990D01*
X112030043Y-109109746D01*
X111923377Y-109367260D01*
X111869000Y-109640635D01*
X111869000Y-109919365D01*
X111923377Y-110192740D01*
X112030043Y-110450254D01*
X112184897Y-110682010D01*
X112381990Y-110879103D01*
X112613746Y-111033957D01*
X112652477Y-111050000D01*
X112613746Y-111066043D01*
X112381990Y-111220897D01*
X112184897Y-111417990D01*
X112030043Y-111649746D01*
X111923377Y-111907260D01*
X111869000Y-112180635D01*
X111869000Y-112459365D01*
X111923377Y-112732740D01*
X112030043Y-112990254D01*
X112184897Y-113222010D01*
X112381990Y-113419103D01*
X112613746Y-113573957D01*
X112652477Y-113590000D01*
X112613746Y-113606043D01*
X112381990Y-113760897D01*
X112184897Y-113957990D01*
X112030043Y-114189746D01*
X111923377Y-114447260D01*
X111869000Y-114720635D01*
X111869000Y-114999365D01*
X111923377Y-115272740D01*
X112030043Y-115530254D01*
X112184897Y-115762010D01*
X112381990Y-115959103D01*
X112613746Y-116113957D01*
X112652477Y-116130000D01*
X112613746Y-116146043D01*
X112381990Y-116300897D01*
X112184897Y-116497990D01*
X112030043Y-116729746D01*
X111923377Y-116987260D01*
X111869000Y-117260635D01*
X111869000Y-117539365D01*
X111923377Y-117812740D01*
X112030043Y-118070254D01*
X112184897Y-118302010D01*
X112381990Y-118499103D01*
X112613746Y-118653957D01*
X112871260Y-118760623D01*
X113144635Y-118815000D01*
X113423365Y-118815000D01*
X113696740Y-118760623D01*
X113954254Y-118653957D01*
X114186010Y-118499103D01*
X114383103Y-118302010D01*
X114537957Y-118070254D01*
X114644623Y-117812740D01*
X114699000Y-117539365D01*
X114699000Y-117260635D01*
X114644623Y-116987260D01*
X114537957Y-116729746D01*
X114383103Y-116497990D01*
X114186010Y-116300897D01*
X113954254Y-116146043D01*
X113915523Y-116130000D01*
X113954254Y-116113957D01*
X114186010Y-115959103D01*
X114383103Y-115762010D01*
X114537957Y-115530254D01*
X114644623Y-115272740D01*
X114699000Y-114999365D01*
X114699000Y-114720635D01*
X114644623Y-114447260D01*
X114537957Y-114189746D01*
X114383103Y-113957990D01*
X114186010Y-113760897D01*
X113954254Y-113606043D01*
X113915523Y-113590000D01*
X113954254Y-113573957D01*
X114186010Y-113419103D01*
X114383103Y-113222010D01*
X114537957Y-112990254D01*
X114644623Y-112732740D01*
X114699000Y-112459365D01*
X114699000Y-112180635D01*
X114644623Y-111907260D01*
X114537957Y-111649746D01*
X114383103Y-111417990D01*
X114186010Y-111220897D01*
X113954254Y-111066043D01*
X113915523Y-111050000D01*
X113954254Y-111033957D01*
X114186010Y-110879103D01*
X114383103Y-110682010D01*
X114537957Y-110450254D01*
X114644623Y-110192740D01*
X114699000Y-109919365D01*
X114699000Y-109640635D01*
X114644623Y-109367260D01*
X114537957Y-109109746D01*
X114383103Y-108877990D01*
X114186010Y-108680897D01*
X113954254Y-108526043D01*
X113915523Y-108510000D01*
X113954254Y-108493957D01*
X114186010Y-108339103D01*
X114383103Y-108142010D01*
X114537957Y-107910254D01*
X114644623Y-107652740D01*
X114699000Y-107379365D01*
X114699000Y-107100635D01*
X114644623Y-106827260D01*
X114537957Y-106569746D01*
X114383103Y-106337990D01*
X114186010Y-106140897D01*
X113954254Y-105986043D01*
X113918475Y-105971223D01*
X114013655Y-105920349D01*
X114082816Y-105678421D01*
X113284000Y-104879605D01*
X112485184Y-105678421D01*
X112554345Y-105920349D01*
X112656279Y-105968425D01*
X112613746Y-105986043D01*
X112381990Y-106140897D01*
X112184897Y-106337990D01*
X112030043Y-106569746D01*
X111923377Y-106827260D01*
X111869000Y-107100635D01*
X110322764Y-107100635D01*
X112039301Y-105384099D01*
X112063651Y-105429655D01*
X112305579Y-105498816D01*
X113104395Y-104700000D01*
X113090253Y-104685858D01*
X113269858Y-104506253D01*
X113284000Y-104520395D01*
X113298143Y-104506253D01*
X113477748Y-104685858D01*
X113463605Y-104700000D01*
X114262421Y-105498816D01*
X114504349Y-105429655D01*
X114623248Y-105177557D01*
X114690681Y-104907106D01*
X114704057Y-104628697D01*
X114663155Y-104354999D01*
X129591679Y-104354999D01*
X129629001Y-104358675D01*
X129666323Y-104354999D01*
X129666334Y-104354999D01*
X129777987Y-104344002D01*
X129921248Y-104300545D01*
X130053277Y-104229973D01*
X130169002Y-104135000D01*
X130192805Y-104105996D01*
X137269000Y-97029803D01*
X137269000Y-97219365D01*
X137323377Y-97492740D01*
X137430043Y-97750254D01*
X137584897Y-97982010D01*
X137597500Y-97994613D01*
X137589799Y-98003997D01*
X137067997Y-98525800D01*
X137038999Y-98549598D01*
X137015201Y-98578596D01*
X137015200Y-98578597D01*
X136944025Y-98665323D01*
X136873453Y-98797353D01*
X136843179Y-98897157D01*
X136829997Y-98940613D01*
X136827469Y-98966276D01*
X136815323Y-99089599D01*
X136819000Y-99126931D01*
X136818999Y-102653078D01*
X136815323Y-102690401D01*
X136818999Y-102727723D01*
X136818999Y-102727733D01*
X136829996Y-102839386D01*
X136866591Y-102960025D01*
X136873453Y-102982647D01*
X136944025Y-103114677D01*
X136983870Y-103163227D01*
X137038998Y-103230402D01*
X137068001Y-103254204D01*
X137593935Y-103780139D01*
X137589233Y-103784841D01*
X137705577Y-103901185D01*
X137463651Y-103970345D01*
X137344752Y-104222443D01*
X137277319Y-104492894D01*
X137263943Y-104771303D01*
X137305140Y-105046972D01*
X137399325Y-105309308D01*
X137463651Y-105429655D01*
X137705579Y-105498816D01*
X138504395Y-104700000D01*
X138490253Y-104685858D01*
X138669858Y-104506253D01*
X138684000Y-104520395D01*
X138698143Y-104506253D01*
X138877748Y-104685858D01*
X138863605Y-104700000D01*
X138877748Y-104714143D01*
X138698143Y-104893748D01*
X138684000Y-104879605D01*
X137885184Y-105678421D01*
X137954345Y-105920349D01*
X138056279Y-105968425D01*
X138013746Y-105986043D01*
X137781990Y-106140897D01*
X137584897Y-106337990D01*
X137430043Y-106569746D01*
X137323377Y-106827260D01*
X137269000Y-107100635D01*
X137269000Y-107379365D01*
X137323377Y-107652740D01*
X137430043Y-107910254D01*
X137584897Y-108142010D01*
X137781990Y-108339103D01*
X138013746Y-108493957D01*
X138052477Y-108510000D01*
X138013746Y-108526043D01*
X137781990Y-108680897D01*
X137584897Y-108877990D01*
X137430043Y-109109746D01*
X137323377Y-109367260D01*
X137269000Y-109640635D01*
X137269000Y-109919365D01*
X137323377Y-110192740D01*
X137430043Y-110450254D01*
X137584897Y-110682010D01*
X137781990Y-110879103D01*
X138013746Y-111033957D01*
X138052477Y-111050000D01*
X138013746Y-111066043D01*
X137781990Y-111220897D01*
X137584897Y-111417990D01*
X137430043Y-111649746D01*
X137323377Y-111907260D01*
X137269000Y-112180635D01*
X137269000Y-112459365D01*
X137323377Y-112732740D01*
X137430043Y-112990254D01*
X137584897Y-113222010D01*
X137781990Y-113419103D01*
X138013746Y-113573957D01*
X138052477Y-113590000D01*
X138013746Y-113606043D01*
X137781990Y-113760897D01*
X137584897Y-113957990D01*
X137430043Y-114189746D01*
X137323377Y-114447260D01*
X137269000Y-114720635D01*
X137269000Y-114999365D01*
X137323377Y-115272740D01*
X137430043Y-115530254D01*
X137584897Y-115762010D01*
X137781990Y-115959103D01*
X138013746Y-116113957D01*
X138052477Y-116130000D01*
X138013746Y-116146043D01*
X137781990Y-116300897D01*
X137584897Y-116497990D01*
X137430043Y-116729746D01*
X137323377Y-116987260D01*
X137269000Y-117260635D01*
X137269000Y-117539365D01*
X137323377Y-117812740D01*
X137430043Y-118070254D01*
X137584897Y-118302010D01*
X137781990Y-118499103D01*
X138013746Y-118653957D01*
X138271260Y-118760623D01*
X138544635Y-118815000D01*
X138823365Y-118815000D01*
X139096740Y-118760623D01*
X139167220Y-118731429D01*
X143992000Y-118731429D01*
X143992000Y-119048571D01*
X144053871Y-119359620D01*
X144175237Y-119652621D01*
X144351431Y-119916315D01*
X144575685Y-120140569D01*
X144839379Y-120316763D01*
X145132380Y-120438129D01*
X145443429Y-120500000D01*
X145760571Y-120500000D01*
X146071620Y-120438129D01*
X146364621Y-120316763D01*
X146628315Y-120140569D01*
X146852569Y-119916315D01*
X147028763Y-119652621D01*
X147150129Y-119359620D01*
X147212000Y-119048571D01*
X147212000Y-118731429D01*
X147150129Y-118420380D01*
X147028763Y-118127379D01*
X146852569Y-117863685D01*
X146628315Y-117639431D01*
X146364621Y-117463237D01*
X146071620Y-117341871D01*
X145760571Y-117280000D01*
X145443429Y-117280000D01*
X145132380Y-117341871D01*
X144839379Y-117463237D01*
X144575685Y-117639431D01*
X144351431Y-117863685D01*
X144175237Y-118127379D01*
X144053871Y-118420380D01*
X143992000Y-118731429D01*
X139167220Y-118731429D01*
X139354254Y-118653957D01*
X139586010Y-118499103D01*
X139783103Y-118302010D01*
X139937957Y-118070254D01*
X140044623Y-117812740D01*
X140099000Y-117539365D01*
X140099000Y-117260635D01*
X140044623Y-116987260D01*
X139937957Y-116729746D01*
X139783103Y-116497990D01*
X139586010Y-116300897D01*
X139354254Y-116146043D01*
X139315523Y-116130000D01*
X139354254Y-116113957D01*
X139586010Y-115959103D01*
X139783103Y-115762010D01*
X139937957Y-115530254D01*
X140044623Y-115272740D01*
X140099000Y-114999365D01*
X140099000Y-114720635D01*
X140044623Y-114447260D01*
X139937957Y-114189746D01*
X139783103Y-113957990D01*
X139586010Y-113760897D01*
X139354254Y-113606043D01*
X139315523Y-113590000D01*
X139354254Y-113573957D01*
X139586010Y-113419103D01*
X139783103Y-113222010D01*
X139937957Y-112990254D01*
X140044623Y-112732740D01*
X140099000Y-112459365D01*
X140099000Y-112180635D01*
X140044623Y-111907260D01*
X139937957Y-111649746D01*
X139783103Y-111417990D01*
X139586010Y-111220897D01*
X139354254Y-111066043D01*
X139315523Y-111050000D01*
X139354254Y-111033957D01*
X139586010Y-110879103D01*
X139783103Y-110682010D01*
X139937957Y-110450254D01*
X140044623Y-110192740D01*
X140099000Y-109919365D01*
X140099000Y-109640635D01*
X140044623Y-109367260D01*
X139937957Y-109109746D01*
X139783103Y-108877990D01*
X139586010Y-108680897D01*
X139354254Y-108526043D01*
X139315523Y-108510000D01*
X139354254Y-108493957D01*
X139586010Y-108339103D01*
X139783103Y-108142010D01*
X139937957Y-107910254D01*
X140044623Y-107652740D01*
X140099000Y-107379365D01*
X140099000Y-107100635D01*
X140065680Y-106933122D01*
X140300010Y-106698793D01*
X140329002Y-106675000D01*
X140352796Y-106646007D01*
X140352800Y-106646003D01*
X140423974Y-106559276D01*
X140423975Y-106559275D01*
X140494547Y-106427246D01*
X140538004Y-106283985D01*
X140549001Y-106172332D01*
X140549001Y-106172323D01*
X140552677Y-106135000D01*
X140549001Y-106097677D01*
X140549001Y-104206921D01*
X140552677Y-104169598D01*
X140549001Y-104132275D01*
X140549001Y-104132266D01*
X140538004Y-104020613D01*
X140494547Y-103877352D01*
X140425954Y-103749025D01*
X140423975Y-103745322D01*
X140352800Y-103658596D01*
X140329002Y-103629598D01*
X140300003Y-103605799D01*
X139778204Y-103084001D01*
X139770500Y-103074613D01*
X139783103Y-103062010D01*
X139937957Y-102830254D01*
X140044623Y-102572740D01*
X140099000Y-102299365D01*
X140099000Y-102020635D01*
X140044623Y-101747260D01*
X139937957Y-101489746D01*
X139783103Y-101257990D01*
X139586010Y-101060897D01*
X139354254Y-100906043D01*
X139315523Y-100890000D01*
X139354254Y-100873957D01*
X139586010Y-100719103D01*
X139783103Y-100522010D01*
X139937957Y-100290254D01*
X140044623Y-100032740D01*
X140099000Y-99759365D01*
X140099000Y-99480635D01*
X140065680Y-99313122D01*
X140750015Y-98628787D01*
X140779012Y-98604990D01*
X140873985Y-98489265D01*
X140915840Y-98410961D01*
X146815004Y-92511798D01*
X146844001Y-92488001D01*
X146938974Y-92372276D01*
X147009546Y-92240247D01*
X147053003Y-92096986D01*
X147064000Y-91985333D01*
X147064000Y-91985325D01*
X147067676Y-91948000D01*
X147064000Y-91910675D01*
X147064000Y-76006801D01*
X151346430Y-71724372D01*
X151500408Y-71755000D01*
X151775592Y-71755000D01*
X151965002Y-71717324D01*
X151965002Y-72427434D01*
X149593002Y-74799435D01*
X149563998Y-74823238D01*
X149522174Y-74874201D01*
X149469025Y-74938963D01*
X149429064Y-75013724D01*
X149398453Y-75070993D01*
X149354996Y-75214254D01*
X149343999Y-75325907D01*
X149343999Y-75325917D01*
X149340323Y-75363239D01*
X149343999Y-75400561D01*
X149344000Y-104346666D01*
X149340323Y-104383999D01*
X149354997Y-104532984D01*
X149398453Y-104676245D01*
X149469025Y-104808275D01*
X149527565Y-104879605D01*
X149563999Y-104924000D01*
X149592997Y-104947798D01*
X160458928Y-115813730D01*
X160458928Y-117287000D01*
X160471188Y-117411482D01*
X160507498Y-117531180D01*
X160566463Y-117641494D01*
X160645815Y-117738185D01*
X160742506Y-117817537D01*
X160852820Y-117876502D01*
X160972518Y-117912812D01*
X161097000Y-117925072D01*
X161934126Y-117925072D01*
X156689199Y-123170000D01*
X154529849Y-123170000D01*
X154528763Y-123167379D01*
X154352569Y-122903685D01*
X154128315Y-122679431D01*
X153864621Y-122503237D01*
X153571620Y-122381871D01*
X153315814Y-122330988D01*
X153613004Y-122033798D01*
X153642001Y-122010001D01*
X153736974Y-121894276D01*
X153807546Y-121762247D01*
X153851003Y-121618986D01*
X153862000Y-121507333D01*
X153862000Y-121507325D01*
X153865676Y-121470000D01*
X153862000Y-121432675D01*
X153862000Y-120317849D01*
X153864621Y-120316763D01*
X154128315Y-120140569D01*
X154352569Y-119916315D01*
X154528763Y-119652621D01*
X154650129Y-119359620D01*
X154712000Y-119048571D01*
X154712000Y-118731429D01*
X154650129Y-118420380D01*
X154528763Y-118127379D01*
X154352569Y-117863685D01*
X154128315Y-117639431D01*
X153864621Y-117463237D01*
X153571620Y-117341871D01*
X153260571Y-117280000D01*
X152943429Y-117280000D01*
X152632380Y-117341871D01*
X152339379Y-117463237D01*
X152075685Y-117639431D01*
X151851431Y-117863685D01*
X151675237Y-118127379D01*
X151553871Y-118420380D01*
X151492000Y-118731429D01*
X151492000Y-119048571D01*
X151553871Y-119359620D01*
X151675237Y-119652621D01*
X151851431Y-119916315D01*
X152075685Y-120140569D01*
X152339379Y-120316763D01*
X152342000Y-120317849D01*
X152342000Y-121155198D01*
X146074242Y-127422957D01*
X146071620Y-127421871D01*
X145760571Y-127360000D01*
X145443429Y-127360000D01*
X145132380Y-127421871D01*
X144839379Y-127543237D01*
X144575685Y-127719431D01*
X144351431Y-127943685D01*
X144175237Y-128207379D01*
X144053871Y-128500380D01*
X143992000Y-128811429D01*
X143992000Y-129128571D01*
X144053871Y-129439620D01*
X144175237Y-129732621D01*
X144351431Y-129996315D01*
X144575685Y-130220569D01*
X144839379Y-130396763D01*
X145132380Y-130518129D01*
X145443429Y-130580000D01*
X145760571Y-130580000D01*
X146071620Y-130518129D01*
X146074242Y-130517043D01*
X155260201Y-139703003D01*
X155283999Y-139732001D01*
X155312997Y-139755799D01*
X155399723Y-139826974D01*
X155531753Y-139897546D01*
X155675014Y-139941003D01*
X155786667Y-139952000D01*
X155786676Y-139952000D01*
X155823999Y-139955676D01*
X155861322Y-139952000D01*
X161523000Y-139952000D01*
X161523000Y-140261823D01*
X161546513Y-140500555D01*
X161639432Y-140806868D01*
X161790325Y-141089169D01*
X161993392Y-141336608D01*
X162240830Y-141539675D01*
X162523131Y-141690568D01*
X162829444Y-141783487D01*
X163148000Y-141814862D01*
X163466555Y-141783487D01*
X163772868Y-141690568D01*
X164055169Y-141539675D01*
X164302608Y-141336608D01*
X164505675Y-141089170D01*
X164656568Y-140806869D01*
X164749487Y-140500556D01*
X164773000Y-140261824D01*
X164773000Y-138122176D01*
X164749487Y-137883444D01*
X164656568Y-137577131D01*
X164505675Y-137294830D01*
X164302608Y-137047392D01*
X164055170Y-136844325D01*
X163772869Y-136693432D01*
X163466556Y-136600513D01*
X163148000Y-136569138D01*
X162829445Y-136600513D01*
X162523132Y-136693432D01*
X162240831Y-136844325D01*
X161993393Y-137047392D01*
X161790326Y-137294830D01*
X161639433Y-137577131D01*
X161546514Y-137883444D01*
X161523001Y-138122176D01*
X161523001Y-138432000D01*
X156138802Y-138432000D01*
X147149043Y-129442242D01*
X147150129Y-129439620D01*
X147212000Y-129128571D01*
X147212000Y-128811429D01*
X151492000Y-128811429D01*
X151492000Y-129128571D01*
X151553871Y-129439620D01*
X151675237Y-129732621D01*
X151851431Y-129996315D01*
X152075685Y-130220569D01*
X152339379Y-130396763D01*
X152632380Y-130518129D01*
X152943429Y-130580000D01*
X153260571Y-130580000D01*
X153571620Y-130518129D01*
X153864621Y-130396763D01*
X154128315Y-130220569D01*
X154352569Y-129996315D01*
X154528763Y-129732621D01*
X154529849Y-129730000D01*
X157611199Y-129730000D01*
X166519928Y-138638730D01*
X166519928Y-141172000D01*
X166532188Y-141296482D01*
X166568498Y-141416180D01*
X166627463Y-141526494D01*
X166706815Y-141623185D01*
X166803506Y-141702537D01*
X166913820Y-141761502D01*
X167033518Y-141797812D01*
X167158000Y-141810072D01*
X169138000Y-141810072D01*
X169262482Y-141797812D01*
X169382180Y-141761502D01*
X169492494Y-141702537D01*
X169589185Y-141623185D01*
X169668537Y-141526494D01*
X169727502Y-141416180D01*
X169763812Y-141296482D01*
X169776072Y-141172000D01*
X169776072Y-139146729D01*
X179462801Y-129460000D01*
X180765138Y-129460000D01*
X180796513Y-129778556D01*
X180889432Y-130084869D01*
X181040325Y-130367170D01*
X181243392Y-130614608D01*
X181490830Y-130817675D01*
X181773131Y-130968568D01*
X182079444Y-131061487D01*
X182318176Y-131085000D01*
X184457824Y-131085000D01*
X184696556Y-131061487D01*
X185002869Y-130968568D01*
X185285170Y-130817675D01*
X185532608Y-130614608D01*
X185735675Y-130367170D01*
X185886568Y-130084869D01*
X185979487Y-129778556D01*
X186010862Y-129460000D01*
X185979487Y-129141444D01*
X185886568Y-128835131D01*
X185735675Y-128552830D01*
X185532608Y-128305392D01*
X185285170Y-128102325D01*
X185002869Y-127951432D01*
X184696556Y-127858513D01*
X184457824Y-127835000D01*
X182318176Y-127835000D01*
X182079444Y-127858513D01*
X181773131Y-127951432D01*
X181490830Y-128102325D01*
X181243392Y-128305392D01*
X181040325Y-128552830D01*
X180889432Y-128835131D01*
X180796513Y-129141444D01*
X180765138Y-129460000D01*
X179462801Y-129460000D01*
X182837802Y-126085000D01*
X184457824Y-126085000D01*
X184696556Y-126061487D01*
X185002869Y-125968568D01*
X185285170Y-125817675D01*
X185532608Y-125614608D01*
X185735675Y-125367170D01*
X185886568Y-125084869D01*
X185979487Y-124778556D01*
X186010862Y-124460000D01*
X185979487Y-124141444D01*
X185886568Y-123835131D01*
X185735675Y-123552830D01*
X185532608Y-123305392D01*
X185285170Y-123102325D01*
X185002869Y-122951432D01*
X184696556Y-122858513D01*
X184457824Y-122835000D01*
X182318176Y-122835000D01*
X182079444Y-122858513D01*
X181773131Y-122951432D01*
X181490830Y-123102325D01*
X181243392Y-123305392D01*
X181040325Y-123552830D01*
X180889432Y-123835131D01*
X180796513Y-124141444D01*
X180765138Y-124460000D01*
X180796513Y-124778556D01*
X180889432Y-125084869D01*
X181040325Y-125367170D01*
X181205167Y-125568031D01*
X169745627Y-137027571D01*
X169727502Y-136967820D01*
X169668537Y-136857506D01*
X169589185Y-136760815D01*
X169492494Y-136681463D01*
X169382180Y-136622498D01*
X169262482Y-136586188D01*
X169138000Y-136573928D01*
X167158000Y-136573928D01*
X167033518Y-136586188D01*
X166913820Y-136622498D01*
X166803506Y-136681463D01*
X166753392Y-136722590D01*
X158489804Y-128459003D01*
X158466001Y-128429999D01*
X158350276Y-128335026D01*
X158218247Y-128264454D01*
X158074986Y-128220997D01*
X157963333Y-128210000D01*
X157963322Y-128210000D01*
X157926000Y-128206324D01*
X157888678Y-128210000D01*
X154529849Y-128210000D01*
X154528763Y-128207379D01*
X154352569Y-127943685D01*
X154128315Y-127719431D01*
X153864621Y-127543237D01*
X153571620Y-127421871D01*
X153260571Y-127360000D01*
X152943429Y-127360000D01*
X152632380Y-127421871D01*
X152339379Y-127543237D01*
X152075685Y-127719431D01*
X151851431Y-127943685D01*
X151675237Y-128207379D01*
X151553871Y-128500380D01*
X151492000Y-128811429D01*
X147212000Y-128811429D01*
X147150129Y-128500380D01*
X147149043Y-128497758D01*
X151502988Y-124143813D01*
X151553871Y-124399620D01*
X151675237Y-124692621D01*
X151851431Y-124956315D01*
X152075685Y-125180569D01*
X152339379Y-125356763D01*
X152632380Y-125478129D01*
X152943429Y-125540000D01*
X153260571Y-125540000D01*
X153571620Y-125478129D01*
X153864621Y-125356763D01*
X154128315Y-125180569D01*
X154352569Y-124956315D01*
X154528763Y-124692621D01*
X154529849Y-124690000D01*
X156966678Y-124690000D01*
X157004000Y-124693676D01*
X157041322Y-124690000D01*
X157041333Y-124690000D01*
X157152986Y-124679003D01*
X157296247Y-124635546D01*
X157428276Y-124564974D01*
X157544001Y-124470001D01*
X157567804Y-124440997D01*
X164146297Y-117862505D01*
X164445399Y-117922000D01*
X164758601Y-117922000D01*
X165065786Y-117860897D01*
X165355147Y-117741039D01*
X165615566Y-117567033D01*
X165747280Y-117435319D01*
X166228287Y-117435319D01*
X166318617Y-117695119D01*
X166600561Y-117831512D01*
X166903697Y-117910280D01*
X167216375Y-117928395D01*
X167526579Y-117885162D01*
X167822389Y-117782241D01*
X167985383Y-117695119D01*
X168075713Y-117435319D01*
X167152000Y-116511605D01*
X166228287Y-117435319D01*
X165747280Y-117435319D01*
X165837033Y-117345566D01*
X165925653Y-117212937D01*
X166048681Y-117255713D01*
X166972395Y-116332000D01*
X167331605Y-116332000D01*
X168255319Y-117255713D01*
X168515119Y-117165383D01*
X168651512Y-116883439D01*
X168730280Y-116580303D01*
X168748395Y-116267625D01*
X168705162Y-115957421D01*
X168602241Y-115661611D01*
X168515119Y-115498617D01*
X168255319Y-115408287D01*
X167331605Y-116332000D01*
X166972395Y-116332000D01*
X166048681Y-115408287D01*
X165925653Y-115451063D01*
X165837033Y-115318434D01*
X165747280Y-115228681D01*
X166228287Y-115228681D01*
X167152000Y-116152395D01*
X168075713Y-115228681D01*
X167985383Y-114968881D01*
X167703439Y-114832488D01*
X167400303Y-114753720D01*
X167087625Y-114735605D01*
X166777421Y-114778838D01*
X166481611Y-114881759D01*
X166318617Y-114968881D01*
X166228287Y-115228681D01*
X165747280Y-115228681D01*
X165615566Y-115096967D01*
X165355147Y-114922961D01*
X165065786Y-114803103D01*
X164758601Y-114742000D01*
X164445399Y-114742000D01*
X164138214Y-114803103D01*
X163848853Y-114922961D01*
X163588434Y-115096967D01*
X163581203Y-115104198D01*
X163537537Y-115022506D01*
X163458185Y-114925815D01*
X163361494Y-114846463D01*
X163251180Y-114787498D01*
X163131482Y-114751188D01*
X163007000Y-114738928D01*
X161533730Y-114738928D01*
X151930238Y-105135437D01*
X152054389Y-105092241D01*
X152217383Y-105005119D01*
X152307713Y-104745319D01*
X151384000Y-103821605D01*
X151369858Y-103835748D01*
X151190253Y-103656143D01*
X151204395Y-103642000D01*
X151190253Y-103627858D01*
X151369858Y-103448252D01*
X151384000Y-103462395D01*
X151398143Y-103448253D01*
X151577748Y-103627858D01*
X151563605Y-103642000D01*
X152487319Y-104565713D01*
X152747119Y-104475383D01*
X152883512Y-104193439D01*
X152962280Y-103890303D01*
X152970233Y-103753034D01*
X160820201Y-111603003D01*
X160843999Y-111632001D01*
X160872997Y-111655799D01*
X160959724Y-111726974D01*
X161091753Y-111797546D01*
X161235014Y-111841003D01*
X161384000Y-111855677D01*
X161421333Y-111852000D01*
X180961661Y-111852000D01*
X181040325Y-111999170D01*
X181243392Y-112246608D01*
X181490830Y-112449675D01*
X181773131Y-112600568D01*
X182079444Y-112693487D01*
X182318176Y-112717000D01*
X184457824Y-112717000D01*
X184696556Y-112693487D01*
X185002869Y-112600568D01*
X185285170Y-112449675D01*
X185532608Y-112246608D01*
X185735675Y-111999170D01*
X185886568Y-111716869D01*
X185979487Y-111410556D01*
X186010862Y-111092000D01*
X185979487Y-110773444D01*
X185886568Y-110467131D01*
X185735675Y-110184830D01*
X185532608Y-109937392D01*
X185285170Y-109734325D01*
X185002869Y-109583432D01*
X184696556Y-109490513D01*
X184457824Y-109467000D01*
X182318176Y-109467000D01*
X182079444Y-109490513D01*
X181773131Y-109583432D01*
X181490830Y-109734325D01*
X181243392Y-109937392D01*
X181040325Y-110184830D01*
X180961661Y-110332000D01*
X161698802Y-110332000D01*
X157458802Y-106092000D01*
X180765138Y-106092000D01*
X180796513Y-106410556D01*
X180889432Y-106716869D01*
X181040325Y-106999170D01*
X181243392Y-107246608D01*
X181490830Y-107449675D01*
X181773131Y-107600568D01*
X182079444Y-107693487D01*
X182318176Y-107717000D01*
X184457824Y-107717000D01*
X184696556Y-107693487D01*
X185002869Y-107600568D01*
X185285170Y-107449675D01*
X185532608Y-107246608D01*
X185735675Y-106999170D01*
X185886568Y-106716869D01*
X185979487Y-106410556D01*
X186010862Y-106092000D01*
X185979487Y-105773444D01*
X185886568Y-105467131D01*
X185735675Y-105184830D01*
X185532608Y-104937392D01*
X185285170Y-104734325D01*
X185002869Y-104583432D01*
X184696556Y-104490513D01*
X184457824Y-104467000D01*
X182318176Y-104467000D01*
X182079444Y-104490513D01*
X181773131Y-104583432D01*
X181490830Y-104734325D01*
X181243392Y-104937392D01*
X181040325Y-105184830D01*
X180889432Y-105467131D01*
X180796513Y-105773444D01*
X180765138Y-106092000D01*
X157458802Y-106092000D01*
X156112121Y-104745319D01*
X158588287Y-104745319D01*
X158678617Y-105005119D01*
X158960561Y-105141512D01*
X159263697Y-105220280D01*
X159576375Y-105238395D01*
X159886579Y-105195162D01*
X160182389Y-105092241D01*
X160345383Y-105005119D01*
X160435713Y-104745319D01*
X159512000Y-103821605D01*
X158588287Y-104745319D01*
X156112121Y-104745319D01*
X155073177Y-103706375D01*
X157915605Y-103706375D01*
X157958838Y-104016579D01*
X158061759Y-104312389D01*
X158148881Y-104475383D01*
X158408681Y-104565713D01*
X159332395Y-103642000D01*
X159691605Y-103642000D01*
X160615319Y-104565713D01*
X160875119Y-104475383D01*
X161011512Y-104193439D01*
X161090280Y-103890303D01*
X161108395Y-103577625D01*
X161065162Y-103267421D01*
X160962241Y-102971611D01*
X160875119Y-102808617D01*
X160615319Y-102718287D01*
X159691605Y-103642000D01*
X159332395Y-103642000D01*
X158408681Y-102718287D01*
X158148881Y-102808617D01*
X158012488Y-103090561D01*
X157933720Y-103393697D01*
X157915605Y-103706375D01*
X155073177Y-103706375D01*
X152914505Y-101547704D01*
X152974000Y-101248601D01*
X152974000Y-100935399D01*
X152912897Y-100628214D01*
X152793039Y-100338853D01*
X152619033Y-100078434D01*
X152611802Y-100071203D01*
X152693494Y-100027537D01*
X152790185Y-99948185D01*
X152869537Y-99851494D01*
X152928502Y-99741180D01*
X152964812Y-99621482D01*
X152977072Y-99497000D01*
X152977072Y-98023729D01*
X153413801Y-97587000D01*
X157918928Y-97587000D01*
X157918928Y-99497000D01*
X157931188Y-99621482D01*
X157967498Y-99741180D01*
X158026463Y-99851494D01*
X158105815Y-99948185D01*
X158202506Y-100027537D01*
X158284198Y-100071203D01*
X158276967Y-100078434D01*
X158102961Y-100338853D01*
X157983103Y-100628214D01*
X157922000Y-100935399D01*
X157922000Y-101248601D01*
X157983103Y-101555786D01*
X158102961Y-101845147D01*
X158276967Y-102105566D01*
X158498434Y-102327033D01*
X158631063Y-102415653D01*
X158588287Y-102538681D01*
X159512000Y-103462395D01*
X160435713Y-102538681D01*
X160392937Y-102415653D01*
X160525566Y-102327033D01*
X160747033Y-102105566D01*
X160921039Y-101845147D01*
X161040897Y-101555786D01*
X161102000Y-101248601D01*
X161102000Y-100935399D01*
X161040897Y-100628214D01*
X160921039Y-100338853D01*
X160747033Y-100078434D01*
X160739802Y-100071203D01*
X160821494Y-100027537D01*
X160918185Y-99948185D01*
X160997537Y-99851494D01*
X161056502Y-99741180D01*
X161092812Y-99621482D01*
X161105072Y-99497000D01*
X161105072Y-97587000D01*
X161092812Y-97462518D01*
X161056502Y-97342820D01*
X160997537Y-97232506D01*
X160918185Y-97135815D01*
X160821494Y-97056463D01*
X160711180Y-96997498D01*
X160591482Y-96961188D01*
X160467000Y-96948928D01*
X158557000Y-96948928D01*
X158432518Y-96961188D01*
X158312820Y-96997498D01*
X158202506Y-97056463D01*
X158105815Y-97135815D01*
X158026463Y-97232506D01*
X157967498Y-97342820D01*
X157931188Y-97462518D01*
X157918928Y-97587000D01*
X153413801Y-97587000D01*
X155393012Y-95607790D01*
X155422010Y-95583992D01*
X155516983Y-95468267D01*
X155587555Y-95336238D01*
X155631012Y-95192977D01*
X155642009Y-95081324D01*
X155642009Y-95081316D01*
X155645685Y-95043991D01*
X155642009Y-95006666D01*
X155642009Y-90032408D01*
X168021000Y-90032408D01*
X168021000Y-90307592D01*
X168074686Y-90577490D01*
X168179995Y-90831727D01*
X168332880Y-91060535D01*
X168527465Y-91255120D01*
X168756273Y-91408005D01*
X169010510Y-91513314D01*
X169280408Y-91567000D01*
X169555592Y-91567000D01*
X169825490Y-91513314D01*
X170079727Y-91408005D01*
X170308535Y-91255120D01*
X170503120Y-91060535D01*
X170656005Y-90831727D01*
X170761314Y-90577490D01*
X170815000Y-90307592D01*
X170815000Y-90032408D01*
X170761314Y-89762510D01*
X170656005Y-89508273D01*
X170503120Y-89279465D01*
X170308535Y-89084880D01*
X170079727Y-88931995D01*
X169825490Y-88826686D01*
X169555592Y-88773000D01*
X169280408Y-88773000D01*
X169010510Y-88826686D01*
X168756273Y-88931995D01*
X168527465Y-89084880D01*
X168332880Y-89279465D01*
X168179995Y-89508273D01*
X168074686Y-89762510D01*
X168021000Y-90032408D01*
X155642009Y-90032408D01*
X155642009Y-82412408D01*
X168021000Y-82412408D01*
X168021000Y-82687592D01*
X168074686Y-82957490D01*
X168179995Y-83211727D01*
X168332880Y-83440535D01*
X168527465Y-83635120D01*
X168756273Y-83788005D01*
X169010510Y-83893314D01*
X169280408Y-83947000D01*
X169555592Y-83947000D01*
X169825490Y-83893314D01*
X170079727Y-83788005D01*
X170308535Y-83635120D01*
X170503120Y-83440535D01*
X170656005Y-83211727D01*
X170761314Y-82957490D01*
X170815000Y-82687592D01*
X170815000Y-82412408D01*
X170761314Y-82142510D01*
X170656005Y-81888273D01*
X170503120Y-81659465D01*
X170308535Y-81464880D01*
X170079727Y-81311995D01*
X169825490Y-81206686D01*
X169555592Y-81153000D01*
X169280408Y-81153000D01*
X169010510Y-81206686D01*
X168756273Y-81311995D01*
X168527465Y-81464880D01*
X168332880Y-81659465D01*
X168179995Y-81888273D01*
X168074686Y-82142510D01*
X168021000Y-82412408D01*
X155642009Y-82412408D01*
X155642009Y-75300408D01*
X168021000Y-75300408D01*
X168021000Y-75575592D01*
X168074686Y-75845490D01*
X168179995Y-76099727D01*
X168332880Y-76328535D01*
X168527465Y-76523120D01*
X168756273Y-76676005D01*
X169010510Y-76781314D01*
X169280408Y-76835000D01*
X169555592Y-76835000D01*
X169825490Y-76781314D01*
X170079727Y-76676005D01*
X170308535Y-76523120D01*
X170503120Y-76328535D01*
X170656005Y-76099727D01*
X170761314Y-75845490D01*
X170815000Y-75575592D01*
X170815000Y-75300408D01*
X170761314Y-75030510D01*
X170656005Y-74776273D01*
X170503120Y-74547465D01*
X170308535Y-74352880D01*
X170079727Y-74199995D01*
X169825490Y-74094686D01*
X169555592Y-74041000D01*
X169280408Y-74041000D01*
X169010510Y-74094686D01*
X168756273Y-74199995D01*
X168527465Y-74352880D01*
X168332880Y-74547465D01*
X168179995Y-74776273D01*
X168074686Y-75030510D01*
X168021000Y-75300408D01*
X155642009Y-75300408D01*
X155642009Y-72318882D01*
X155645546Y-72312265D01*
X155689003Y-72169004D01*
X155700000Y-72057351D01*
X155700000Y-72057343D01*
X155703676Y-72020018D01*
X155700000Y-71982693D01*
X155700000Y-67680408D01*
X168021000Y-67680408D01*
X168021000Y-67955592D01*
X168074686Y-68225490D01*
X168179995Y-68479727D01*
X168332880Y-68708535D01*
X168527465Y-68903120D01*
X168756273Y-69056005D01*
X169010510Y-69161314D01*
X169280408Y-69215000D01*
X169555592Y-69215000D01*
X169825490Y-69161314D01*
X170079727Y-69056005D01*
X170308535Y-68903120D01*
X170503120Y-68708535D01*
X170656005Y-68479727D01*
X170761314Y-68225490D01*
X170815000Y-67955592D01*
X170815000Y-67680408D01*
X170761314Y-67410510D01*
X170656005Y-67156273D01*
X170503120Y-66927465D01*
X170308535Y-66732880D01*
X170079727Y-66579995D01*
X169825490Y-66474686D01*
X169555592Y-66421000D01*
X169280408Y-66421000D01*
X169010510Y-66474686D01*
X168756273Y-66579995D01*
X168527465Y-66732880D01*
X168332880Y-66927465D01*
X168179995Y-67156273D01*
X168074686Y-67410510D01*
X168021000Y-67680408D01*
X155700000Y-67680408D01*
X155700000Y-60997322D01*
X155703676Y-60959999D01*
X155700000Y-60922676D01*
X155700000Y-60922667D01*
X155689003Y-60811014D01*
X155645546Y-60667753D01*
X155574974Y-60535724D01*
X155480001Y-60419999D01*
X155451004Y-60396202D01*
X153654803Y-58600002D01*
X153631000Y-58570998D01*
X153515275Y-58476025D01*
X153383246Y-58405453D01*
X153239985Y-58361996D01*
X153128332Y-58350999D01*
X153128321Y-58350999D01*
X153090999Y-58347323D01*
X153053677Y-58350999D01*
X140570326Y-58350999D01*
X140533001Y-58347323D01*
X140495676Y-58350999D01*
X140495668Y-58350999D01*
X140384015Y-58361996D01*
X140240754Y-58405453D01*
X140108725Y-58476025D01*
X139993000Y-58570998D01*
X139969202Y-58599996D01*
X135632998Y-62936201D01*
X135604000Y-62959999D01*
X135580202Y-62988997D01*
X135580201Y-62988998D01*
X135509026Y-63075724D01*
X135438454Y-63207754D01*
X135424525Y-63253675D01*
X135394998Y-63351014D01*
X135389723Y-63404568D01*
X135380324Y-63500000D01*
X135384001Y-63537332D01*
X135384000Y-71642678D01*
X135380324Y-71680000D01*
X135384000Y-71717322D01*
X135384000Y-71717332D01*
X135394997Y-71828985D01*
X135407752Y-71871032D01*
X135438454Y-71972246D01*
X135509026Y-72104276D01*
X135518108Y-72115342D01*
X135603999Y-72220001D01*
X135633003Y-72243804D01*
X137302320Y-73913122D01*
X137269000Y-74080635D01*
X137269000Y-74270198D01*
X135380000Y-72381199D01*
X135380000Y-62798801D01*
X142300802Y-55878000D01*
X150465659Y-55878000D01*
X150552880Y-56008535D01*
X150747465Y-56203120D01*
X150976273Y-56356005D01*
X151230510Y-56461314D01*
X151500408Y-56515000D01*
X151775592Y-56515000D01*
X152045490Y-56461314D01*
X152299727Y-56356005D01*
X152528535Y-56203120D01*
X152723120Y-56008535D01*
X152876005Y-55779727D01*
X152981314Y-55525490D01*
X153035000Y-55255592D01*
X153035000Y-54980408D01*
X152981314Y-54710510D01*
X152876005Y-54456273D01*
X152723120Y-54227465D01*
X152528535Y-54032880D01*
X152299727Y-53879995D01*
X152228057Y-53850308D01*
X152241023Y-53845636D01*
X152356980Y-53783656D01*
X152423960Y-53543565D01*
X151638000Y-52757605D01*
X150852040Y-53543565D01*
X150919020Y-53783656D01*
X151054760Y-53847485D01*
X150976273Y-53879995D01*
X150747465Y-54032880D01*
X150552880Y-54227465D01*
X150465659Y-54358000D01*
X142023322Y-54358000D01*
X141985999Y-54354324D01*
X141948676Y-54358000D01*
X141948667Y-54358000D01*
X141837014Y-54368997D01*
X141693753Y-54412454D01*
X141561723Y-54483026D01*
X141513946Y-54522236D01*
X141445999Y-54577999D01*
X141422201Y-54606997D01*
X134108998Y-61920201D01*
X134080000Y-61943999D01*
X134056202Y-61972997D01*
X134056201Y-61972998D01*
X133985026Y-62059724D01*
X133914454Y-62191754D01*
X133898168Y-62245444D01*
X133870998Y-62335014D01*
X133860001Y-62446667D01*
X133856324Y-62484000D01*
X133860001Y-62521332D01*
X133860000Y-72658678D01*
X133856324Y-72696000D01*
X133860000Y-72733322D01*
X133860000Y-72733332D01*
X133870997Y-72844985D01*
X133897986Y-72933957D01*
X133914454Y-72988246D01*
X133985026Y-73120276D01*
X133985536Y-73120897D01*
X134079999Y-73236001D01*
X134109003Y-73259804D01*
X137302320Y-76453122D01*
X137269000Y-76620635D01*
X137269000Y-76899365D01*
X137323377Y-77172740D01*
X137430043Y-77430254D01*
X137584897Y-77662010D01*
X137781990Y-77859103D01*
X138013746Y-78013957D01*
X138052477Y-78030000D01*
X138013746Y-78046043D01*
X137781990Y-78200897D01*
X137584897Y-78397990D01*
X137430043Y-78629746D01*
X137323377Y-78887260D01*
X137269000Y-79160635D01*
X137269000Y-79439365D01*
X137323377Y-79712740D01*
X137430043Y-79970254D01*
X137584897Y-80202010D01*
X137781990Y-80399103D01*
X138013746Y-80553957D01*
X138052477Y-80570000D01*
X138013746Y-80586043D01*
X137781990Y-80740897D01*
X137584897Y-80937990D01*
X137430043Y-81169746D01*
X137323377Y-81427260D01*
X137269000Y-81700635D01*
X137269000Y-81890198D01*
X121156000Y-65777199D01*
X121156000Y-63699371D01*
X121240273Y-63755680D01*
X121501426Y-63863853D01*
X121778665Y-63919000D01*
X122061335Y-63919000D01*
X122338574Y-63863853D01*
X122599727Y-63755680D01*
X122834759Y-63598637D01*
X123034637Y-63398759D01*
X123191680Y-63163727D01*
X123299853Y-62902574D01*
X123355000Y-62625335D01*
X123355000Y-62342665D01*
X123318688Y-62160113D01*
X133227803Y-52250999D01*
X150279776Y-52250999D01*
X150248977Y-52375135D01*
X150236090Y-52650017D01*
X150277078Y-52922133D01*
X150370364Y-53181023D01*
X150432344Y-53296980D01*
X150672435Y-53363960D01*
X151458395Y-52578000D01*
X151444253Y-52563858D01*
X151623858Y-52384253D01*
X151638000Y-52398395D01*
X151652143Y-52384253D01*
X151831748Y-52563858D01*
X151817605Y-52578000D01*
X152603565Y-53363960D01*
X152843656Y-53296980D01*
X152960756Y-53047952D01*
X153027023Y-52780865D01*
X153039910Y-52505983D01*
X153001503Y-52250999D01*
X158364198Y-52250999D01*
X173992001Y-67878803D01*
X173992000Y-92418678D01*
X173988324Y-92456000D01*
X173992000Y-92493322D01*
X173992000Y-92493332D01*
X174002997Y-92604985D01*
X174030910Y-92697003D01*
X174046454Y-92748246D01*
X174117026Y-92880276D01*
X174134863Y-92902010D01*
X174211999Y-92996001D01*
X174241003Y-93019804D01*
X180918590Y-99697392D01*
X180877463Y-99747506D01*
X180818498Y-99857820D01*
X180782188Y-99977518D01*
X180769928Y-100102000D01*
X180769928Y-102082000D01*
X180782188Y-102206482D01*
X180818498Y-102326180D01*
X180877463Y-102436494D01*
X180956815Y-102533185D01*
X181053506Y-102612537D01*
X181163820Y-102671502D01*
X181283518Y-102707812D01*
X181408000Y-102720072D01*
X183941271Y-102720072D01*
X187200000Y-105978803D01*
X187200001Y-114573196D01*
X183941271Y-117831928D01*
X181408000Y-117831928D01*
X181283518Y-117844188D01*
X181163820Y-117880498D01*
X181053506Y-117939463D01*
X180956815Y-118018815D01*
X180877463Y-118115506D01*
X180818498Y-118225820D01*
X180782188Y-118345518D01*
X180769928Y-118470000D01*
X180769928Y-120450000D01*
X180782188Y-120574482D01*
X180818498Y-120694180D01*
X180877463Y-120804494D01*
X180956815Y-120901185D01*
X181053506Y-120980537D01*
X181163820Y-121039502D01*
X181283518Y-121075812D01*
X181408000Y-121088072D01*
X185368000Y-121088072D01*
X185492482Y-121075812D01*
X185612180Y-121039502D01*
X185722494Y-120980537D01*
X185819185Y-120901185D01*
X185898537Y-120804494D01*
X185957502Y-120694180D01*
X185993812Y-120574482D01*
X186006072Y-120450000D01*
X186006072Y-118470000D01*
X185993812Y-118345518D01*
X185957502Y-118225820D01*
X185898537Y-118115506D01*
X185857410Y-118065392D01*
X188471008Y-115451795D01*
X188500001Y-115428001D01*
X188523795Y-115399008D01*
X188523799Y-115399004D01*
X188594973Y-115312277D01*
X188594974Y-115312276D01*
X188665546Y-115180247D01*
X188709003Y-115036986D01*
X188720000Y-114925333D01*
X188720000Y-114925324D01*
X188723676Y-114888001D01*
X188720000Y-114850678D01*
X188720000Y-105701322D01*
X188723676Y-105663999D01*
X188720000Y-105626676D01*
X188720000Y-105626667D01*
X188709003Y-105515014D01*
X188665546Y-105371753D01*
X188594974Y-105239724D01*
X188543955Y-105177557D01*
X188523799Y-105152996D01*
X188523795Y-105152992D01*
X188500001Y-105123999D01*
X188471009Y-105100206D01*
X185857410Y-102486608D01*
X185898537Y-102436494D01*
X185957502Y-102326180D01*
X185993812Y-102206482D01*
X186006072Y-102082000D01*
X186006072Y-100102000D01*
X185993812Y-99977518D01*
X185957502Y-99857820D01*
X185898537Y-99747506D01*
X185819185Y-99650815D01*
X185722494Y-99571463D01*
X185612180Y-99512498D01*
X185492482Y-99476188D01*
X185368000Y-99463928D01*
X182834730Y-99463928D01*
X175512000Y-92141199D01*
X175512000Y-86708000D01*
X180765138Y-86708000D01*
X180796513Y-87026556D01*
X180889432Y-87332869D01*
X181040325Y-87615170D01*
X181243392Y-87862608D01*
X181490830Y-88065675D01*
X181773131Y-88216568D01*
X182079444Y-88309487D01*
X182318176Y-88333000D01*
X184457824Y-88333000D01*
X184696556Y-88309487D01*
X185002869Y-88216568D01*
X185285170Y-88065675D01*
X185532608Y-87862608D01*
X185735675Y-87615170D01*
X185886568Y-87332869D01*
X185979487Y-87026556D01*
X186010862Y-86708000D01*
X185979487Y-86389444D01*
X185886568Y-86083131D01*
X185735675Y-85800830D01*
X185532608Y-85553392D01*
X185285170Y-85350325D01*
X185002869Y-85199432D01*
X184696556Y-85106513D01*
X184457824Y-85083000D01*
X182318176Y-85083000D01*
X182079444Y-85106513D01*
X181773131Y-85199432D01*
X181490830Y-85350325D01*
X181243392Y-85553392D01*
X181040325Y-85800830D01*
X180889432Y-86083131D01*
X180796513Y-86389444D01*
X180765138Y-86708000D01*
X175512000Y-86708000D01*
X175512000Y-81708000D01*
X180765138Y-81708000D01*
X180796513Y-82026556D01*
X180889432Y-82332869D01*
X181040325Y-82615170D01*
X181243392Y-82862608D01*
X181490830Y-83065675D01*
X181773131Y-83216568D01*
X182079444Y-83309487D01*
X182318176Y-83333000D01*
X184457824Y-83333000D01*
X184696556Y-83309487D01*
X185002869Y-83216568D01*
X185285170Y-83065675D01*
X185532608Y-82862608D01*
X185735675Y-82615170D01*
X185886568Y-82332869D01*
X185979487Y-82026556D01*
X186010862Y-81708000D01*
X185979487Y-81389444D01*
X185886568Y-81083131D01*
X185735675Y-80800830D01*
X185532608Y-80553392D01*
X185285170Y-80350325D01*
X185002869Y-80199432D01*
X184696556Y-80106513D01*
X184457824Y-80083000D01*
X182318176Y-80083000D01*
X182079444Y-80106513D01*
X181773131Y-80199432D01*
X181490830Y-80350325D01*
X181243392Y-80553392D01*
X181040325Y-80800830D01*
X180889432Y-81083131D01*
X180796513Y-81389444D01*
X180765138Y-81708000D01*
X175512000Y-81708000D01*
X175512000Y-75718000D01*
X180769928Y-75718000D01*
X180769928Y-77698000D01*
X180782188Y-77822482D01*
X180818498Y-77942180D01*
X180877463Y-78052494D01*
X180956815Y-78149185D01*
X181053506Y-78228537D01*
X181163820Y-78287502D01*
X181283518Y-78323812D01*
X181408000Y-78336072D01*
X185368000Y-78336072D01*
X185492482Y-78323812D01*
X185612180Y-78287502D01*
X185722494Y-78228537D01*
X185819185Y-78149185D01*
X185898537Y-78052494D01*
X185957502Y-77942180D01*
X185993812Y-77822482D01*
X186006072Y-77698000D01*
X186006072Y-75718000D01*
X185993812Y-75593518D01*
X185957502Y-75473820D01*
X185898537Y-75363506D01*
X185819185Y-75266815D01*
X185722494Y-75187463D01*
X185612180Y-75128498D01*
X185492482Y-75092188D01*
X185368000Y-75079928D01*
X181408000Y-75079928D01*
X181283518Y-75092188D01*
X181163820Y-75128498D01*
X181053506Y-75187463D01*
X180956815Y-75266815D01*
X180877463Y-75363506D01*
X180818498Y-75473820D01*
X180782188Y-75593518D01*
X180769928Y-75718000D01*
X175512000Y-75718000D01*
X175512000Y-67601322D01*
X175515676Y-67563999D01*
X175512000Y-67526677D01*
X175512000Y-67526667D01*
X175501003Y-67415014D01*
X175457546Y-67271753D01*
X175395820Y-67156273D01*
X175386974Y-67139723D01*
X175315799Y-67052997D01*
X175292001Y-67023999D01*
X175263003Y-67000201D01*
X175158802Y-66896000D01*
X180765138Y-66896000D01*
X180796513Y-67214556D01*
X180889432Y-67520869D01*
X181040325Y-67803170D01*
X181243392Y-68050608D01*
X181490830Y-68253675D01*
X181773131Y-68404568D01*
X182079444Y-68497487D01*
X182318176Y-68521000D01*
X184457824Y-68521000D01*
X184696556Y-68497487D01*
X185002869Y-68404568D01*
X185285170Y-68253675D01*
X185532608Y-68050608D01*
X185735675Y-67803170D01*
X185886568Y-67520869D01*
X185979487Y-67214556D01*
X186010862Y-66896000D01*
X185979487Y-66577444D01*
X185886568Y-66271131D01*
X185735675Y-65988830D01*
X185532608Y-65741392D01*
X185285170Y-65538325D01*
X185002869Y-65387432D01*
X184696556Y-65294513D01*
X184457824Y-65271000D01*
X182318176Y-65271000D01*
X182079444Y-65294513D01*
X181773131Y-65387432D01*
X181490830Y-65538325D01*
X181243392Y-65741392D01*
X181040325Y-65988830D01*
X180889432Y-66271131D01*
X180796513Y-66577444D01*
X180765138Y-66896000D01*
X175158802Y-66896000D01*
X170158802Y-61896000D01*
X180765138Y-61896000D01*
X180796513Y-62214556D01*
X180889432Y-62520869D01*
X181040325Y-62803170D01*
X181243392Y-63050608D01*
X181490830Y-63253675D01*
X181773131Y-63404568D01*
X182079444Y-63497487D01*
X182318176Y-63521000D01*
X184457824Y-63521000D01*
X184696556Y-63497487D01*
X185002869Y-63404568D01*
X185285170Y-63253675D01*
X185532608Y-63050608D01*
X185735675Y-62803170D01*
X185886568Y-62520869D01*
X185979487Y-62214556D01*
X186010862Y-61896000D01*
X185979487Y-61577444D01*
X185886568Y-61271131D01*
X185735675Y-60988830D01*
X185532608Y-60741392D01*
X185285170Y-60538325D01*
X185002869Y-60387432D01*
X184696556Y-60294513D01*
X184457824Y-60271000D01*
X182318176Y-60271000D01*
X182079444Y-60294513D01*
X181773131Y-60387432D01*
X181490830Y-60538325D01*
X181243392Y-60741392D01*
X181040325Y-60988830D01*
X180889432Y-61271131D01*
X180796513Y-61577444D01*
X180765138Y-61896000D01*
X170158802Y-61896000D01*
X169807662Y-61544860D01*
X169825490Y-61541314D01*
X170079727Y-61436005D01*
X170308535Y-61283120D01*
X170503120Y-61088535D01*
X170656005Y-60859727D01*
X170761314Y-60605490D01*
X170815000Y-60335592D01*
X170815000Y-60060408D01*
X170761314Y-59790510D01*
X170656005Y-59536273D01*
X170503120Y-59307465D01*
X170308535Y-59112880D01*
X170079727Y-58959995D01*
X169825490Y-58854686D01*
X169555592Y-58801000D01*
X169280408Y-58801000D01*
X169010510Y-58854686D01*
X168756273Y-58959995D01*
X168527465Y-59112880D01*
X168332880Y-59307465D01*
X168179995Y-59536273D01*
X168074686Y-59790510D01*
X168071140Y-59808338D01*
X164168802Y-55906000D01*
X180769928Y-55906000D01*
X180769928Y-57886000D01*
X180782188Y-58010482D01*
X180818498Y-58130180D01*
X180877463Y-58240494D01*
X180956815Y-58337185D01*
X181053506Y-58416537D01*
X181163820Y-58475502D01*
X181283518Y-58511812D01*
X181408000Y-58524072D01*
X185368000Y-58524072D01*
X185492482Y-58511812D01*
X185612180Y-58475502D01*
X185722494Y-58416537D01*
X185819185Y-58337185D01*
X185898537Y-58240494D01*
X185957502Y-58130180D01*
X185993812Y-58010482D01*
X186006072Y-57886000D01*
X186006072Y-55906000D01*
X185993812Y-55781518D01*
X185957502Y-55661820D01*
X185898537Y-55551506D01*
X185819185Y-55454815D01*
X185722494Y-55375463D01*
X185612180Y-55316498D01*
X185492482Y-55280188D01*
X185368000Y-55267928D01*
X181408000Y-55267928D01*
X181283518Y-55280188D01*
X181163820Y-55316498D01*
X181053506Y-55375463D01*
X180956815Y-55454815D01*
X180877463Y-55551506D01*
X180818498Y-55661820D01*
X180782188Y-55781518D01*
X180769928Y-55906000D01*
X164168802Y-55906000D01*
X160703210Y-52440408D01*
X168021000Y-52440408D01*
X168021000Y-52715592D01*
X168074686Y-52985490D01*
X168179995Y-53239727D01*
X168332880Y-53468535D01*
X168527465Y-53663120D01*
X168756273Y-53816005D01*
X169010510Y-53921314D01*
X169280408Y-53975000D01*
X169555592Y-53975000D01*
X169825490Y-53921314D01*
X170079727Y-53816005D01*
X170308535Y-53663120D01*
X170503120Y-53468535D01*
X170656005Y-53239727D01*
X170761314Y-52985490D01*
X170815000Y-52715592D01*
X170815000Y-52440408D01*
X170761314Y-52170510D01*
X170656005Y-51916273D01*
X170503120Y-51687465D01*
X170308535Y-51492880D01*
X170079727Y-51339995D01*
X169825490Y-51234686D01*
X169555592Y-51181000D01*
X169280408Y-51181000D01*
X169010510Y-51234686D01*
X168756273Y-51339995D01*
X168527465Y-51492880D01*
X168332880Y-51687465D01*
X168179995Y-51916273D01*
X168074686Y-52170510D01*
X168021000Y-52440408D01*
X160703210Y-52440408D01*
X159242803Y-50980002D01*
X159219000Y-50950998D01*
X159103275Y-50856025D01*
X158971246Y-50785453D01*
X158827985Y-50741996D01*
X158716332Y-50730999D01*
X158716321Y-50730999D01*
X158678999Y-50727323D01*
X158641677Y-50730999D01*
X132950323Y-50730999D01*
X132913000Y-50727323D01*
X132875677Y-50730999D01*
X132875668Y-50730999D01*
X132764015Y-50741996D01*
X132620754Y-50785453D01*
X132488724Y-50856025D01*
X132405084Y-50924667D01*
X132373000Y-50950998D01*
X132349202Y-50979996D01*
X123357340Y-59971859D01*
X123360217Y-59913488D01*
X123318787Y-59633870D01*
X123223603Y-59367708D01*
X123156671Y-59242486D01*
X122912702Y-59170903D01*
X122099605Y-59984000D01*
X122113748Y-59998143D01*
X121934143Y-60177748D01*
X121920000Y-60163605D01*
X121905858Y-60177748D01*
X121726253Y-59998143D01*
X121740395Y-59984000D01*
X121726253Y-59969858D01*
X121905858Y-59790253D01*
X121920000Y-59804395D01*
X122733097Y-58991298D01*
X122661514Y-58747329D01*
X122406004Y-58626429D01*
X122131816Y-58557700D01*
X121849488Y-58543783D01*
X121569870Y-58585213D01*
X121303708Y-58680397D01*
X121178486Y-58747329D01*
X121156000Y-58823966D01*
X121156000Y-56587038D01*
X121240180Y-56561502D01*
X121350494Y-56502537D01*
X121367681Y-56488432D01*
X121494516Y-56546237D01*
X121731313Y-56602000D01*
X121974438Y-56610495D01*
X122214549Y-56571395D01*
X122442418Y-56486202D01*
X122518852Y-56445348D01*
X122566159Y-56221764D01*
X121896000Y-55551605D01*
X121881858Y-55565748D01*
X121702253Y-55386143D01*
X121716395Y-55372000D01*
X122075605Y-55372000D01*
X122745764Y-56042159D01*
X122969348Y-55994852D01*
X123070237Y-55773484D01*
X123126000Y-55536687D01*
X123134495Y-55293562D01*
X123095395Y-55053451D01*
X123010202Y-54825582D01*
X122969348Y-54749148D01*
X122745764Y-54701841D01*
X122075605Y-55372000D01*
X121716395Y-55372000D01*
X121702253Y-55357858D01*
X121881858Y-55178253D01*
X121896000Y-55192395D01*
X122566159Y-54522236D01*
X122518852Y-54298652D01*
X122297484Y-54197763D01*
X122060687Y-54142000D01*
X121817562Y-54133505D01*
X121577451Y-54172605D01*
X121363883Y-54252451D01*
X121350494Y-54241463D01*
X121240180Y-54182498D01*
X121120482Y-54146188D01*
X120996000Y-54133928D01*
X119796000Y-54133928D01*
X119671518Y-54146188D01*
X119551820Y-54182498D01*
X119441506Y-54241463D01*
X119344815Y-54320815D01*
X119265463Y-54417506D01*
X119206498Y-54527820D01*
X119170188Y-54647518D01*
X119157928Y-54772000D01*
X119157928Y-55972000D01*
X119170188Y-56096482D01*
X119206498Y-56216180D01*
X119265463Y-56326494D01*
X119344815Y-56423185D01*
X119441506Y-56502537D01*
X119551820Y-56561502D01*
X119636001Y-56587038D01*
X119636000Y-66054678D01*
X119632324Y-66092000D01*
X119636000Y-66129322D01*
X119636000Y-66129332D01*
X119646997Y-66240985D01*
X119690454Y-66384246D01*
X119761026Y-66516276D01*
X119789002Y-66550364D01*
X119855999Y-66632001D01*
X119885003Y-66655804D01*
X137302320Y-84073122D01*
X137269000Y-84240635D01*
X137269000Y-84519365D01*
X137302320Y-84686878D01*
X137067997Y-84921202D01*
X137038999Y-84945000D01*
X137015201Y-84973998D01*
X137015200Y-84973999D01*
X136944025Y-85060725D01*
X136873453Y-85192755D01*
X136829997Y-85336016D01*
X136815323Y-85485001D01*
X136819000Y-85522333D01*
X136818999Y-92493078D01*
X136815323Y-92530401D01*
X136818999Y-92567723D01*
X136818999Y-92567733D01*
X136829996Y-92679386D01*
X136870452Y-92812754D01*
X136873453Y-92822647D01*
X136944025Y-92954677D01*
X136977939Y-92996001D01*
X137038998Y-93070402D01*
X137068001Y-93094204D01*
X137589799Y-93616003D01*
X137597500Y-93625387D01*
X137584897Y-93637990D01*
X137430043Y-93869746D01*
X137323377Y-94127260D01*
X137269000Y-94400635D01*
X137269000Y-94679365D01*
X137302320Y-94846877D01*
X129314200Y-102834999D01*
X114534787Y-102834999D01*
X114537957Y-102830254D01*
X114644623Y-102572740D01*
X114699000Y-102299365D01*
X114699000Y-102020635D01*
X114644623Y-101747260D01*
X114537957Y-101489746D01*
X114383103Y-101257990D01*
X114186010Y-101060897D01*
X113954254Y-100906043D01*
X113915523Y-100890000D01*
X113954254Y-100873957D01*
X114186010Y-100719103D01*
X114383103Y-100522010D01*
X114537957Y-100290254D01*
X114644623Y-100032740D01*
X114699000Y-99759365D01*
X114699000Y-99480635D01*
X114644623Y-99207260D01*
X114537957Y-98949746D01*
X114383103Y-98717990D01*
X114186010Y-98520897D01*
X113954254Y-98366043D01*
X113915523Y-98350000D01*
X113954254Y-98333957D01*
X114186010Y-98179103D01*
X114383103Y-97982010D01*
X114537957Y-97750254D01*
X114644623Y-97492740D01*
X114699000Y-97219365D01*
X114699000Y-96940635D01*
X114644623Y-96667260D01*
X114537957Y-96409746D01*
X114383103Y-96177990D01*
X114186010Y-95980897D01*
X113954254Y-95826043D01*
X113918475Y-95811223D01*
X114013655Y-95760349D01*
X114082816Y-95518421D01*
X113284000Y-94719605D01*
X112485184Y-95518421D01*
X112554345Y-95760349D01*
X112656279Y-95808425D01*
X112613746Y-95826043D01*
X112381990Y-95980897D01*
X112184897Y-96177990D01*
X112030043Y-96409746D01*
X111923377Y-96667260D01*
X111869000Y-96940635D01*
X111869000Y-97219365D01*
X111923377Y-97492740D01*
X112030043Y-97750254D01*
X112184897Y-97982010D01*
X112381990Y-98179103D01*
X112613746Y-98333957D01*
X112652477Y-98350000D01*
X112613746Y-98366043D01*
X112381990Y-98520897D01*
X112184897Y-98717990D01*
X112030043Y-98949746D01*
X111923377Y-99207260D01*
X111869000Y-99480635D01*
X111869000Y-99759365D01*
X111923377Y-100032740D01*
X112030043Y-100290254D01*
X112184897Y-100522010D01*
X112381990Y-100719103D01*
X112613746Y-100873957D01*
X112652477Y-100890000D01*
X112613746Y-100906043D01*
X112381990Y-101060897D01*
X112184897Y-101257990D01*
X112030043Y-101489746D01*
X111923377Y-101747260D01*
X111869000Y-102020635D01*
X111869000Y-102299365D01*
X111923377Y-102572740D01*
X112030043Y-102830254D01*
X112184897Y-103062010D01*
X112197500Y-103074613D01*
X112189800Y-103083996D01*
X99169003Y-116104794D01*
X99139999Y-116128597D01*
X99095341Y-116183014D01*
X99045026Y-116244322D01*
X98998161Y-116332000D01*
X98974454Y-116376352D01*
X98930997Y-116519613D01*
X98920000Y-116631266D01*
X98920000Y-116631276D01*
X98916324Y-116668598D01*
X98920000Y-116705920D01*
X98920001Y-129855888D01*
X98749304Y-129969944D01*
X98545944Y-130173304D01*
X98386165Y-130412431D01*
X98276107Y-130678134D01*
X98220000Y-130960203D01*
X93946340Y-130960203D01*
X93711327Y-108516495D01*
X96567000Y-108516495D01*
X96567000Y-108907505D01*
X96643282Y-109291003D01*
X96792915Y-109652250D01*
X97010149Y-109977364D01*
X97286636Y-110253851D01*
X97611750Y-110471085D01*
X97972997Y-110620718D01*
X98356495Y-110697000D01*
X98747505Y-110697000D01*
X99131003Y-110620718D01*
X99492250Y-110471085D01*
X99817364Y-110253851D01*
X100093851Y-109977364D01*
X100311085Y-109652250D01*
X100460718Y-109291003D01*
X100537000Y-108907505D01*
X100537000Y-108516495D01*
X100460718Y-108132997D01*
X100311085Y-107771750D01*
X100093851Y-107446636D01*
X99817364Y-107170149D01*
X99492250Y-106952915D01*
X99131003Y-106803282D01*
X98747505Y-106727000D01*
X98356495Y-106727000D01*
X97972997Y-106803282D01*
X97611750Y-106952915D01*
X97286636Y-107170149D01*
X97010149Y-107446636D01*
X96792915Y-107771750D01*
X96643282Y-108132997D01*
X96567000Y-108516495D01*
X93711327Y-108516495D01*
X93565723Y-94611303D01*
X111863943Y-94611303D01*
X111905140Y-94886972D01*
X111999325Y-95149308D01*
X112063651Y-95269655D01*
X112305579Y-95338816D01*
X113104395Y-94540000D01*
X113463605Y-94540000D01*
X114262421Y-95338816D01*
X114504349Y-95269655D01*
X114623248Y-95017557D01*
X114690681Y-94747106D01*
X114704057Y-94468697D01*
X114662860Y-94193028D01*
X114568675Y-93930692D01*
X114504349Y-93810345D01*
X114262421Y-93741184D01*
X113463605Y-94540000D01*
X113104395Y-94540000D01*
X112305579Y-93741184D01*
X112063651Y-93810345D01*
X111944752Y-94062443D01*
X111877319Y-94332894D01*
X111863943Y-94611303D01*
X93565723Y-94611303D01*
X93370887Y-76004495D01*
X96567000Y-76004495D01*
X96567000Y-76395505D01*
X96643282Y-76779003D01*
X96792915Y-77140250D01*
X97010149Y-77465364D01*
X97286636Y-77741851D01*
X97611750Y-77959085D01*
X97972997Y-78108718D01*
X98356495Y-78185000D01*
X98747505Y-78185000D01*
X99131003Y-78108718D01*
X99492250Y-77959085D01*
X99817364Y-77741851D01*
X100093851Y-77465364D01*
X100311085Y-77140250D01*
X100460718Y-76779003D01*
X100537000Y-76395505D01*
X100537000Y-76004495D01*
X100460718Y-75620997D01*
X100311085Y-75259750D01*
X100093851Y-74934636D01*
X99817364Y-74658149D01*
X99492250Y-74440915D01*
X99131003Y-74291282D01*
X98747505Y-74215000D01*
X98356495Y-74215000D01*
X97972997Y-74291282D01*
X97611750Y-74440915D01*
X97286636Y-74658149D01*
X97010149Y-74934636D01*
X96792915Y-75259750D01*
X96643282Y-75620997D01*
X96567000Y-76004495D01*
X93370887Y-76004495D01*
X93317438Y-70900000D01*
X111865928Y-70900000D01*
X111865928Y-72460000D01*
X111878188Y-72584482D01*
X111914498Y-72704180D01*
X111973463Y-72814494D01*
X112052815Y-72911185D01*
X112149506Y-72990537D01*
X112259820Y-73049502D01*
X112379518Y-73085812D01*
X112427436Y-73090531D01*
X112381990Y-73120897D01*
X112184897Y-73317990D01*
X112030043Y-73549746D01*
X111923377Y-73807260D01*
X111869000Y-74080635D01*
X111869000Y-74359365D01*
X111923377Y-74632740D01*
X112030043Y-74890254D01*
X112184897Y-75122010D01*
X112381990Y-75319103D01*
X112613746Y-75473957D01*
X112652477Y-75490000D01*
X112613746Y-75506043D01*
X112381990Y-75660897D01*
X112184897Y-75857990D01*
X112030043Y-76089746D01*
X111923377Y-76347260D01*
X111869000Y-76620635D01*
X111869000Y-76899365D01*
X111923377Y-77172740D01*
X112030043Y-77430254D01*
X112184897Y-77662010D01*
X112381990Y-77859103D01*
X112613746Y-78013957D01*
X112652477Y-78030000D01*
X112613746Y-78046043D01*
X112381990Y-78200897D01*
X112184897Y-78397990D01*
X112030043Y-78629746D01*
X111923377Y-78887260D01*
X111869000Y-79160635D01*
X111869000Y-79439365D01*
X111923377Y-79712740D01*
X112030043Y-79970254D01*
X112184897Y-80202010D01*
X112381990Y-80399103D01*
X112613746Y-80553957D01*
X112652477Y-80570000D01*
X112613746Y-80586043D01*
X112381990Y-80740897D01*
X112184897Y-80937990D01*
X112030043Y-81169746D01*
X111923377Y-81427260D01*
X111869000Y-81700635D01*
X111869000Y-81979365D01*
X111923377Y-82252740D01*
X112030043Y-82510254D01*
X112184897Y-82742010D01*
X112381990Y-82939103D01*
X112613746Y-83093957D01*
X112652477Y-83110000D01*
X112613746Y-83126043D01*
X112381990Y-83280897D01*
X112184897Y-83477990D01*
X112030043Y-83709746D01*
X111923377Y-83967260D01*
X111869000Y-84240635D01*
X111869000Y-84519365D01*
X111923377Y-84792740D01*
X112030043Y-85050254D01*
X112184897Y-85282010D01*
X112381990Y-85479103D01*
X112613746Y-85633957D01*
X112652477Y-85650000D01*
X112613746Y-85666043D01*
X112381990Y-85820897D01*
X112184897Y-86017990D01*
X112030043Y-86249746D01*
X111923377Y-86507260D01*
X111869000Y-86780635D01*
X111869000Y-87059365D01*
X111923377Y-87332740D01*
X112030043Y-87590254D01*
X112184897Y-87822010D01*
X112381990Y-88019103D01*
X112613746Y-88173957D01*
X112652477Y-88190000D01*
X112613746Y-88206043D01*
X112381990Y-88360897D01*
X112184897Y-88557990D01*
X112030043Y-88789746D01*
X111923377Y-89047260D01*
X111869000Y-89320635D01*
X111869000Y-89599365D01*
X111923377Y-89872740D01*
X112030043Y-90130254D01*
X112184897Y-90362010D01*
X112381990Y-90559103D01*
X112613746Y-90713957D01*
X112652477Y-90730000D01*
X112613746Y-90746043D01*
X112381990Y-90900897D01*
X112184897Y-91097990D01*
X112030043Y-91329746D01*
X111923377Y-91587260D01*
X111869000Y-91860635D01*
X111869000Y-92139365D01*
X111923377Y-92412740D01*
X112030043Y-92670254D01*
X112184897Y-92902010D01*
X112381990Y-93099103D01*
X112613746Y-93253957D01*
X112649525Y-93268777D01*
X112554345Y-93319651D01*
X112485184Y-93561579D01*
X113284000Y-94360395D01*
X114082816Y-93561579D01*
X114013655Y-93319651D01*
X113911721Y-93271575D01*
X113954254Y-93253957D01*
X114186010Y-93099103D01*
X114383103Y-92902010D01*
X114537957Y-92670254D01*
X114644623Y-92412740D01*
X114699000Y-92139365D01*
X114699000Y-91860635D01*
X114644623Y-91587260D01*
X114537957Y-91329746D01*
X114383103Y-91097990D01*
X114186010Y-90900897D01*
X113954254Y-90746043D01*
X113915523Y-90730000D01*
X113954254Y-90713957D01*
X114186010Y-90559103D01*
X114383103Y-90362010D01*
X114537957Y-90130254D01*
X114644623Y-89872740D01*
X114699000Y-89599365D01*
X114699000Y-89320635D01*
X114644623Y-89047260D01*
X114537957Y-88789746D01*
X114383103Y-88557990D01*
X114186010Y-88360897D01*
X113954254Y-88206043D01*
X113915523Y-88190000D01*
X113954254Y-88173957D01*
X114186010Y-88019103D01*
X114383103Y-87822010D01*
X114537957Y-87590254D01*
X114644623Y-87332740D01*
X114699000Y-87059365D01*
X114699000Y-86780635D01*
X114644623Y-86507260D01*
X114537957Y-86249746D01*
X114383103Y-86017990D01*
X114186010Y-85820897D01*
X113954254Y-85666043D01*
X113915523Y-85650000D01*
X113954254Y-85633957D01*
X114186010Y-85479103D01*
X114383103Y-85282010D01*
X114537957Y-85050254D01*
X114644623Y-84792740D01*
X114699000Y-84519365D01*
X114699000Y-84240635D01*
X114644623Y-83967260D01*
X114537957Y-83709746D01*
X114383103Y-83477990D01*
X114186010Y-83280897D01*
X113954254Y-83126043D01*
X113915523Y-83110000D01*
X113954254Y-83093957D01*
X114186010Y-82939103D01*
X114383103Y-82742010D01*
X114537957Y-82510254D01*
X114644623Y-82252740D01*
X114699000Y-81979365D01*
X114699000Y-81700635D01*
X114644623Y-81427260D01*
X114537957Y-81169746D01*
X114383103Y-80937990D01*
X114186010Y-80740897D01*
X113954254Y-80586043D01*
X113915523Y-80570000D01*
X113954254Y-80553957D01*
X114186010Y-80399103D01*
X114383103Y-80202010D01*
X114537957Y-79970254D01*
X114644623Y-79712740D01*
X114699000Y-79439365D01*
X114699000Y-79160635D01*
X114644623Y-78887260D01*
X114537957Y-78629746D01*
X114383103Y-78397990D01*
X114186010Y-78200897D01*
X113954254Y-78046043D01*
X113915523Y-78030000D01*
X113954254Y-78013957D01*
X114186010Y-77859103D01*
X114383103Y-77662010D01*
X114537957Y-77430254D01*
X114644623Y-77172740D01*
X114699000Y-76899365D01*
X114699000Y-76620635D01*
X114644623Y-76347260D01*
X114537957Y-76089746D01*
X114383103Y-75857990D01*
X114186010Y-75660897D01*
X113954254Y-75506043D01*
X113915523Y-75490000D01*
X113954254Y-75473957D01*
X114186010Y-75319103D01*
X114383103Y-75122010D01*
X114537957Y-74890254D01*
X114644623Y-74632740D01*
X114699000Y-74359365D01*
X114699000Y-74080635D01*
X114644623Y-73807260D01*
X114537957Y-73549746D01*
X114383103Y-73317990D01*
X114186010Y-73120897D01*
X114140564Y-73090531D01*
X114188482Y-73085812D01*
X114308180Y-73049502D01*
X114418494Y-72990537D01*
X114515185Y-72911185D01*
X114594537Y-72814494D01*
X114653502Y-72704180D01*
X114689812Y-72584482D01*
X114702072Y-72460000D01*
X114702072Y-70900000D01*
X114689812Y-70775518D01*
X114653502Y-70655820D01*
X114594537Y-70545506D01*
X114515185Y-70448815D01*
X114418494Y-70369463D01*
X114308180Y-70310498D01*
X114188482Y-70274188D01*
X114064000Y-70261928D01*
X112504000Y-70261928D01*
X112379518Y-70274188D01*
X112259820Y-70310498D01*
X112149506Y-70369463D01*
X112052815Y-70448815D01*
X111973463Y-70545506D01*
X111914498Y-70655820D01*
X111878188Y-70775518D01*
X111865928Y-70900000D01*
X93317438Y-70900000D01*
X93292872Y-68554000D01*
X97965928Y-68554000D01*
X97978188Y-68678482D01*
X98014498Y-68798180D01*
X98073463Y-68908494D01*
X98152815Y-69005185D01*
X98249506Y-69084537D01*
X98359820Y-69143502D01*
X98479518Y-69179812D01*
X98604000Y-69192072D01*
X100298250Y-69189000D01*
X100457000Y-69030250D01*
X100457000Y-67691000D01*
X100711000Y-67691000D01*
X100711000Y-69030250D01*
X100869750Y-69189000D01*
X102564000Y-69192072D01*
X102688482Y-69179812D01*
X102808180Y-69143502D01*
X102918494Y-69084537D01*
X103015185Y-69005185D01*
X103094537Y-68908494D01*
X103153502Y-68798180D01*
X103189812Y-68678482D01*
X103202072Y-68554000D01*
X103199000Y-67849750D01*
X103040250Y-67691000D01*
X100711000Y-67691000D01*
X100457000Y-67691000D01*
X98127750Y-67691000D01*
X97969000Y-67849750D01*
X97965928Y-68554000D01*
X93292872Y-68554000D01*
X93272139Y-66574000D01*
X97965928Y-66574000D01*
X97969000Y-67278250D01*
X98127750Y-67437000D01*
X100457000Y-67437000D01*
X100457000Y-66097750D01*
X100711000Y-66097750D01*
X100711000Y-67437000D01*
X103040250Y-67437000D01*
X103199000Y-67278250D01*
X103202072Y-66574000D01*
X103189812Y-66449518D01*
X103153502Y-66329820D01*
X103094537Y-66219506D01*
X103015185Y-66122815D01*
X102918494Y-66043463D01*
X102808180Y-65984498D01*
X102688482Y-65948188D01*
X102564000Y-65935928D01*
X100869750Y-65939000D01*
X100711000Y-66097750D01*
X100457000Y-66097750D01*
X100298250Y-65939000D01*
X98604000Y-65935928D01*
X98479518Y-65948188D01*
X98359820Y-65984498D01*
X98249506Y-66043463D01*
X98152815Y-66122815D01*
X98073463Y-66219506D01*
X98014498Y-66329820D01*
X97978188Y-66449518D01*
X97965928Y-66574000D01*
X93272139Y-66574000D01*
X93230149Y-62564000D01*
X97961138Y-62564000D01*
X97992513Y-62882556D01*
X98085432Y-63188869D01*
X98236325Y-63471170D01*
X98439392Y-63718608D01*
X98686830Y-63921675D01*
X98969131Y-64072568D01*
X99275444Y-64165487D01*
X99514176Y-64189000D01*
X101653824Y-64189000D01*
X101892556Y-64165487D01*
X102198869Y-64072568D01*
X102481170Y-63921675D01*
X102728608Y-63718608D01*
X102931675Y-63471170D01*
X103082568Y-63188869D01*
X103175487Y-62882556D01*
X103206862Y-62564000D01*
X103175487Y-62245444D01*
X103082568Y-61939131D01*
X102931675Y-61656830D01*
X102728608Y-61409392D01*
X102481170Y-61206325D01*
X102198869Y-61055432D01*
X101892556Y-60962513D01*
X101653824Y-60939000D01*
X99514176Y-60939000D01*
X99275444Y-60962513D01*
X98969131Y-61055432D01*
X98686830Y-61206325D01*
X98439392Y-61409392D01*
X98236325Y-61656830D01*
X98085432Y-61939131D01*
X97992513Y-62245444D01*
X97961138Y-62564000D01*
X93230149Y-62564000D01*
X93181761Y-57942865D01*
X98013782Y-57942865D01*
X98044095Y-58068528D01*
X98172304Y-58361205D01*
X98355148Y-58623246D01*
X98585601Y-58844581D01*
X98854806Y-59016704D01*
X99152418Y-59133000D01*
X99467000Y-59189000D01*
X100457000Y-59189000D01*
X100457000Y-57691000D01*
X100711000Y-57691000D01*
X100711000Y-59189000D01*
X101701000Y-59189000D01*
X102015582Y-59133000D01*
X102313194Y-59016704D01*
X102582399Y-58844581D01*
X102812852Y-58623246D01*
X102995696Y-58361205D01*
X103123905Y-58068528D01*
X103154218Y-57942865D01*
X103034740Y-57691000D01*
X100711000Y-57691000D01*
X100457000Y-57691000D01*
X98133260Y-57691000D01*
X98013782Y-57942865D01*
X93181761Y-57942865D01*
X93173827Y-57185135D01*
X98013782Y-57185135D01*
X98133260Y-57437000D01*
X100457000Y-57437000D01*
X100457000Y-55939000D01*
X100711000Y-55939000D01*
X100711000Y-57437000D01*
X103034740Y-57437000D01*
X103154218Y-57185135D01*
X103123905Y-57059472D01*
X102995696Y-56766795D01*
X102812852Y-56504754D01*
X102582399Y-56283419D01*
X102313194Y-56111296D01*
X102015582Y-55995000D01*
X101701000Y-55939000D01*
X100711000Y-55939000D01*
X100457000Y-55939000D01*
X99467000Y-55939000D01*
X99152418Y-55995000D01*
X98854806Y-56111296D01*
X98585601Y-56283419D01*
X98355148Y-56504754D01*
X98172304Y-56766795D01*
X98044095Y-57059472D01*
X98013782Y-57185135D01*
X93173827Y-57185135D01*
X93125437Y-52564000D01*
X97961138Y-52564000D01*
X97992513Y-52882556D01*
X98085432Y-53188869D01*
X98236325Y-53471170D01*
X98439392Y-53718608D01*
X98686830Y-53921675D01*
X98969131Y-54072568D01*
X99275444Y-54165487D01*
X99514176Y-54189000D01*
X101653824Y-54189000D01*
X101892556Y-54165487D01*
X102198869Y-54072568D01*
X102481170Y-53921675D01*
X102712289Y-53732000D01*
X112253928Y-53732000D01*
X112266188Y-53856482D01*
X112302498Y-53976180D01*
X112361463Y-54086494D01*
X112440815Y-54183185D01*
X112537506Y-54262537D01*
X112647820Y-54321502D01*
X112666127Y-54327056D01*
X112599688Y-54393495D01*
X112431701Y-54644905D01*
X112315989Y-54924257D01*
X112257000Y-55220816D01*
X112257000Y-55523184D01*
X112315989Y-55819743D01*
X112431701Y-56099095D01*
X112599688Y-56350505D01*
X112813495Y-56564312D01*
X112929763Y-56642000D01*
X112813495Y-56719688D01*
X112599688Y-56933495D01*
X112431701Y-57184905D01*
X112315989Y-57464257D01*
X112257000Y-57760816D01*
X112257000Y-58063184D01*
X112315989Y-58359743D01*
X112431701Y-58639095D01*
X112599688Y-58890505D01*
X112813495Y-59104312D01*
X113064905Y-59272299D01*
X113344257Y-59388011D01*
X113640816Y-59447000D01*
X113943184Y-59447000D01*
X114239743Y-59388011D01*
X114519095Y-59272299D01*
X114770505Y-59104312D01*
X114984312Y-58890505D01*
X115152299Y-58639095D01*
X115268011Y-58359743D01*
X115327000Y-58063184D01*
X115327000Y-57760816D01*
X115268011Y-57464257D01*
X115152299Y-57184905D01*
X114984312Y-56933495D01*
X114770505Y-56719688D01*
X114654237Y-56642000D01*
X114770505Y-56564312D01*
X114984312Y-56350505D01*
X115152299Y-56099095D01*
X115268011Y-55819743D01*
X115327000Y-55523184D01*
X115327000Y-55220816D01*
X115268011Y-54924257D01*
X115152299Y-54644905D01*
X114984312Y-54393495D01*
X114917873Y-54327056D01*
X114936180Y-54321502D01*
X115046494Y-54262537D01*
X115143185Y-54183185D01*
X115222537Y-54086494D01*
X115281502Y-53976180D01*
X115317812Y-53856482D01*
X115330072Y-53732000D01*
X115327000Y-53117750D01*
X115168250Y-52959000D01*
X113919000Y-52959000D01*
X113919000Y-52979000D01*
X113665000Y-52979000D01*
X113665000Y-52959000D01*
X112415750Y-52959000D01*
X112257000Y-53117750D01*
X112253928Y-53732000D01*
X102712289Y-53732000D01*
X102728608Y-53718608D01*
X102931675Y-53471170D01*
X103082568Y-53188869D01*
X103175487Y-52882556D01*
X103206862Y-52564000D01*
X103175487Y-52245444D01*
X103082568Y-51939131D01*
X103078757Y-51932000D01*
X112253928Y-51932000D01*
X112257000Y-52546250D01*
X112415750Y-52705000D01*
X113665000Y-52705000D01*
X113665000Y-51455750D01*
X113919000Y-51455750D01*
X113919000Y-52705000D01*
X115168250Y-52705000D01*
X115327000Y-52546250D01*
X115330072Y-51932000D01*
X115317812Y-51807518D01*
X115281502Y-51687820D01*
X115222537Y-51577506D01*
X115143185Y-51480815D01*
X115046494Y-51401463D01*
X114936180Y-51342498D01*
X114816482Y-51306188D01*
X114692000Y-51293928D01*
X114077750Y-51297000D01*
X113919000Y-51455750D01*
X113665000Y-51455750D01*
X113506250Y-51297000D01*
X112892000Y-51293928D01*
X112767518Y-51306188D01*
X112647820Y-51342498D01*
X112537506Y-51401463D01*
X112440815Y-51480815D01*
X112361463Y-51577506D01*
X112302498Y-51687820D01*
X112266188Y-51807518D01*
X112253928Y-51932000D01*
X103078757Y-51932000D01*
X102931675Y-51656830D01*
X102728608Y-51409392D01*
X102481170Y-51206325D01*
X102198869Y-51055432D01*
X101892556Y-50962513D01*
X101653824Y-50939000D01*
X99514176Y-50939000D01*
X99275444Y-50962513D01*
X98969131Y-51055432D01*
X98686830Y-51206325D01*
X98439392Y-51409392D01*
X98236325Y-51656830D01*
X98085432Y-51939131D01*
X97992513Y-52245444D01*
X97961138Y-52564000D01*
X93125437Y-52564000D01*
X93116000Y-51662817D01*
X93116000Y-49403000D01*
X190373000Y-49403000D01*
X190373000Y-146177000D01*
G37*
%TD.AperFunction*%
D31*
X150241000Y-70220408D02*
X150241000Y-70495592D01*
X150271628Y-70649570D01*
X145792998Y-75128201D01*
X145764000Y-75151999D01*
X145740202Y-75180997D01*
X145740201Y-75180998D01*
X145669026Y-75267724D01*
X145598454Y-75399754D01*
X145554998Y-75543015D01*
X145540324Y-75692000D01*
X145544001Y-75729333D01*
X145544000Y-91633198D01*
X140549001Y-96628198D01*
X140549001Y-94046924D01*
X140552677Y-94009599D01*
X140549001Y-93972274D01*
X140549001Y-93972266D01*
X140538004Y-93860613D01*
X140494547Y-93717352D01*
X140423975Y-93585323D01*
X140329002Y-93469598D01*
X140300004Y-93445800D01*
X139769658Y-92915455D01*
X139783103Y-92902010D01*
X139937957Y-92670254D01*
X140044623Y-92412740D01*
X140099000Y-92139365D01*
X140099000Y-91860635D01*
X140044623Y-91587260D01*
X139937957Y-91329746D01*
X139783103Y-91097990D01*
X139586010Y-90900897D01*
X139354254Y-90746043D01*
X139315523Y-90730000D01*
X139354254Y-90713957D01*
X139586010Y-90559103D01*
X139783103Y-90362010D01*
X139937957Y-90130254D01*
X140044623Y-89872740D01*
X140099000Y-89599365D01*
X140099000Y-89320635D01*
X140044623Y-89047260D01*
X139937957Y-88789746D01*
X139783103Y-88557990D01*
X139586010Y-88360897D01*
X139354254Y-88206043D01*
X139318475Y-88191223D01*
X139413655Y-88140349D01*
X139482816Y-87898421D01*
X138684000Y-87099605D01*
X138669858Y-87113748D01*
X138490253Y-86934143D01*
X138504395Y-86920000D01*
X138863605Y-86920000D01*
X139662421Y-87718816D01*
X139904349Y-87649655D01*
X140023248Y-87397557D01*
X140090681Y-87127106D01*
X140104057Y-86848697D01*
X140062860Y-86573028D01*
X139968675Y-86310692D01*
X139904349Y-86190345D01*
X139662421Y-86121184D01*
X138863605Y-86920000D01*
X138504395Y-86920000D01*
X138490253Y-86905858D01*
X138669858Y-86726253D01*
X138684000Y-86740395D01*
X139482816Y-85941579D01*
X139413655Y-85699651D01*
X139311721Y-85651575D01*
X139354254Y-85633957D01*
X139586010Y-85479103D01*
X139783103Y-85282010D01*
X139937957Y-85050254D01*
X140044623Y-84792740D01*
X140099000Y-84519365D01*
X140099000Y-84240635D01*
X140044623Y-83967260D01*
X139937957Y-83709746D01*
X139783103Y-83477990D01*
X139586010Y-83280897D01*
X139354254Y-83126043D01*
X139315523Y-83110000D01*
X139354254Y-83093957D01*
X139586010Y-82939103D01*
X139783103Y-82742010D01*
X139937957Y-82510254D01*
X140044623Y-82252740D01*
X140099000Y-81979365D01*
X140099000Y-81700635D01*
X140044623Y-81427260D01*
X139937957Y-81169746D01*
X139783103Y-80937990D01*
X139586010Y-80740897D01*
X139354254Y-80586043D01*
X139315523Y-80570000D01*
X139354254Y-80553957D01*
X139586010Y-80399103D01*
X139783103Y-80202010D01*
X139937957Y-79970254D01*
X140044623Y-79712740D01*
X140099000Y-79439365D01*
X140099000Y-79160635D01*
X140044623Y-78887260D01*
X139937957Y-78629746D01*
X139783103Y-78397990D01*
X139586010Y-78200897D01*
X139354254Y-78046043D01*
X139315523Y-78030000D01*
X139354254Y-78013957D01*
X139586010Y-77859103D01*
X139783103Y-77662010D01*
X139937957Y-77430254D01*
X140044623Y-77172740D01*
X140099000Y-76899365D01*
X140099000Y-76620635D01*
X140044623Y-76347260D01*
X139937957Y-76089746D01*
X139783103Y-75857990D01*
X139586010Y-75660897D01*
X139354254Y-75506043D01*
X139315523Y-75490000D01*
X139354254Y-75473957D01*
X139586010Y-75319103D01*
X139783103Y-75122010D01*
X139937957Y-74890254D01*
X140044623Y-74632740D01*
X140099000Y-74359365D01*
X140099000Y-74080635D01*
X140044623Y-73807260D01*
X139937957Y-73549746D01*
X139783103Y-73317990D01*
X139586010Y-73120897D01*
X139354254Y-72966043D01*
X139315523Y-72950000D01*
X139354254Y-72933957D01*
X139586010Y-72779103D01*
X139783103Y-72582010D01*
X139937957Y-72350254D01*
X140044623Y-72092740D01*
X140099000Y-71819365D01*
X140099000Y-71540635D01*
X140065680Y-71373121D01*
X141407803Y-70030999D01*
X150278676Y-70030999D01*
X150241000Y-70220408D01*
%TA.AperFunction,Conductor*%
D32*
G36*
X150241000Y-70220408D02*
G01*
X150241000Y-70495592D01*
X150271628Y-70649570D01*
X145792998Y-75128201D01*
X145764000Y-75151999D01*
X145740202Y-75180997D01*
X145740201Y-75180998D01*
X145669026Y-75267724D01*
X145598454Y-75399754D01*
X145554998Y-75543015D01*
X145540324Y-75692000D01*
X145544001Y-75729333D01*
X145544000Y-91633198D01*
X140549001Y-96628198D01*
X140549001Y-94046924D01*
X140552677Y-94009599D01*
X140549001Y-93972274D01*
X140549001Y-93972266D01*
X140538004Y-93860613D01*
X140494547Y-93717352D01*
X140423975Y-93585323D01*
X140329002Y-93469598D01*
X140300004Y-93445800D01*
X139769658Y-92915455D01*
X139783103Y-92902010D01*
X139937957Y-92670254D01*
X140044623Y-92412740D01*
X140099000Y-92139365D01*
X140099000Y-91860635D01*
X140044623Y-91587260D01*
X139937957Y-91329746D01*
X139783103Y-91097990D01*
X139586010Y-90900897D01*
X139354254Y-90746043D01*
X139315523Y-90730000D01*
X139354254Y-90713957D01*
X139586010Y-90559103D01*
X139783103Y-90362010D01*
X139937957Y-90130254D01*
X140044623Y-89872740D01*
X140099000Y-89599365D01*
X140099000Y-89320635D01*
X140044623Y-89047260D01*
X139937957Y-88789746D01*
X139783103Y-88557990D01*
X139586010Y-88360897D01*
X139354254Y-88206043D01*
X139318475Y-88191223D01*
X139413655Y-88140349D01*
X139482816Y-87898421D01*
X138684000Y-87099605D01*
X138669858Y-87113748D01*
X138490253Y-86934143D01*
X138504395Y-86920000D01*
X138863605Y-86920000D01*
X139662421Y-87718816D01*
X139904349Y-87649655D01*
X140023248Y-87397557D01*
X140090681Y-87127106D01*
X140104057Y-86848697D01*
X140062860Y-86573028D01*
X139968675Y-86310692D01*
X139904349Y-86190345D01*
X139662421Y-86121184D01*
X138863605Y-86920000D01*
X138504395Y-86920000D01*
X138490253Y-86905858D01*
X138669858Y-86726253D01*
X138684000Y-86740395D01*
X139482816Y-85941579D01*
X139413655Y-85699651D01*
X139311721Y-85651575D01*
X139354254Y-85633957D01*
X139586010Y-85479103D01*
X139783103Y-85282010D01*
X139937957Y-85050254D01*
X140044623Y-84792740D01*
X140099000Y-84519365D01*
X140099000Y-84240635D01*
X140044623Y-83967260D01*
X139937957Y-83709746D01*
X139783103Y-83477990D01*
X139586010Y-83280897D01*
X139354254Y-83126043D01*
X139315523Y-83110000D01*
X139354254Y-83093957D01*
X139586010Y-82939103D01*
X139783103Y-82742010D01*
X139937957Y-82510254D01*
X140044623Y-82252740D01*
X140099000Y-81979365D01*
X140099000Y-81700635D01*
X140044623Y-81427260D01*
X139937957Y-81169746D01*
X139783103Y-80937990D01*
X139586010Y-80740897D01*
X139354254Y-80586043D01*
X139315523Y-80570000D01*
X139354254Y-80553957D01*
X139586010Y-80399103D01*
X139783103Y-80202010D01*
X139937957Y-79970254D01*
X140044623Y-79712740D01*
X140099000Y-79439365D01*
X140099000Y-79160635D01*
X140044623Y-78887260D01*
X139937957Y-78629746D01*
X139783103Y-78397990D01*
X139586010Y-78200897D01*
X139354254Y-78046043D01*
X139315523Y-78030000D01*
X139354254Y-78013957D01*
X139586010Y-77859103D01*
X139783103Y-77662010D01*
X139937957Y-77430254D01*
X140044623Y-77172740D01*
X140099000Y-76899365D01*
X140099000Y-76620635D01*
X140044623Y-76347260D01*
X139937957Y-76089746D01*
X139783103Y-75857990D01*
X139586010Y-75660897D01*
X139354254Y-75506043D01*
X139315523Y-75490000D01*
X139354254Y-75473957D01*
X139586010Y-75319103D01*
X139783103Y-75122010D01*
X139937957Y-74890254D01*
X140044623Y-74632740D01*
X140099000Y-74359365D01*
X140099000Y-74080635D01*
X140044623Y-73807260D01*
X139937957Y-73549746D01*
X139783103Y-73317990D01*
X139586010Y-73120897D01*
X139354254Y-72966043D01*
X139315523Y-72950000D01*
X139354254Y-72933957D01*
X139586010Y-72779103D01*
X139783103Y-72582010D01*
X139937957Y-72350254D01*
X140044623Y-72092740D01*
X140099000Y-71819365D01*
X140099000Y-71540635D01*
X140065680Y-71373121D01*
X141407803Y-70030999D01*
X150278676Y-70030999D01*
X150241000Y-70220408D01*
G37*
%TD.AperFunction*%
D31*
X150976273Y-76676005D02*
X151230510Y-76781314D01*
X151500408Y-76835000D01*
X151775592Y-76835000D01*
X151929571Y-76804372D01*
X153672000Y-78546802D01*
X153672001Y-87061197D01*
X151929571Y-88803628D01*
X151775592Y-88773000D01*
X151500408Y-88773000D01*
X151230510Y-88826686D01*
X150976273Y-88931995D01*
X150863999Y-89007014D01*
X150863999Y-86252986D01*
X150976273Y-86328005D01*
X151230510Y-86433314D01*
X151500408Y-86487000D01*
X151775592Y-86487000D01*
X152045490Y-86433314D01*
X152299727Y-86328005D01*
X152528535Y-86175120D01*
X152723120Y-85980535D01*
X152876005Y-85751727D01*
X152981314Y-85497490D01*
X153035000Y-85227592D01*
X153035000Y-84952408D01*
X152981314Y-84682510D01*
X152876005Y-84428273D01*
X152723120Y-84199465D01*
X152528535Y-84004880D01*
X152299727Y-83851995D01*
X152228057Y-83822308D01*
X152241023Y-83817636D01*
X152356980Y-83755656D01*
X152423960Y-83515565D01*
X151638000Y-82729605D01*
X151623858Y-82743748D01*
X151444253Y-82564143D01*
X151458395Y-82550000D01*
X151817605Y-82550000D01*
X152603565Y-83335960D01*
X152843656Y-83268980D01*
X152960756Y-83019952D01*
X153027023Y-82752865D01*
X153039910Y-82477983D01*
X152998922Y-82205867D01*
X152905636Y-81946977D01*
X152843656Y-81831020D01*
X152603565Y-81764040D01*
X151817605Y-82550000D01*
X151458395Y-82550000D01*
X151444253Y-82535858D01*
X151623858Y-82356253D01*
X151638000Y-82370395D01*
X152423960Y-81584435D01*
X152356980Y-81344344D01*
X152107952Y-81227244D01*
X151840865Y-81160977D01*
X151565983Y-81148090D01*
X151293867Y-81189078D01*
X151034977Y-81282364D01*
X150919020Y-81344344D01*
X150863999Y-81541568D01*
X150863999Y-76600986D01*
X150976273Y-76676005D01*
%TA.AperFunction,Conductor*%
D32*
G36*
X150976273Y-76676005D02*
G01*
X151230510Y-76781314D01*
X151500408Y-76835000D01*
X151775592Y-76835000D01*
X151929571Y-76804372D01*
X153672000Y-78546802D01*
X153672001Y-87061197D01*
X151929571Y-88803628D01*
X151775592Y-88773000D01*
X151500408Y-88773000D01*
X151230510Y-88826686D01*
X150976273Y-88931995D01*
X150863999Y-89007014D01*
X150863999Y-86252986D01*
X150976273Y-86328005D01*
X151230510Y-86433314D01*
X151500408Y-86487000D01*
X151775592Y-86487000D01*
X152045490Y-86433314D01*
X152299727Y-86328005D01*
X152528535Y-86175120D01*
X152723120Y-85980535D01*
X152876005Y-85751727D01*
X152981314Y-85497490D01*
X153035000Y-85227592D01*
X153035000Y-84952408D01*
X152981314Y-84682510D01*
X152876005Y-84428273D01*
X152723120Y-84199465D01*
X152528535Y-84004880D01*
X152299727Y-83851995D01*
X152228057Y-83822308D01*
X152241023Y-83817636D01*
X152356980Y-83755656D01*
X152423960Y-83515565D01*
X151638000Y-82729605D01*
X151623858Y-82743748D01*
X151444253Y-82564143D01*
X151458395Y-82550000D01*
X151817605Y-82550000D01*
X152603565Y-83335960D01*
X152843656Y-83268980D01*
X152960756Y-83019952D01*
X153027023Y-82752865D01*
X153039910Y-82477983D01*
X152998922Y-82205867D01*
X152905636Y-81946977D01*
X152843656Y-81831020D01*
X152603565Y-81764040D01*
X151817605Y-82550000D01*
X151458395Y-82550000D01*
X151444253Y-82535858D01*
X151623858Y-82356253D01*
X151638000Y-82370395D01*
X152423960Y-81584435D01*
X152356980Y-81344344D01*
X152107952Y-81227244D01*
X151840865Y-81160977D01*
X151565983Y-81148090D01*
X151293867Y-81189078D01*
X151034977Y-81282364D01*
X150919020Y-81344344D01*
X150863999Y-81541568D01*
X150863999Y-76600986D01*
X150976273Y-76676005D01*
G37*
%TD.AperFunction*%
D31*
X150241000Y-60060408D02*
X150241000Y-60335592D01*
X150294686Y-60605490D01*
X150399995Y-60859727D01*
X150552880Y-61088535D01*
X150747465Y-61283120D01*
X150976273Y-61436005D01*
X151230510Y-61541314D01*
X151500408Y-61595000D01*
X151775592Y-61595000D01*
X152045490Y-61541314D01*
X152299727Y-61436005D01*
X152528535Y-61283120D01*
X152723120Y-61088535D01*
X152876005Y-60859727D01*
X152981314Y-60605490D01*
X153035000Y-60335592D01*
X153035000Y-60129801D01*
X154180000Y-61274802D01*
X154180001Y-71694382D01*
X154176463Y-71701001D01*
X154133006Y-71844262D01*
X154122009Y-71955915D01*
X154122009Y-72040687D01*
X154118333Y-72078009D01*
X154122009Y-72115331D01*
X154122009Y-76847208D01*
X153004372Y-75729571D01*
X153035000Y-75575592D01*
X153035000Y-75300408D01*
X152981314Y-75030510D01*
X152876005Y-74776273D01*
X152723120Y-74547465D01*
X152528535Y-74352880D01*
X152325095Y-74216945D01*
X153236004Y-73306036D01*
X153265002Y-73282238D01*
X153359975Y-73166513D01*
X153430547Y-73034484D01*
X153474004Y-72891223D01*
X153485001Y-72779570D01*
X153488678Y-72742237D01*
X153485001Y-72704904D01*
X153485001Y-69873561D01*
X153488677Y-69836238D01*
X153485001Y-69798915D01*
X153485001Y-69798906D01*
X153474004Y-69687253D01*
X153430547Y-69543992D01*
X153364263Y-69419985D01*
X153359975Y-69411962D01*
X153288800Y-69325236D01*
X153265002Y-69296238D01*
X153236005Y-69272441D01*
X152723564Y-68760001D01*
X152704083Y-68736263D01*
X152719977Y-68720369D01*
X152603567Y-68603959D01*
X152843656Y-68536980D01*
X152960756Y-68287952D01*
X153027023Y-68020865D01*
X153039910Y-67745983D01*
X152998922Y-67473867D01*
X152905636Y-67214977D01*
X152843656Y-67099020D01*
X152603565Y-67032040D01*
X151817605Y-67818000D01*
X151831748Y-67832143D01*
X151652143Y-68011748D01*
X151638000Y-67997605D01*
X151623858Y-68011748D01*
X151444253Y-67832143D01*
X151458395Y-67818000D01*
X150672435Y-67032040D01*
X150432344Y-67099020D01*
X150315244Y-67348048D01*
X150248977Y-67615135D01*
X150236090Y-67890017D01*
X150277078Y-68162133D01*
X150370364Y-68421023D01*
X150418457Y-68510999D01*
X141130324Y-68510999D01*
X141093001Y-68507323D01*
X141055678Y-68510999D01*
X141055668Y-68510999D01*
X140944015Y-68521996D01*
X140800754Y-68565453D01*
X140668724Y-68636025D01*
X140616991Y-68678482D01*
X140553000Y-68730998D01*
X140529202Y-68759996D01*
X138990879Y-70298320D01*
X138823365Y-70265000D01*
X138544635Y-70265000D01*
X138271260Y-70319377D01*
X138013746Y-70426043D01*
X137781990Y-70580897D01*
X137584897Y-70777990D01*
X137430043Y-71009746D01*
X137323377Y-71267260D01*
X137269000Y-71540635D01*
X137269000Y-71730199D01*
X136904000Y-71365199D01*
X136904000Y-66852435D01*
X150852040Y-66852435D01*
X151638000Y-67638395D01*
X152423960Y-66852435D01*
X152356980Y-66612344D01*
X152107952Y-66495244D01*
X151840865Y-66428977D01*
X151565983Y-66416090D01*
X151293867Y-66457078D01*
X151034977Y-66550364D01*
X150919020Y-66612344D01*
X150852040Y-66852435D01*
X136904000Y-66852435D01*
X136904000Y-63814801D01*
X136906306Y-63812495D01*
X141779000Y-63812495D01*
X141779000Y-64203505D01*
X141855282Y-64587003D01*
X142004915Y-64948250D01*
X142222149Y-65273364D01*
X142498636Y-65549851D01*
X142823750Y-65767085D01*
X143184997Y-65916718D01*
X143568495Y-65993000D01*
X143959505Y-65993000D01*
X144343003Y-65916718D01*
X144704250Y-65767085D01*
X145029364Y-65549851D01*
X145305851Y-65273364D01*
X145523085Y-64948250D01*
X145672718Y-64587003D01*
X145749000Y-64203505D01*
X145749000Y-63812495D01*
X145672718Y-63428997D01*
X145523085Y-63067750D01*
X145305851Y-62742636D01*
X145029364Y-62466149D01*
X144704250Y-62248915D01*
X144343003Y-62099282D01*
X143959505Y-62023000D01*
X143568495Y-62023000D01*
X143184997Y-62099282D01*
X142823750Y-62248915D01*
X142498636Y-62466149D01*
X142222149Y-62742636D01*
X142004915Y-63067750D01*
X141855282Y-63428997D01*
X141779000Y-63812495D01*
X136906306Y-63812495D01*
X140847803Y-59870999D01*
X150278676Y-59870999D01*
X150241000Y-60060408D01*
%TA.AperFunction,Conductor*%
D32*
G36*
X150241000Y-60060408D02*
G01*
X150241000Y-60335592D01*
X150294686Y-60605490D01*
X150399995Y-60859727D01*
X150552880Y-61088535D01*
X150747465Y-61283120D01*
X150976273Y-61436005D01*
X151230510Y-61541314D01*
X151500408Y-61595000D01*
X151775592Y-61595000D01*
X152045490Y-61541314D01*
X152299727Y-61436005D01*
X152528535Y-61283120D01*
X152723120Y-61088535D01*
X152876005Y-60859727D01*
X152981314Y-60605490D01*
X153035000Y-60335592D01*
X153035000Y-60129801D01*
X154180000Y-61274802D01*
X154180001Y-71694382D01*
X154176463Y-71701001D01*
X154133006Y-71844262D01*
X154122009Y-71955915D01*
X154122009Y-72040687D01*
X154118333Y-72078009D01*
X154122009Y-72115331D01*
X154122009Y-76847208D01*
X153004372Y-75729571D01*
X153035000Y-75575592D01*
X153035000Y-75300408D01*
X152981314Y-75030510D01*
X152876005Y-74776273D01*
X152723120Y-74547465D01*
X152528535Y-74352880D01*
X152325095Y-74216945D01*
X153236004Y-73306036D01*
X153265002Y-73282238D01*
X153359975Y-73166513D01*
X153430547Y-73034484D01*
X153474004Y-72891223D01*
X153485001Y-72779570D01*
X153488678Y-72742237D01*
X153485001Y-72704904D01*
X153485001Y-69873561D01*
X153488677Y-69836238D01*
X153485001Y-69798915D01*
X153485001Y-69798906D01*
X153474004Y-69687253D01*
X153430547Y-69543992D01*
X153364263Y-69419985D01*
X153359975Y-69411962D01*
X153288800Y-69325236D01*
X153265002Y-69296238D01*
X153236005Y-69272441D01*
X152723564Y-68760001D01*
X152704083Y-68736263D01*
X152719977Y-68720369D01*
X152603567Y-68603959D01*
X152843656Y-68536980D01*
X152960756Y-68287952D01*
X153027023Y-68020865D01*
X153039910Y-67745983D01*
X152998922Y-67473867D01*
X152905636Y-67214977D01*
X152843656Y-67099020D01*
X152603565Y-67032040D01*
X151817605Y-67818000D01*
X151831748Y-67832143D01*
X151652143Y-68011748D01*
X151638000Y-67997605D01*
X151623858Y-68011748D01*
X151444253Y-67832143D01*
X151458395Y-67818000D01*
X150672435Y-67032040D01*
X150432344Y-67099020D01*
X150315244Y-67348048D01*
X150248977Y-67615135D01*
X150236090Y-67890017D01*
X150277078Y-68162133D01*
X150370364Y-68421023D01*
X150418457Y-68510999D01*
X141130324Y-68510999D01*
X141093001Y-68507323D01*
X141055678Y-68510999D01*
X141055668Y-68510999D01*
X140944015Y-68521996D01*
X140800754Y-68565453D01*
X140668724Y-68636025D01*
X140616991Y-68678482D01*
X140553000Y-68730998D01*
X140529202Y-68759996D01*
X138990879Y-70298320D01*
X138823365Y-70265000D01*
X138544635Y-70265000D01*
X138271260Y-70319377D01*
X138013746Y-70426043D01*
X137781990Y-70580897D01*
X137584897Y-70777990D01*
X137430043Y-71009746D01*
X137323377Y-71267260D01*
X137269000Y-71540635D01*
X137269000Y-71730199D01*
X136904000Y-71365199D01*
X136904000Y-66852435D01*
X150852040Y-66852435D01*
X151638000Y-67638395D01*
X152423960Y-66852435D01*
X152356980Y-66612344D01*
X152107952Y-66495244D01*
X151840865Y-66428977D01*
X151565983Y-66416090D01*
X151293867Y-66457078D01*
X151034977Y-66550364D01*
X150919020Y-66612344D01*
X150852040Y-66852435D01*
X136904000Y-66852435D01*
X136904000Y-63814801D01*
X136906306Y-63812495D01*
X141779000Y-63812495D01*
X141779000Y-64203505D01*
X141855282Y-64587003D01*
X142004915Y-64948250D01*
X142222149Y-65273364D01*
X142498636Y-65549851D01*
X142823750Y-65767085D01*
X143184997Y-65916718D01*
X143568495Y-65993000D01*
X143959505Y-65993000D01*
X144343003Y-65916718D01*
X144704250Y-65767085D01*
X145029364Y-65549851D01*
X145305851Y-65273364D01*
X145523085Y-64948250D01*
X145672718Y-64587003D01*
X145749000Y-64203505D01*
X145749000Y-63812495D01*
X145672718Y-63428997D01*
X145523085Y-63067750D01*
X145305851Y-62742636D01*
X145029364Y-62466149D01*
X144704250Y-62248915D01*
X144343003Y-62099282D01*
X143959505Y-62023000D01*
X143568495Y-62023000D01*
X143184997Y-62099282D01*
X142823750Y-62248915D01*
X142498636Y-62466149D01*
X142222149Y-62742636D01*
X142004915Y-63067750D01*
X141855282Y-63428997D01*
X141779000Y-63812495D01*
X136906306Y-63812495D01*
X140847803Y-59870999D01*
X150278676Y-59870999D01*
X150241000Y-60060408D01*
G37*
%TD.AperFunction*%
%TD*%
M02*
