M48
; DRILL file {KiCad (5.1.8)-1} date 12/04/20 19:27:53
; FORMAT={-:-/ absolute / inch / decimal}
; #@! TF.CreationDate,2020-12-04T19:27:53-08:00
; #@! TF.GenerationSoftware,Kicad,Pcbnew,(5.1.8)-1
FMAT,2
INCH
T1C0.0157
T2C0.0236
T3C0.0300
T4C0.0315
T5C0.0394
T6C0.0394
T7C0.0409
T8C0.0433
T9C0.0500
T10C0.0512
T11C0.0520
T12C0.0787
T13C0.1063
%
G90
G05
T1
X3.86Y-5.66
X3.88Y-3.3
X3.94Y-4.06
X4.1Y-4.68
X4.26Y-2.18
X4.36Y-2.54
X4.76Y-3.6
X4.9Y-3.1
X4.98Y-4.56
X5.02Y-5.04
X5.04Y-2.54
X5.68Y-5.34
X6.32Y-2.46
X6.32Y-3.1
X6.58Y-5.68
X6.7Y-4.94
X6.8Y-3.92
X6.9Y-2.3
X7.3Y-2.84
X7.32Y-3.7
X7.46Y-5.72
T2
X4.74Y-2.18
X4.7991Y-2.18
T3
X5.97Y-2.07
X5.97Y-2.17
X5.97Y-2.37
X6.67Y-2.07
X6.67Y-2.37
X5.97Y-2.67
X5.97Y-2.77
X5.97Y-2.97
X6.67Y-2.67
X6.67Y-2.97
X5.97Y-3.25
X5.97Y-3.35
X5.97Y-3.55
X6.67Y-3.25
X6.67Y-3.55
T4
X4.8Y-2.3616
X4.8Y-2.46
T5
X4.48Y-2.08
X4.48Y-2.18
X4.48Y-2.28
T6
X4.6831Y-5.7
X5.0769Y-5.7
X4.6831Y-5.52
X5.0769Y-5.52
T7
X4.46Y-2.822
X4.46Y-2.922
X4.46Y-3.022
X4.46Y-3.122
X4.46Y-3.222
X4.46Y-3.322
X4.46Y-3.422
X4.46Y-3.522
X4.46Y-3.622
X4.46Y-3.722
X4.46Y-3.822
X4.46Y-3.922
X4.46Y-4.022
X4.46Y-4.122
X4.46Y-4.222
X4.46Y-4.322
X4.46Y-4.422
X4.46Y-4.522
X4.46Y-4.622
X5.46Y-2.822
X5.46Y-2.922
X5.46Y-3.022
X5.46Y-3.122
X5.46Y-3.222
X5.46Y-3.322
X5.46Y-3.422
X5.46Y-3.522
X5.46Y-3.622
X5.46Y-3.722
X5.46Y-3.822
X5.46Y-3.922
X5.46Y-4.022
X5.46Y-4.122
X5.46Y-4.222
X5.46Y-4.322
X5.46Y-4.422
X5.46Y-4.522
X5.46Y-4.622
T8
X3.9244Y-5.1616
X3.9244Y-5.3584
X4.4953Y-5.1616
X4.4953Y-5.26
X4.4953Y-5.3584
T9
X5.96Y-3.8796
X5.96Y-3.98
X5.96Y-4.0804
X6.38Y-4.58
X6.4804Y-4.58
X6.5808Y-4.58
X6.28Y-3.8796
X6.28Y-3.98
X6.28Y-4.0804
T10
X5.7324Y-4.6807
X5.7324Y-4.8791
X5.7324Y-5.0776
X5.7324Y-5.6783
X6.0276Y-4.6807
X6.0276Y-4.8791
X6.0276Y-5.0776
X6.0276Y-5.6783
T11
X3.96Y-2.0694
X3.96Y-2.2663
X3.96Y-2.4631
X3.96Y-2.66
X7.22Y-4.7031
X7.22Y-4.9
X7.22Y-5.0969
X7.22Y-2.24
X7.22Y-2.4369
X7.22Y-2.6337
X7.22Y-3.98
X7.22Y-4.1769
X7.22Y-4.3737
X6.4231Y-5.48
X6.62Y-5.48
X7.22Y-3.02
X7.22Y-3.2169
X7.22Y-3.4137
T13
X3.88Y-4.28
X7.34Y-5.62
X3.88Y-3.0
X5.66Y-2.52
T12
G00X4.1843Y-5.0356
M15
G01X4.2157Y-5.0356
M16
G05
G00X4.1843Y-5.4844
M15
G01X4.2157Y-5.4844
M16
G05
T0
M30
