%TF.GenerationSoftware,KiCad,Pcbnew,(5.1.8)-1*%
%TF.CreationDate,Date%
%TF.ProjectId,TasmoTree,5461736d-6f54-4726-9565-2e6b69636164,rev?*%
%TF.SameCoordinates,Original*%
%TF.FileFunction,Legend,Bot*%
%TF.FilePolarity,Positive*%
%FSLAX46Y46*%
G04 Gerber Fmt 4.6, Leading zero omitted, Abs format (unit mm)*
G04 Created by KiCad*
%MOMM*%
%LPD*%
G01*
G04 APERTURE LIST*
%ADD10C,0.150000*%
%ADD11C,0.010000*%
G04 APERTURE END LIST*
D10*
X136039619Y-120659476D02*
X136134857Y-120611857D01*
X136325333Y-120611857D01*
X136420571Y-120659476D01*
X136515809Y-120754714D01*
X136563428Y-120849952D01*
X136563428Y-121040428D01*
X136515809Y-121135666D01*
X136420571Y-121230904D01*
X136325333Y-121278523D01*
X136134857Y-121278523D01*
X136039619Y-121230904D01*
X136230095Y-120278523D02*
X136468190Y-120326142D01*
X136706285Y-120469000D01*
X136849142Y-120707095D01*
X136896761Y-120945190D01*
X136849142Y-121183285D01*
X136706285Y-121421380D01*
X136468190Y-121564238D01*
X136230095Y-121611857D01*
X135992000Y-121564238D01*
X135753904Y-121421380D01*
X135611047Y-121183285D01*
X135563428Y-120945190D01*
X135611047Y-120707095D01*
X135753904Y-120469000D01*
X135992000Y-120326142D01*
X136230095Y-120278523D01*
X135182476Y-121373761D02*
X135039619Y-121421380D01*
X134801523Y-121421380D01*
X134706285Y-121373761D01*
X134658666Y-121326142D01*
X134611047Y-121230904D01*
X134611047Y-121135666D01*
X134658666Y-121040428D01*
X134706285Y-120992809D01*
X134801523Y-120945190D01*
X134992000Y-120897571D01*
X135087238Y-120849952D01*
X135134857Y-120802333D01*
X135182476Y-120707095D01*
X135182476Y-120611857D01*
X135134857Y-120516619D01*
X135087238Y-120469000D01*
X134992000Y-120421380D01*
X134753904Y-120421380D01*
X134611047Y-120469000D01*
X134325333Y-120754714D02*
X133944380Y-120754714D01*
X134182476Y-120421380D02*
X134182476Y-121278523D01*
X134134857Y-121373761D01*
X134039619Y-121421380D01*
X133944380Y-121421380D01*
X133182476Y-121421380D02*
X133182476Y-120897571D01*
X133230095Y-120802333D01*
X133325333Y-120754714D01*
X133515809Y-120754714D01*
X133611047Y-120802333D01*
X133182476Y-121373761D02*
X133277714Y-121421380D01*
X133515809Y-121421380D01*
X133611047Y-121373761D01*
X133658666Y-121278523D01*
X133658666Y-121183285D01*
X133611047Y-121088047D01*
X133515809Y-121040428D01*
X133277714Y-121040428D01*
X133182476Y-120992809D01*
X132706285Y-120754714D02*
X132706285Y-121421380D01*
X132706285Y-120849952D02*
X132658666Y-120802333D01*
X132563428Y-120754714D01*
X132420571Y-120754714D01*
X132325333Y-120802333D01*
X132277714Y-120897571D01*
X132277714Y-121421380D01*
X131658666Y-121421380D02*
X131753904Y-121373761D01*
X131801523Y-121278523D01*
X131801523Y-120421380D01*
X130896761Y-121373761D02*
X130992000Y-121421380D01*
X131182476Y-121421380D01*
X131277714Y-121373761D01*
X131325333Y-121278523D01*
X131325333Y-120897571D01*
X131277714Y-120802333D01*
X131182476Y-120754714D01*
X130992000Y-120754714D01*
X130896761Y-120802333D01*
X130849142Y-120897571D01*
X130849142Y-120992809D01*
X131325333Y-121088047D01*
X130515809Y-120754714D02*
X130277714Y-121421380D01*
X130039619Y-120754714D02*
X130277714Y-121421380D01*
X130372952Y-121659476D01*
X130420571Y-121707095D01*
X130515809Y-121754714D01*
X128944380Y-121373761D02*
X128801523Y-121421380D01*
X128563428Y-121421380D01*
X128468190Y-121373761D01*
X128420571Y-121326142D01*
X128372952Y-121230904D01*
X128372952Y-121135666D01*
X128420571Y-121040428D01*
X128468190Y-120992809D01*
X128563428Y-120945190D01*
X128753904Y-120897571D01*
X128849142Y-120849952D01*
X128896761Y-120802333D01*
X128944380Y-120707095D01*
X128944380Y-120611857D01*
X128896761Y-120516619D01*
X128849142Y-120469000D01*
X128753904Y-120421380D01*
X128515809Y-120421380D01*
X128372952Y-120469000D01*
X127801523Y-121421380D02*
X127896761Y-121373761D01*
X127944380Y-121326142D01*
X127992000Y-121230904D01*
X127992000Y-120945190D01*
X127944380Y-120849952D01*
X127896761Y-120802333D01*
X127801523Y-120754714D01*
X127658666Y-120754714D01*
X127563428Y-120802333D01*
X127515809Y-120849952D01*
X127468190Y-120945190D01*
X127468190Y-121230904D01*
X127515809Y-121326142D01*
X127563428Y-121373761D01*
X127658666Y-121421380D01*
X127801523Y-121421380D01*
X126896761Y-121421380D02*
X126992000Y-121373761D01*
X127039619Y-121278523D01*
X127039619Y-120421380D01*
X126087238Y-120754714D02*
X126087238Y-121421380D01*
X126515809Y-120754714D02*
X126515809Y-121278523D01*
X126468190Y-121373761D01*
X126372952Y-121421380D01*
X126230095Y-121421380D01*
X126134857Y-121373761D01*
X126087238Y-121326142D01*
X125753904Y-120754714D02*
X125372952Y-120754714D01*
X125611047Y-120421380D02*
X125611047Y-121278523D01*
X125563428Y-121373761D01*
X125468190Y-121421380D01*
X125372952Y-121421380D01*
X125039619Y-121421380D02*
X125039619Y-120754714D01*
X125039619Y-120421380D02*
X125087238Y-120469000D01*
X125039619Y-120516619D01*
X124992000Y-120469000D01*
X125039619Y-120421380D01*
X125039619Y-120516619D01*
X124420571Y-121421380D02*
X124515809Y-121373761D01*
X124563428Y-121326142D01*
X124611047Y-121230904D01*
X124611047Y-120945190D01*
X124563428Y-120849952D01*
X124515809Y-120802333D01*
X124420571Y-120754714D01*
X124277714Y-120754714D01*
X124182476Y-120802333D01*
X124134857Y-120849952D01*
X124087238Y-120945190D01*
X124087238Y-121230904D01*
X124134857Y-121326142D01*
X124182476Y-121373761D01*
X124277714Y-121421380D01*
X124420571Y-121421380D01*
X123658666Y-120754714D02*
X123658666Y-121421380D01*
X123658666Y-120849952D02*
X123611047Y-120802333D01*
X123515809Y-120754714D01*
X123372952Y-120754714D01*
X123277714Y-120802333D01*
X123230095Y-120897571D01*
X123230095Y-121421380D01*
X122801523Y-121373761D02*
X122706285Y-121421380D01*
X122515809Y-121421380D01*
X122420571Y-121373761D01*
X122372952Y-121278523D01*
X122372952Y-121230904D01*
X122420571Y-121135666D01*
X122515809Y-121088047D01*
X122658666Y-121088047D01*
X122753904Y-121040428D01*
X122801523Y-120945190D01*
X122801523Y-120897571D01*
X122753904Y-120802333D01*
X122658666Y-120754714D01*
X122515809Y-120754714D01*
X122420571Y-120802333D01*
X120944380Y-121754714D02*
X120944380Y-120326142D01*
X119515809Y-120516619D02*
X119468190Y-120469000D01*
X119372952Y-120421380D01*
X119134857Y-120421380D01*
X119039619Y-120469000D01*
X118992000Y-120516619D01*
X118944380Y-120611857D01*
X118944380Y-120707095D01*
X118992000Y-120849952D01*
X119563428Y-121421380D01*
X118944380Y-121421380D01*
X118325333Y-120421380D02*
X118230095Y-120421380D01*
X118134857Y-120469000D01*
X118087238Y-120516619D01*
X118039619Y-120611857D01*
X117992000Y-120802333D01*
X117992000Y-121040428D01*
X118039619Y-121230904D01*
X118087238Y-121326142D01*
X118134857Y-121373761D01*
X118230095Y-121421380D01*
X118325333Y-121421380D01*
X118420571Y-121373761D01*
X118468190Y-121326142D01*
X118515809Y-121230904D01*
X118563428Y-121040428D01*
X118563428Y-120802333D01*
X118515809Y-120611857D01*
X118468190Y-120516619D01*
X118420571Y-120469000D01*
X118325333Y-120421380D01*
X117611047Y-120516619D02*
X117563428Y-120469000D01*
X117468190Y-120421380D01*
X117230095Y-120421380D01*
X117134857Y-120469000D01*
X117087238Y-120516619D01*
X117039619Y-120611857D01*
X117039619Y-120707095D01*
X117087238Y-120849952D01*
X117658666Y-121421380D01*
X117039619Y-121421380D01*
X116420571Y-120421380D02*
X116325333Y-120421380D01*
X116230095Y-120469000D01*
X116182476Y-120516619D01*
X116134857Y-120611857D01*
X116087238Y-120802333D01*
X116087238Y-121040428D01*
X116134857Y-121230904D01*
X116182476Y-121326142D01*
X116230095Y-121373761D01*
X116325333Y-121421380D01*
X116420571Y-121421380D01*
X116515809Y-121373761D01*
X116563428Y-121326142D01*
X116611047Y-121230904D01*
X116658666Y-121040428D01*
X116658666Y-120802333D01*
X116611047Y-120611857D01*
X116563428Y-120516619D01*
X116515809Y-120469000D01*
X116420571Y-120421380D01*
X135111047Y-122976142D02*
X135158666Y-123023761D01*
X135301523Y-123071380D01*
X135396761Y-123071380D01*
X135539619Y-123023761D01*
X135634857Y-122928523D01*
X135682476Y-122833285D01*
X135730095Y-122642809D01*
X135730095Y-122499952D01*
X135682476Y-122309476D01*
X135634857Y-122214238D01*
X135539619Y-122119000D01*
X135396761Y-122071380D01*
X135301523Y-122071380D01*
X135158666Y-122119000D01*
X135111047Y-122166619D01*
X134253904Y-122404714D02*
X134253904Y-123071380D01*
X134682476Y-122404714D02*
X134682476Y-122928523D01*
X134634857Y-123023761D01*
X134539619Y-123071380D01*
X134396761Y-123071380D01*
X134301523Y-123023761D01*
X134253904Y-122976142D01*
X133825333Y-123023761D02*
X133730095Y-123071380D01*
X133539619Y-123071380D01*
X133444380Y-123023761D01*
X133396761Y-122928523D01*
X133396761Y-122880904D01*
X133444380Y-122785666D01*
X133539619Y-122738047D01*
X133682476Y-122738047D01*
X133777714Y-122690428D01*
X133825333Y-122595190D01*
X133825333Y-122547571D01*
X133777714Y-122452333D01*
X133682476Y-122404714D01*
X133539619Y-122404714D01*
X133444380Y-122452333D01*
X133111047Y-122404714D02*
X132730095Y-122404714D01*
X132968190Y-122071380D02*
X132968190Y-122928523D01*
X132920571Y-123023761D01*
X132825333Y-123071380D01*
X132730095Y-123071380D01*
X132253904Y-123071380D02*
X132349142Y-123023761D01*
X132396761Y-122976142D01*
X132444380Y-122880904D01*
X132444380Y-122595190D01*
X132396761Y-122499952D01*
X132349142Y-122452333D01*
X132253904Y-122404714D01*
X132111047Y-122404714D01*
X132015809Y-122452333D01*
X131968190Y-122499952D01*
X131920571Y-122595190D01*
X131920571Y-122880904D01*
X131968190Y-122976142D01*
X132015809Y-123023761D01*
X132111047Y-123071380D01*
X132253904Y-123071380D01*
X131492000Y-123071380D02*
X131492000Y-122404714D01*
X131492000Y-122499952D02*
X131444380Y-122452333D01*
X131349142Y-122404714D01*
X131206285Y-122404714D01*
X131111047Y-122452333D01*
X131063428Y-122547571D01*
X131063428Y-123071380D01*
X131063428Y-122547571D02*
X131015809Y-122452333D01*
X130920571Y-122404714D01*
X130777714Y-122404714D01*
X130682476Y-122452333D01*
X130634857Y-122547571D01*
X130634857Y-123071380D01*
X128825333Y-122976142D02*
X128872952Y-123023761D01*
X129015809Y-123071380D01*
X129111047Y-123071380D01*
X129253904Y-123023761D01*
X129349142Y-122928523D01*
X129396761Y-122833285D01*
X129444380Y-122642809D01*
X129444380Y-122499952D01*
X129396761Y-122309476D01*
X129349142Y-122214238D01*
X129253904Y-122119000D01*
X129111047Y-122071380D01*
X129015809Y-122071380D01*
X128872952Y-122119000D01*
X128825333Y-122166619D01*
X128396761Y-123071380D02*
X128396761Y-122404714D01*
X128396761Y-122595190D02*
X128349142Y-122499952D01*
X128301523Y-122452333D01*
X128206285Y-122404714D01*
X128111047Y-122404714D01*
X127349142Y-123071380D02*
X127349142Y-122547571D01*
X127396761Y-122452333D01*
X127492000Y-122404714D01*
X127682476Y-122404714D01*
X127777714Y-122452333D01*
X127349142Y-123023761D02*
X127444380Y-123071380D01*
X127682476Y-123071380D01*
X127777714Y-123023761D01*
X127825333Y-122928523D01*
X127825333Y-122833285D01*
X127777714Y-122738047D01*
X127682476Y-122690428D01*
X127444380Y-122690428D01*
X127349142Y-122642809D01*
X127015809Y-122404714D02*
X126634857Y-122404714D01*
X126872952Y-123071380D02*
X126872952Y-122214238D01*
X126825333Y-122119000D01*
X126730095Y-122071380D01*
X126634857Y-122071380D01*
X126444380Y-122404714D02*
X126063428Y-122404714D01*
X126301523Y-122071380D02*
X126301523Y-122928523D01*
X126253904Y-123023761D01*
X126158666Y-123071380D01*
X126063428Y-123071380D01*
X125349142Y-123023761D02*
X125444380Y-123071380D01*
X125634857Y-123071380D01*
X125730095Y-123023761D01*
X125777714Y-122928523D01*
X125777714Y-122547571D01*
X125730095Y-122452333D01*
X125634857Y-122404714D01*
X125444380Y-122404714D01*
X125349142Y-122452333D01*
X125301523Y-122547571D01*
X125301523Y-122642809D01*
X125777714Y-122738047D01*
X124444380Y-123071380D02*
X124444380Y-122071380D01*
X124444380Y-123023761D02*
X124539619Y-123071380D01*
X124730095Y-123071380D01*
X124825333Y-123023761D01*
X124872952Y-122976142D01*
X124920571Y-122880904D01*
X124920571Y-122595190D01*
X124872952Y-122499952D01*
X124825333Y-122452333D01*
X124730095Y-122404714D01*
X124539619Y-122404714D01*
X124444380Y-122452333D01*
X123349142Y-122404714D02*
X122968190Y-122404714D01*
X123206285Y-123071380D02*
X123206285Y-122214238D01*
X123158666Y-122119000D01*
X123063428Y-122071380D01*
X122968190Y-122071380D01*
X122492000Y-123071380D02*
X122587238Y-123023761D01*
X122634857Y-122976142D01*
X122682476Y-122880904D01*
X122682476Y-122595190D01*
X122634857Y-122499952D01*
X122587238Y-122452333D01*
X122492000Y-122404714D01*
X122349142Y-122404714D01*
X122253904Y-122452333D01*
X122206285Y-122499952D01*
X122158666Y-122595190D01*
X122158666Y-122880904D01*
X122206285Y-122976142D01*
X122253904Y-123023761D01*
X122349142Y-123071380D01*
X122492000Y-123071380D01*
X121730095Y-123071380D02*
X121730095Y-122404714D01*
X121730095Y-122595190D02*
X121682476Y-122499952D01*
X121634857Y-122452333D01*
X121539619Y-122404714D01*
X121444380Y-122404714D01*
X120396761Y-123023761D02*
X120253904Y-123071380D01*
X120015809Y-123071380D01*
X119920571Y-123023761D01*
X119872952Y-122976142D01*
X119825333Y-122880904D01*
X119825333Y-122785666D01*
X119872952Y-122690428D01*
X119920571Y-122642809D01*
X120015809Y-122595190D01*
X120206285Y-122547571D01*
X120301523Y-122499952D01*
X120349142Y-122452333D01*
X120396761Y-122357095D01*
X120396761Y-122261857D01*
X120349142Y-122166619D01*
X120301523Y-122119000D01*
X120206285Y-122071380D01*
X119968190Y-122071380D01*
X119825333Y-122119000D01*
X119396761Y-123071380D02*
X119396761Y-122071380D01*
X118968190Y-123071380D02*
X118968190Y-122547571D01*
X119015809Y-122452333D01*
X119111047Y-122404714D01*
X119253904Y-122404714D01*
X119349142Y-122452333D01*
X119396761Y-122499952D01*
X118063428Y-123071380D02*
X118063428Y-122547571D01*
X118111047Y-122452333D01*
X118206285Y-122404714D01*
X118396761Y-122404714D01*
X118492000Y-122452333D01*
X118063428Y-123023761D02*
X118158666Y-123071380D01*
X118396761Y-123071380D01*
X118492000Y-123023761D01*
X118539619Y-122928523D01*
X118539619Y-122833285D01*
X118492000Y-122738047D01*
X118396761Y-122690428D01*
X118158666Y-122690428D01*
X118063428Y-122642809D01*
X117682476Y-122404714D02*
X117444380Y-123071380D01*
X117206285Y-122404714D02*
X117444380Y-123071380D01*
X117539619Y-123309476D01*
X117587238Y-123357095D01*
X117682476Y-123404714D01*
X134872952Y-124721380D02*
X134872952Y-123721380D01*
X134872952Y-124197571D02*
X134301523Y-124197571D01*
X134301523Y-124721380D02*
X134301523Y-123721380D01*
X133444380Y-124673761D02*
X133539619Y-124721380D01*
X133730095Y-124721380D01*
X133825333Y-124673761D01*
X133872952Y-124578523D01*
X133872952Y-124197571D01*
X133825333Y-124102333D01*
X133730095Y-124054714D01*
X133539619Y-124054714D01*
X133444380Y-124102333D01*
X133396761Y-124197571D01*
X133396761Y-124292809D01*
X133872952Y-124388047D01*
X132968190Y-124054714D02*
X132968190Y-124721380D01*
X132968190Y-124149952D02*
X132920571Y-124102333D01*
X132825333Y-124054714D01*
X132682476Y-124054714D01*
X132587238Y-124102333D01*
X132539619Y-124197571D01*
X132539619Y-124721380D01*
X131634857Y-124054714D02*
X131634857Y-124864238D01*
X131682476Y-124959476D01*
X131730095Y-125007095D01*
X131825333Y-125054714D01*
X131968190Y-125054714D01*
X132063428Y-125007095D01*
X131634857Y-124673761D02*
X131730095Y-124721380D01*
X131920571Y-124721380D01*
X132015809Y-124673761D01*
X132063428Y-124626142D01*
X132111047Y-124530904D01*
X132111047Y-124245190D01*
X132063428Y-124149952D01*
X132015809Y-124102333D01*
X131920571Y-124054714D01*
X131730095Y-124054714D01*
X131634857Y-124102333D01*
X130777714Y-124673761D02*
X130872952Y-124721380D01*
X131063428Y-124721380D01*
X131158666Y-124673761D01*
X131206285Y-124578523D01*
X131206285Y-124197571D01*
X131158666Y-124102333D01*
X131063428Y-124054714D01*
X130872952Y-124054714D01*
X130777714Y-124102333D01*
X130730095Y-124197571D01*
X130730095Y-124292809D01*
X131206285Y-124388047D01*
X130301523Y-124054714D02*
X130301523Y-124721380D01*
X130301523Y-124149952D02*
X130253904Y-124102333D01*
X130158666Y-124054714D01*
X130015809Y-124054714D01*
X129920571Y-124102333D01*
X129872952Y-124197571D01*
X129872952Y-124721380D01*
X128730095Y-124054714D02*
X128539619Y-124721380D01*
X128349142Y-124245190D01*
X128158666Y-124721380D01*
X127968190Y-124054714D01*
X127587238Y-124721380D02*
X127587238Y-124054714D01*
X127587238Y-123721380D02*
X127634857Y-123769000D01*
X127587238Y-123816619D01*
X127539619Y-123769000D01*
X127587238Y-123721380D01*
X127587238Y-123816619D01*
X127253904Y-124054714D02*
X126872952Y-124054714D01*
X127111047Y-123721380D02*
X127111047Y-124578523D01*
X127063428Y-124673761D01*
X126968190Y-124721380D01*
X126872952Y-124721380D01*
X126539619Y-124721380D02*
X126539619Y-123721380D01*
X126111047Y-124721380D02*
X126111047Y-124197571D01*
X126158666Y-124102333D01*
X126253904Y-124054714D01*
X126396761Y-124054714D01*
X126492000Y-124102333D01*
X126539619Y-124149952D01*
X124730095Y-124721380D02*
X124825333Y-124673761D01*
X124872952Y-124578523D01*
X124872952Y-123721380D01*
X124206285Y-124721380D02*
X124301523Y-124673761D01*
X124349142Y-124626142D01*
X124396761Y-124530904D01*
X124396761Y-124245190D01*
X124349142Y-124149952D01*
X124301523Y-124102333D01*
X124206285Y-124054714D01*
X124063428Y-124054714D01*
X123968190Y-124102333D01*
X123920571Y-124149952D01*
X123872952Y-124245190D01*
X123872952Y-124530904D01*
X123920571Y-124626142D01*
X123968190Y-124673761D01*
X124063428Y-124721380D01*
X124206285Y-124721380D01*
X123539619Y-124054714D02*
X123301523Y-124721380D01*
X123063428Y-124054714D01*
X122301523Y-124673761D02*
X122396761Y-124721380D01*
X122587238Y-124721380D01*
X122682476Y-124673761D01*
X122730095Y-124578523D01*
X122730095Y-124197571D01*
X122682476Y-124102333D01*
X122587238Y-124054714D01*
X122396761Y-124054714D01*
X122301523Y-124102333D01*
X122253904Y-124197571D01*
X122253904Y-124292809D01*
X122730095Y-124388047D01*
X121206285Y-124054714D02*
X120825333Y-124054714D01*
X121063428Y-124721380D02*
X121063428Y-123864238D01*
X121015809Y-123769000D01*
X120920571Y-123721380D01*
X120825333Y-123721380D01*
X120492000Y-124721380D02*
X120492000Y-124054714D01*
X120492000Y-124245190D02*
X120444380Y-124149952D01*
X120396761Y-124102333D01*
X120301523Y-124054714D01*
X120206285Y-124054714D01*
X119730095Y-124721380D02*
X119825333Y-124673761D01*
X119872952Y-124626142D01*
X119920571Y-124530904D01*
X119920571Y-124245190D01*
X119872952Y-124149952D01*
X119825333Y-124102333D01*
X119730095Y-124054714D01*
X119587238Y-124054714D01*
X119492000Y-124102333D01*
X119444380Y-124149952D01*
X119396761Y-124245190D01*
X119396761Y-124530904D01*
X119444380Y-124626142D01*
X119492000Y-124673761D01*
X119587238Y-124721380D01*
X119730095Y-124721380D01*
X118968190Y-124721380D02*
X118968190Y-124054714D01*
X118968190Y-124149952D02*
X118920571Y-124102333D01*
X118825333Y-124054714D01*
X118682476Y-124054714D01*
X118587238Y-124102333D01*
X118539619Y-124197571D01*
X118539619Y-124721380D01*
X118539619Y-124197571D02*
X118492000Y-124102333D01*
X118396761Y-124054714D01*
X118253904Y-124054714D01*
X118158666Y-124102333D01*
X118111047Y-124197571D01*
X118111047Y-124721380D01*
X137515809Y-126085666D02*
X137039619Y-126085666D01*
X137611047Y-126371380D02*
X137277714Y-125371380D01*
X136944380Y-126371380D01*
X136468190Y-126371380D02*
X136563428Y-126323761D01*
X136611047Y-126228523D01*
X136611047Y-125371380D01*
X135658666Y-126371380D02*
X135658666Y-125847571D01*
X135706285Y-125752333D01*
X135801523Y-125704714D01*
X135992000Y-125704714D01*
X136087238Y-125752333D01*
X135658666Y-126323761D02*
X135753904Y-126371380D01*
X135992000Y-126371380D01*
X136087238Y-126323761D01*
X136134857Y-126228523D01*
X136134857Y-126133285D01*
X136087238Y-126038047D01*
X135992000Y-125990428D01*
X135753904Y-125990428D01*
X135658666Y-125942809D01*
X135182476Y-125704714D02*
X135182476Y-126371380D01*
X135182476Y-125799952D02*
X135134857Y-125752333D01*
X135039619Y-125704714D01*
X134896761Y-125704714D01*
X134801523Y-125752333D01*
X134753904Y-125847571D01*
X134753904Y-126371380D01*
X133515809Y-126371380D02*
X133515809Y-125371380D01*
X133515809Y-125847571D02*
X132944380Y-125847571D01*
X132944380Y-126371380D02*
X132944380Y-125371380D01*
X132087238Y-126323761D02*
X132182476Y-126371380D01*
X132372952Y-126371380D01*
X132468190Y-126323761D01*
X132515809Y-126228523D01*
X132515809Y-125847571D01*
X132468190Y-125752333D01*
X132372952Y-125704714D01*
X132182476Y-125704714D01*
X132087238Y-125752333D01*
X132039619Y-125847571D01*
X132039619Y-125942809D01*
X132515809Y-126038047D01*
X131611047Y-125704714D02*
X131611047Y-126371380D01*
X131611047Y-125799952D02*
X131563428Y-125752333D01*
X131468190Y-125704714D01*
X131325333Y-125704714D01*
X131230095Y-125752333D01*
X131182476Y-125847571D01*
X131182476Y-126371380D01*
X130277714Y-125704714D02*
X130277714Y-126514238D01*
X130325333Y-126609476D01*
X130372952Y-126657095D01*
X130468190Y-126704714D01*
X130611047Y-126704714D01*
X130706285Y-126657095D01*
X130277714Y-126323761D02*
X130372952Y-126371380D01*
X130563428Y-126371380D01*
X130658666Y-126323761D01*
X130706285Y-126276142D01*
X130753904Y-126180904D01*
X130753904Y-125895190D01*
X130706285Y-125799952D01*
X130658666Y-125752333D01*
X130563428Y-125704714D01*
X130372952Y-125704714D01*
X130277714Y-125752333D01*
X129420571Y-126323761D02*
X129515809Y-126371380D01*
X129706285Y-126371380D01*
X129801523Y-126323761D01*
X129849142Y-126228523D01*
X129849142Y-125847571D01*
X129801523Y-125752333D01*
X129706285Y-125704714D01*
X129515809Y-125704714D01*
X129420571Y-125752333D01*
X129372952Y-125847571D01*
X129372952Y-125942809D01*
X129849142Y-126038047D01*
X128944380Y-125704714D02*
X128944380Y-126371380D01*
X128944380Y-125799952D02*
X128896761Y-125752333D01*
X128801523Y-125704714D01*
X128658666Y-125704714D01*
X128563428Y-125752333D01*
X128515809Y-125847571D01*
X128515809Y-126371380D01*
X126849142Y-126371380D02*
X126849142Y-125847571D01*
X126896761Y-125752333D01*
X126992000Y-125704714D01*
X127182476Y-125704714D01*
X127277714Y-125752333D01*
X126849142Y-126323761D02*
X126944380Y-126371380D01*
X127182476Y-126371380D01*
X127277714Y-126323761D01*
X127325333Y-126228523D01*
X127325333Y-126133285D01*
X127277714Y-126038047D01*
X127182476Y-125990428D01*
X126944380Y-125990428D01*
X126849142Y-125942809D01*
X126372952Y-125704714D02*
X126372952Y-126371380D01*
X126372952Y-125799952D02*
X126325333Y-125752333D01*
X126230095Y-125704714D01*
X126087238Y-125704714D01*
X125992000Y-125752333D01*
X125944380Y-125847571D01*
X125944380Y-126371380D01*
X125039619Y-126371380D02*
X125039619Y-125371380D01*
X125039619Y-126323761D02*
X125134857Y-126371380D01*
X125325333Y-126371380D01*
X125420571Y-126323761D01*
X125468190Y-126276142D01*
X125515809Y-126180904D01*
X125515809Y-125895190D01*
X125468190Y-125799952D01*
X125420571Y-125752333D01*
X125325333Y-125704714D01*
X125134857Y-125704714D01*
X125039619Y-125752333D01*
X123515809Y-125371380D02*
X123515809Y-126085666D01*
X123563428Y-126228523D01*
X123658666Y-126323761D01*
X123801523Y-126371380D01*
X123896761Y-126371380D01*
X122896761Y-126371380D02*
X122992000Y-126323761D01*
X123039619Y-126276142D01*
X123087238Y-126180904D01*
X123087238Y-125895190D01*
X123039619Y-125799952D01*
X122992000Y-125752333D01*
X122896761Y-125704714D01*
X122753904Y-125704714D01*
X122658666Y-125752333D01*
X122611047Y-125799952D01*
X122563428Y-125895190D01*
X122563428Y-126180904D01*
X122611047Y-126276142D01*
X122658666Y-126323761D01*
X122753904Y-126371380D01*
X122896761Y-126371380D01*
X121753904Y-126323761D02*
X121849142Y-126371380D01*
X122039619Y-126371380D01*
X122134857Y-126323761D01*
X122182476Y-126228523D01*
X122182476Y-125847571D01*
X122134857Y-125752333D01*
X122039619Y-125704714D01*
X121849142Y-125704714D01*
X121753904Y-125752333D01*
X121706285Y-125847571D01*
X121706285Y-125942809D01*
X122182476Y-126038047D01*
X120563428Y-126323761D02*
X120420571Y-126371380D01*
X120182476Y-126371380D01*
X120087238Y-126323761D01*
X120039619Y-126276142D01*
X119992000Y-126180904D01*
X119992000Y-126085666D01*
X120039619Y-125990428D01*
X120087238Y-125942809D01*
X120182476Y-125895190D01*
X120372952Y-125847571D01*
X120468190Y-125799952D01*
X120515809Y-125752333D01*
X120563428Y-125657095D01*
X120563428Y-125561857D01*
X120515809Y-125466619D01*
X120468190Y-125419000D01*
X120372952Y-125371380D01*
X120134857Y-125371380D01*
X119992000Y-125419000D01*
X119706285Y-125704714D02*
X119325333Y-125704714D01*
X119563428Y-125371380D02*
X119563428Y-126228523D01*
X119515809Y-126323761D01*
X119420571Y-126371380D01*
X119325333Y-126371380D01*
X118563428Y-126371380D02*
X118563428Y-125847571D01*
X118611047Y-125752333D01*
X118706285Y-125704714D01*
X118896761Y-125704714D01*
X118992000Y-125752333D01*
X118563428Y-126323761D02*
X118658666Y-126371380D01*
X118896761Y-126371380D01*
X118992000Y-126323761D01*
X119039619Y-126228523D01*
X119039619Y-126133285D01*
X118992000Y-126038047D01*
X118896761Y-125990428D01*
X118658666Y-125990428D01*
X118563428Y-125942809D01*
X118087238Y-125704714D02*
X118087238Y-126371380D01*
X118087238Y-125799952D02*
X118039619Y-125752333D01*
X117944380Y-125704714D01*
X117801523Y-125704714D01*
X117706285Y-125752333D01*
X117658666Y-125847571D01*
X117658666Y-126371380D01*
X117039619Y-126371380D02*
X117134857Y-126323761D01*
X117182476Y-126228523D01*
X117182476Y-125371380D01*
X116277714Y-126323761D02*
X116372952Y-126371380D01*
X116563428Y-126371380D01*
X116658666Y-126323761D01*
X116706285Y-126228523D01*
X116706285Y-125847571D01*
X116658666Y-125752333D01*
X116563428Y-125704714D01*
X116372952Y-125704714D01*
X116277714Y-125752333D01*
X116230095Y-125847571D01*
X116230095Y-125942809D01*
X116706285Y-126038047D01*
X115896761Y-125704714D02*
X115658666Y-126371380D01*
X115420571Y-125704714D02*
X115658666Y-126371380D01*
X115753904Y-126609476D01*
X115801523Y-126657095D01*
X115896761Y-126704714D01*
D11*
%TO.C,G\u002A\u002A\u002A*%
G36*
X124515405Y-69066510D02*
G01*
X124673414Y-69707008D01*
X124774003Y-70162959D01*
X124958748Y-70978552D01*
X125102417Y-71470069D01*
X125246561Y-71711350D01*
X125432727Y-71776230D01*
X125664758Y-71745955D01*
X126154285Y-71669254D01*
X126865298Y-71578621D01*
X127406400Y-71518686D01*
X128625600Y-71392981D01*
X127254000Y-72232950D01*
X126608978Y-72656678D01*
X126126964Y-73028024D01*
X125892569Y-73280192D01*
X125882560Y-73315659D01*
X125964890Y-73610929D01*
X126180849Y-74154355D01*
X126484148Y-74829689D01*
X126492160Y-74846644D01*
X126794168Y-75497910D01*
X127012173Y-75992579D01*
X127101326Y-76228693D01*
X127101600Y-76232199D01*
X126961805Y-76156336D01*
X126590999Y-75868009D01*
X126062045Y-75424604D01*
X125917436Y-75299554D01*
X125331823Y-74809359D01*
X124855460Y-74445739D01*
X124576052Y-74274834D01*
X124551728Y-74269600D01*
X124331903Y-74403199D01*
X123907489Y-74758408D01*
X123358612Y-75266840D01*
X123182700Y-75438000D01*
X121995216Y-76606400D01*
X122393872Y-75590400D01*
X122680329Y-74879687D01*
X122955966Y-74226320D01*
X123063481Y-73984433D01*
X123192609Y-73712240D01*
X123242121Y-73516828D01*
X123159027Y-73341813D01*
X122890336Y-73130810D01*
X122383059Y-72827434D01*
X121584206Y-72375301D01*
X121513600Y-72335262D01*
X120294400Y-71643411D01*
X122005823Y-71686505D01*
X123717246Y-71729600D01*
X123979314Y-70330326D01*
X124153692Y-69428971D01*
X124282918Y-68921726D01*
X124394365Y-68802828D01*
X124515405Y-69066510D01*
G37*
X124515405Y-69066510D02*
X124673414Y-69707008D01*
X124774003Y-70162959D01*
X124958748Y-70978552D01*
X125102417Y-71470069D01*
X125246561Y-71711350D01*
X125432727Y-71776230D01*
X125664758Y-71745955D01*
X126154285Y-71669254D01*
X126865298Y-71578621D01*
X127406400Y-71518686D01*
X128625600Y-71392981D01*
X127254000Y-72232950D01*
X126608978Y-72656678D01*
X126126964Y-73028024D01*
X125892569Y-73280192D01*
X125882560Y-73315659D01*
X125964890Y-73610929D01*
X126180849Y-74154355D01*
X126484148Y-74829689D01*
X126492160Y-74846644D01*
X126794168Y-75497910D01*
X127012173Y-75992579D01*
X127101326Y-76228693D01*
X127101600Y-76232199D01*
X126961805Y-76156336D01*
X126590999Y-75868009D01*
X126062045Y-75424604D01*
X125917436Y-75299554D01*
X125331823Y-74809359D01*
X124855460Y-74445739D01*
X124576052Y-74274834D01*
X124551728Y-74269600D01*
X124331903Y-74403199D01*
X123907489Y-74758408D01*
X123358612Y-75266840D01*
X123182700Y-75438000D01*
X121995216Y-76606400D01*
X122393872Y-75590400D01*
X122680329Y-74879687D01*
X122955966Y-74226320D01*
X123063481Y-73984433D01*
X123192609Y-73712240D01*
X123242121Y-73516828D01*
X123159027Y-73341813D01*
X122890336Y-73130810D01*
X122383059Y-72827434D01*
X121584206Y-72375301D01*
X121513600Y-72335262D01*
X120294400Y-71643411D01*
X122005823Y-71686505D01*
X123717246Y-71729600D01*
X123979314Y-70330326D01*
X124153692Y-69428971D01*
X124282918Y-68921726D01*
X124394365Y-68802828D01*
X124515405Y-69066510D01*
G36*
X134631526Y-85155322D02*
G01*
X133489712Y-86249250D01*
X129129028Y-81885025D01*
X128032306Y-80794893D01*
X127021330Y-79804270D01*
X126133209Y-78948398D01*
X125405056Y-78262516D01*
X124873979Y-77781866D01*
X124577090Y-77541687D01*
X124533210Y-77520800D01*
X124336493Y-77661281D01*
X123895942Y-78058333D01*
X123249181Y-78675366D01*
X122433831Y-79475790D01*
X121487517Y-80423014D01*
X120447861Y-81480450D01*
X120197745Y-81737200D01*
X119138727Y-82822172D01*
X118163411Y-83813724D01*
X117309881Y-84673745D01*
X116616220Y-85364125D01*
X116120513Y-85846752D01*
X115860841Y-86083516D01*
X115839353Y-86098723D01*
X115527245Y-86060836D01*
X115098491Y-85738465D01*
X115046941Y-85686105D01*
X114512591Y-85128365D01*
X119538605Y-80105367D01*
X124564618Y-75082370D01*
X134631526Y-85155322D01*
G37*
X134631526Y-85155322D02*
X133489712Y-86249250D01*
X129129028Y-81885025D01*
X128032306Y-80794893D01*
X127021330Y-79804270D01*
X126133209Y-78948398D01*
X125405056Y-78262516D01*
X124873979Y-77781866D01*
X124577090Y-77541687D01*
X124533210Y-77520800D01*
X124336493Y-77661281D01*
X123895942Y-78058333D01*
X123249181Y-78675366D01*
X122433831Y-79475790D01*
X121487517Y-80423014D01*
X120447861Y-81480450D01*
X120197745Y-81737200D01*
X119138727Y-82822172D01*
X118163411Y-83813724D01*
X117309881Y-84673745D01*
X116616220Y-85364125D01*
X116120513Y-85846752D01*
X115860841Y-86083516D01*
X115839353Y-86098723D01*
X115527245Y-86060836D01*
X115098491Y-85738465D01*
X115046941Y-85686105D01*
X114512591Y-85128365D01*
X119538605Y-80105367D01*
X124564618Y-75082370D01*
X134631526Y-85155322D01*
G36*
X134631526Y-89219322D02*
G01*
X134010517Y-89814287D01*
X133389507Y-90409252D01*
X128973820Y-85996987D01*
X124558133Y-81584721D01*
X120192839Y-85953560D01*
X119100899Y-87042706D01*
X118101282Y-88032714D01*
X117229954Y-88888524D01*
X116522879Y-89575074D01*
X116016024Y-90057300D01*
X115745354Y-90300142D01*
X115711389Y-90322400D01*
X115509500Y-90189554D01*
X115154234Y-89860074D01*
X115053912Y-89757382D01*
X114512591Y-89192365D01*
X119538605Y-84169367D01*
X124564618Y-79146370D01*
X134631526Y-89219322D01*
G37*
X134631526Y-89219322D02*
X134010517Y-89814287D01*
X133389507Y-90409252D01*
X128973820Y-85996987D01*
X124558133Y-81584721D01*
X120192839Y-85953560D01*
X119100899Y-87042706D01*
X118101282Y-88032714D01*
X117229954Y-88888524D01*
X116522879Y-89575074D01*
X116016024Y-90057300D01*
X115745354Y-90300142D01*
X115711389Y-90322400D01*
X115509500Y-90189554D01*
X115154234Y-89860074D01*
X115053912Y-89757382D01*
X114512591Y-89192365D01*
X119538605Y-84169367D01*
X124564618Y-79146370D01*
X134631526Y-89219322D01*
G36*
X124751288Y-83552477D02*
G01*
X125189443Y-83947065D01*
X125844738Y-84564297D01*
X126682765Y-85371109D01*
X127669119Y-86334435D01*
X128769391Y-87421208D01*
X129699703Y-88348476D01*
X134631496Y-93283352D01*
X134010501Y-93878302D01*
X133389507Y-94473252D01*
X128973820Y-90060987D01*
X124558133Y-85648721D01*
X120192839Y-90017560D01*
X119100899Y-91106706D01*
X118101282Y-92096714D01*
X117229954Y-92952524D01*
X116522879Y-93639074D01*
X116016024Y-94121300D01*
X115745354Y-94364142D01*
X115711389Y-94386400D01*
X115509500Y-94253554D01*
X115154232Y-93924073D01*
X115053897Y-93821366D01*
X114512561Y-93256333D01*
X119437005Y-88334966D01*
X120602601Y-87175826D01*
X121681475Y-86113899D01*
X122639158Y-85182267D01*
X123441184Y-84414010D01*
X124053084Y-83842209D01*
X124440392Y-83499945D01*
X124564679Y-83413600D01*
X124751288Y-83552477D01*
G37*
X124751288Y-83552477D02*
X125189443Y-83947065D01*
X125844738Y-84564297D01*
X126682765Y-85371109D01*
X127669119Y-86334435D01*
X128769391Y-87421208D01*
X129699703Y-88348476D01*
X134631496Y-93283352D01*
X134010501Y-93878302D01*
X133389507Y-94473252D01*
X128973820Y-90060987D01*
X124558133Y-85648721D01*
X120192839Y-90017560D01*
X119100899Y-91106706D01*
X118101282Y-92096714D01*
X117229954Y-92952524D01*
X116522879Y-93639074D01*
X116016024Y-94121300D01*
X115745354Y-94364142D01*
X115711389Y-94386400D01*
X115509500Y-94253554D01*
X115154232Y-93924073D01*
X115053897Y-93821366D01*
X114512561Y-93256333D01*
X119437005Y-88334966D01*
X120602601Y-87175826D01*
X121681475Y-86113899D01*
X122639158Y-85182267D01*
X123441184Y-84414010D01*
X124053084Y-83842209D01*
X124440392Y-83499945D01*
X124564679Y-83413600D01*
X124751288Y-83552477D01*
G36*
X127123736Y-89825420D02*
G01*
X128173529Y-90878710D01*
X129372492Y-92099265D01*
X130593321Y-93356488D01*
X131708711Y-94519781D01*
X132026953Y-94855500D01*
X134485362Y-97458200D01*
X133397912Y-98545650D01*
X128978023Y-94129186D01*
X124558133Y-89712721D01*
X120192839Y-94081560D01*
X119100782Y-95170740D01*
X118100905Y-96160776D01*
X117229198Y-97016601D01*
X116521649Y-97703152D01*
X116014251Y-98185361D01*
X115742992Y-98428164D01*
X115708792Y-98450400D01*
X115503693Y-98316911D01*
X115158386Y-97990255D01*
X115108164Y-97937465D01*
X114626287Y-97424530D01*
X118476343Y-93517865D01*
X119568736Y-92412705D01*
X120633446Y-91341611D01*
X121617370Y-90357549D01*
X122467400Y-89513487D01*
X123130433Y-88862393D01*
X123502665Y-88504620D01*
X124678930Y-87398041D01*
X127123736Y-89825420D01*
G37*
X127123736Y-89825420D02*
X128173529Y-90878710D01*
X129372492Y-92099265D01*
X130593321Y-93356488D01*
X131708711Y-94519781D01*
X132026953Y-94855500D01*
X134485362Y-97458200D01*
X133397912Y-98545650D01*
X128978023Y-94129186D01*
X124558133Y-89712721D01*
X120192839Y-94081560D01*
X119100782Y-95170740D01*
X118100905Y-96160776D01*
X117229198Y-97016601D01*
X116521649Y-97703152D01*
X116014251Y-98185361D01*
X115742992Y-98428164D01*
X115708792Y-98450400D01*
X115503693Y-98316911D01*
X115158386Y-97990255D01*
X115108164Y-97937465D01*
X114626287Y-97424530D01*
X118476343Y-93517865D01*
X119568736Y-92412705D01*
X120633446Y-91341611D01*
X121617370Y-90357549D01*
X122467400Y-89513487D01*
X123130433Y-88862393D01*
X123502665Y-88504620D01*
X124678930Y-87398041D01*
X127123736Y-89825420D01*
G36*
X134631526Y-101614522D02*
G01*
X133489712Y-102708450D01*
X129129028Y-98344225D01*
X128033748Y-97254517D01*
X127025981Y-96264224D01*
X126142536Y-95408543D01*
X125420221Y-94722672D01*
X124895846Y-94241809D01*
X124606218Y-94001151D01*
X124565066Y-93980000D01*
X124375759Y-94118519D01*
X123937239Y-94510668D01*
X123286278Y-95121334D01*
X122459651Y-95915400D01*
X121494129Y-96857755D01*
X120426487Y-97913284D01*
X119983934Y-98354461D01*
X115606081Y-102728922D01*
X115059336Y-102158243D01*
X114512591Y-101587565D01*
X119538605Y-96564567D01*
X124564618Y-91541570D01*
X134631526Y-101614522D01*
G37*
X134631526Y-101614522D02*
X133489712Y-102708450D01*
X129129028Y-98344225D01*
X128033748Y-97254517D01*
X127025981Y-96264224D01*
X126142536Y-95408543D01*
X125420221Y-94722672D01*
X124895846Y-94241809D01*
X124606218Y-94001151D01*
X124565066Y-93980000D01*
X124375759Y-94118519D01*
X123937239Y-94510668D01*
X123286278Y-95121334D01*
X122459651Y-95915400D01*
X121494129Y-96857755D01*
X120426487Y-97913284D01*
X119983934Y-98354461D01*
X115606081Y-102728922D01*
X115059336Y-102158243D01*
X114512591Y-101587565D01*
X119538605Y-96564567D01*
X124564618Y-91541570D01*
X134631526Y-101614522D01*
G36*
X125567926Y-98697367D02*
G01*
X126314397Y-98864645D01*
X127131229Y-99209394D01*
X127271314Y-99278544D01*
X128562175Y-100127979D01*
X129554317Y-101199721D01*
X130243258Y-102435743D01*
X130624516Y-103778019D01*
X130693606Y-105168522D01*
X130446048Y-106549228D01*
X129877357Y-107862109D01*
X128983051Y-109049140D01*
X128086373Y-109828860D01*
X127425332Y-110266843D01*
X127008038Y-110415226D01*
X126783394Y-110264105D01*
X126700301Y-109803572D01*
X126695200Y-109559136D01*
X126738911Y-108958850D01*
X126913408Y-108610748D01*
X127197096Y-108410466D01*
X127856117Y-107858762D01*
X128415735Y-107025125D01*
X128825057Y-106031119D01*
X129033188Y-104998305D01*
X129000388Y-104103207D01*
X128617110Y-102949087D01*
X127971621Y-101893714D01*
X127577409Y-101458379D01*
X127080419Y-101068687D01*
X126495579Y-100722988D01*
X125938969Y-100476498D01*
X125526666Y-100384433D01*
X125400209Y-100422723D01*
X125366755Y-100651677D01*
X125336585Y-101233388D01*
X125310904Y-102114220D01*
X125290913Y-103240534D01*
X125277816Y-104558693D01*
X125272816Y-106015061D01*
X125272800Y-106104266D01*
X125272800Y-111658400D01*
X124555222Y-111658400D01*
X124053057Y-111593434D01*
X123759142Y-111434079D01*
X123743200Y-111404400D01*
X123716192Y-111140364D01*
X123688307Y-110525916D01*
X123660986Y-109617036D01*
X123635666Y-108469706D01*
X123613789Y-107139906D01*
X123597178Y-105724520D01*
X123545600Y-100298640D01*
X122732800Y-100666237D01*
X121565715Y-101383343D01*
X120737776Y-102324274D01*
X120250821Y-103486171D01*
X120105562Y-104749600D01*
X120267972Y-106135301D01*
X120757425Y-107284778D01*
X121579549Y-108210505D01*
X121714924Y-108317945D01*
X122184377Y-108741070D01*
X122389003Y-109164645D01*
X122428000Y-109650517D01*
X122374352Y-110196694D01*
X122175392Y-110412897D01*
X121774095Y-110320186D01*
X121310400Y-110063281D01*
X120293463Y-109254665D01*
X119398824Y-108201230D01*
X118921716Y-107402316D01*
X118675727Y-106807434D01*
X118535402Y-106173663D01*
X118476654Y-105359422D01*
X118470466Y-104749600D01*
X118493099Y-103814809D01*
X118574312Y-103137273D01*
X118743485Y-102568895D01*
X119019648Y-101981335D01*
X119731543Y-100931740D01*
X120669575Y-99991553D01*
X121712601Y-99269402D01*
X122373869Y-98973660D01*
X123099937Y-98800293D01*
X124002771Y-98684065D01*
X124666942Y-98653600D01*
X125567926Y-98697367D01*
G37*
X125567926Y-98697367D02*
X126314397Y-98864645D01*
X127131229Y-99209394D01*
X127271314Y-99278544D01*
X128562175Y-100127979D01*
X129554317Y-101199721D01*
X130243258Y-102435743D01*
X130624516Y-103778019D01*
X130693606Y-105168522D01*
X130446048Y-106549228D01*
X129877357Y-107862109D01*
X128983051Y-109049140D01*
X128086373Y-109828860D01*
X127425332Y-110266843D01*
X127008038Y-110415226D01*
X126783394Y-110264105D01*
X126700301Y-109803572D01*
X126695200Y-109559136D01*
X126738911Y-108958850D01*
X126913408Y-108610748D01*
X127197096Y-108410466D01*
X127856117Y-107858762D01*
X128415735Y-107025125D01*
X128825057Y-106031119D01*
X129033188Y-104998305D01*
X129000388Y-104103207D01*
X128617110Y-102949087D01*
X127971621Y-101893714D01*
X127577409Y-101458379D01*
X127080419Y-101068687D01*
X126495579Y-100722988D01*
X125938969Y-100476498D01*
X125526666Y-100384433D01*
X125400209Y-100422723D01*
X125366755Y-100651677D01*
X125336585Y-101233388D01*
X125310904Y-102114220D01*
X125290913Y-103240534D01*
X125277816Y-104558693D01*
X125272816Y-106015061D01*
X125272800Y-106104266D01*
X125272800Y-111658400D01*
X124555222Y-111658400D01*
X124053057Y-111593434D01*
X123759142Y-111434079D01*
X123743200Y-111404400D01*
X123716192Y-111140364D01*
X123688307Y-110525916D01*
X123660986Y-109617036D01*
X123635666Y-108469706D01*
X123613789Y-107139906D01*
X123597178Y-105724520D01*
X123545600Y-100298640D01*
X122732800Y-100666237D01*
X121565715Y-101383343D01*
X120737776Y-102324274D01*
X120250821Y-103486171D01*
X120105562Y-104749600D01*
X120267972Y-106135301D01*
X120757425Y-107284778D01*
X121579549Y-108210505D01*
X121714924Y-108317945D01*
X122184377Y-108741070D01*
X122389003Y-109164645D01*
X122428000Y-109650517D01*
X122374352Y-110196694D01*
X122175392Y-110412897D01*
X121774095Y-110320186D01*
X121310400Y-110063281D01*
X120293463Y-109254665D01*
X119398824Y-108201230D01*
X118921716Y-107402316D01*
X118675727Y-106807434D01*
X118535402Y-106173663D01*
X118476654Y-105359422D01*
X118470466Y-104749600D01*
X118493099Y-103814809D01*
X118574312Y-103137273D01*
X118743485Y-102568895D01*
X119019648Y-101981335D01*
X119731543Y-100931740D01*
X120669575Y-99991553D01*
X121712601Y-99269402D01*
X122373869Y-98973660D01*
X123099937Y-98800293D01*
X124002771Y-98684065D01*
X124666942Y-98653600D01*
X125567926Y-98697367D01*
%TD*%
M02*
